Trickster_V1950.ufo
<glyph name="exclam" format="1">
  <advance width="292"/>
  <unicode hex="0021"/>
  <outline>
    <contour>
      <point x="125" y="255" type="line"/>
      <point x="167" y="255" type="line"/>
      <point x="242" y="750" type="line"/>
      <point x="50" y="750" type="line"/>
    </contour>
    <contour>
      <point x="30" y="99" type="line"/>
      <point x="146" y="-18" type="line"/>
      <point x="262" y="99" type="line"/>
      <point x="146" y="214" type="line"/>
    </contour>
  </outline>
</glyph>
<glyph name="numbersign" format="1">
  <advance width="633"/>
  <unicode hex="0023"/>
  <outline>
    <contour>
      <point x="40" y="0" type="line"/>
      <point x="111" y="0" type="line"/>
      <point x="181" y="226" type="line"/>
      <point x="345" y="226" type="line"/>
      <point x="275" y="0" type="line"/>
      <point x="346" y="0" type="line"/>
      <point x="416" y="226" type="line"/>
      <point x="563" y="226" type="line"/>
      <point x="573" y="279" type="line"/>
      <point x="432" y="279" type="line"/>
      <point x="492" y="471" type="line"/>
      <point x="613" y="471" type="line"/>
      <point x="623" y="524" type="line"/>
      <point x="508" y="524" type="line"/>
      <point x="578" y="750" type="line"/>
      <point x="507" y="750" type="line"/>
      <point x="437" y="524" type="line"/>
      <point x="273" y="524" type="line"/>
      <point x="343" y="750" type="line"/>
      <point x="272" y="750" type="line"/>
      <point x="202" y="524" type="line"/>
      <point x="55" y="524" type="line"/>
      <point x="45" y="471" type="line"/>
      <point x="186" y="471" type="line"/>
      <point x="126" y="279" type="line"/>
      <point x="5" y="279" type="line"/>
      <point x="-5" y="226" type="line"/>
      <point x="110" y="226" type="line"/>
    </contour>
    <contour>
      <point x="197" y="279" type="line"/>
      <point x="257" y="471" type="line"/>
      <point x="421" y="471" type="line"/>
      <point x="361" y="279" type="line"/>
    </contour>
  </outline>
</glyph>
<glyph name="dollar" format="1">
  <advance width="616"/>
  <unicode hex="0024"/>
  <outline>
    <contour>
      <point x="284" y="-125" type="line"/>
      <point x="329" y="-125" type="line"/>
      <point x="329" y="-13" type="line"/>
      <point x="487" y="-7"/>
      <point x="588" y="61"/>
      <point x="588" y="206" type="curve" smooth="yes"/>
      <point x="588" y="279"/>
      <point x="545" y="333"/>
      <point x="486" y="377" type="curve"/>
      <point x="499" y="444"/>
      <point x="564" y="518"/>
      <point x="564" y="597" type="curve" smooth="yes"/>
      <point x="564" y="693"/>
      <point x="452" y="761"/>
      <point x="329" y="763" type="curve"/>
      <point x="329" y="858" type="line"/>
      <point x="284" y="858" type="line"/>
      <point x="284" y="761" type="line"/>
      <point x="139" y="747"/>
      <point x="66" y="652"/>
      <point x="66" y="552" type="curve" smooth="yes"/>
      <point x="66" y="463"/>
      <point x="107" y="404"/>
      <point x="165" y="360" type="curve"/>
      <point x="65" y="294"/>
      <point x="18" y="226"/>
      <point x="18" y="151" type="curve" smooth="yes"/>
      <point x="18" y="54"/>
      <point x="119" y="-7"/>
      <point x="284" y="-13" type="curve"/>
    </contour>
    <contour>
      <point x="139" y="615" type="curve" smooth="yes"/>
      <point x="139" y="651"/>
      <point x="161" y="678"/>
      <point x="219" y="678" type="curve" smooth="yes"/>
      <point x="242" y="678"/>
      <point x="264" y="675"/>
      <point x="284" y="670" type="curve"/>
      <point x="284" y="487" type="line"/>
      <point x="204" y="526"/>
      <point x="139" y="563"/>
    </contour>
    <contour>
      <point x="329" y="465" type="curve"/>
      <point x="329" y="654" type="line"/>
      <point x="409" y="614"/>
      <point x="458" y="527"/>
      <point x="455" y="398" type="curve"/>
      <point x="416" y="423"/>
      <point x="371" y="445"/>
    </contour>
    <contour>
      <point x="106" y="229" type="curve" smooth="yes"/>
      <point x="106" y="264"/>
      <point x="144" y="295"/>
      <point x="258" y="304" type="curve"/>
      <point x="267" y="300"/>
      <point x="275" y="296"/>
      <point x="284" y="292" type="curve"/>
      <point x="284" y="88" type="line"/>
      <point x="190" y="119"/>
      <point x="106" y="179"/>
    </contour>
    <contour>
      <point x="503" y="126" type="curve" smooth="yes"/>
      <point x="503" y="85"/>
      <point x="470" y="65"/>
      <point x="406" y="65" type="curve" smooth="yes"/>
      <point x="382" y="65"/>
      <point x="355" y="68"/>
      <point x="329" y="75" type="curve"/>
      <point x="329" y="271" type="line"/>
      <point x="422" y="231"/>
      <point x="503" y="196"/>
    </contour>
  </outline>
</glyph>
<glyph name="percent" format="1">
  <advance width="633"/>
  <unicode hex="0025"/>
  <outline>
    <contour>
      <point x="167" y="500" type="curve" smooth="yes"/>
      <point x="239" y="500"/>
      <point x="298" y="559"/>
      <point x="298" y="632" type="curve" smooth="yes"/>
      <point x="298" y="704"/>
      <point x="239" y="763"/>
      <point x="167" y="763" type="curve" smooth="yes"/>
      <point x="94" y="763"/>
      <point x="35" y="704"/>
      <point x="35" y="632" type="curve" smooth="yes"/>
      <point x="35" y="559"/>
      <point x="94" y="500"/>
    </contour>
    <contour>
      <point x="25" y="0" type="line"/>
      <point x="126" y="0" type="line"/>
      <point x="608" y="750" type="line"/>
      <point x="507" y="750" type="line"/>
    </contour>
    <contour>
      <point x="467" y="-13" type="curve" smooth="yes"/>
      <point x="539" y="-13"/>
      <point x="598" y="46"/>
      <point x="598" y="119" type="curve" smooth="yes"/>
      <point x="598" y="191"/>
      <point x="539" y="250"/>
      <point x="467" y="250" type="curve" smooth="yes"/>
      <point x="394" y="250"/>
      <point x="335" y="191"/>
      <point x="335" y="119" type="curve" smooth="yes"/>
      <point x="335" y="46"/>
      <point x="394" y="-13"/>
    </contour>
  </outline>
</glyph>
<glyph name="ampersand" format="1">
  <advance width="709"/>
  <unicode hex="0026"/>
  <outline>
    <contour>
      <point x="9" y="213" type="curve"/>
      <point x="54" y="109"/>
      <point x="154" y="20"/>
      <point x="290" y="-15" type="curve"/>
      <point x="445" y="44"/>
      <point x="526" y="92"/>
      <point x="582" y="174" type="curve"/>
      <point x="610" y="169"/>
      <point x="640" y="164"/>
      <point x="671" y="160" type="curve"/>
      <point x="671" y="317" type="line"/>
      <point x="646" y="317"/>
      <point x="622" y="317"/>
      <point x="599" y="318" type="curve"/>
      <point x="620" y="691" type="line"/>
      <point x="474" y="636" type="line"/>
      <point x="506" y="323" type="line"/>
      <point x="431" y="328"/>
      <point x="368" y="338"/>
      <point x="315" y="350" type="curve"/>
      <point x="386" y="410"/>
      <point x="428" y="481"/>
      <point x="428" y="563" type="curve" smooth="yes"/>
      <point x="428" y="688"/>
      <point x="341" y="762"/>
      <point x="227" y="762" type="curve" smooth="yes"/>
      <point x="106" y="762"/>
      <point x="25" y="677"/>
      <point x="25" y="568" type="curve" smooth="yes"/>
      <point x="25" y="474"/>
      <point x="69" y="386"/>
      <point x="178" y="313" type="curve"/>
      <point x="126" y="277"/>
      <point x="67" y="244"/>
    </contour>
    <contour>
      <point x="67" y="577" type="curve" smooth="yes"/>
      <point x="67" y="648"/>
      <point x="119" y="703"/>
      <point x="197" y="703" type="curve" smooth="yes"/>
      <point x="281" y="703"/>
      <point x="331" y="644"/>
      <point x="331" y="542" type="curve" smooth="yes"/>
      <point x="331" y="475"/>
      <point x="298" y="419"/>
      <point x="247" y="370" type="curve"/>
      <point x="112" y="418"/>
      <point x="67" y="493"/>
    </contour>
    <contour>
      <point x="135" y="247" type="curve"/>
      <point x="165" y="260"/>
      <point x="194" y="273"/>
      <point x="220" y="288" type="curve"/>
      <point x="289" y="250"/>
      <point x="378" y="217"/>
      <point x="490" y="192" type="curve"/>
      <point x="470" y="150"/>
      <point x="447" y="110"/>
      <point x="415" y="67" type="curve"/>
      <point x="281" y="124"/>
      <point x="197" y="174"/>
    </contour>
  </outline>
</glyph>
<glyph name="quotesingle" format="1">
  <advance width="173"/>
  <unicode hex="0027"/>
  <outline>
    <contour>
      <point x="109" y="426" type="line"/>
      <point x="148" y="697" type="line"/>
      <point x="148" y="750" type="line"/>
      <point x="25" y="750" type="line"/>
      <point x="25" y="697" type="line"/>
      <point x="70" y="426" type="line"/>
    </contour>
  </outline>
</glyph>
<glyph name="parenleft" format="1">
  <advance width="319"/>
  <unicode hex="0028"/>
  <outline>
    <contour>
      <point x="298" y="763" type="line"/>
      <point x="121" y="560"/>
      <point x="42" y="464"/>
      <point x="42" y="326" type="curve" smooth="yes"/>
      <point x="42" y="188"/>
      <point x="121" y="92"/>
      <point x="298" y="-111" type="curve"/>
      <point x="319" y="-98" type="line"/>
      <point x="216" y="94"/>
      <point x="197" y="204"/>
      <point x="197" y="326" type="curve" smooth="yes"/>
      <point x="197" y="451"/>
      <point x="214" y="553"/>
      <point x="319" y="750" type="curve"/>
    </contour>
  </outline>
</glyph>
<glyph name="asterisk" format="1">
  <advance width="513"/>
  <unicode hex="002A"/>
  <outline>
    <contour>
      <point x="93" y="422" type="line"/>
      <point x="202" y="467" type="line"/>
      <point x="206" y="465"/>
      <point x="210" y="464"/>
      <point x="215" y="462" type="curve"/>
      <point x="257" y="364" type="line"/>
      <point x="299" y="462" type="line"/>
      <point x="304" y="463"/>
      <point x="308" y="465"/>
      <point x="312" y="467" type="curve"/>
      <point x="421" y="422" type="line"/>
      <point x="382" y="537" type="line"/>
      <point x="384" y="541"/>
      <point x="385" y="545"/>
      <point x="387" y="549" type="curve"/>
      <point x="483" y="593" type="line"/>
      <point x="387" y="636" type="line"/>
      <point x="385" y="640"/>
      <point x="384" y="644"/>
      <point x="382" y="648" type="curve"/>
      <point x="421" y="760" type="line"/>
      <point x="312" y="716" type="line"/>
      <point x="309" y="718"/>
      <point x="305" y="719"/>
      <point x="301" y="721" type="curve"/>
      <point x="257" y="820" type="line"/>
      <point x="213" y="721" type="line"/>
      <point x="210" y="719"/>
      <point x="206" y="718"/>
      <point x="202" y="716" type="curve"/>
      <point x="93" y="760" type="line"/>
      <point x="133" y="645" type="line"/>
      <point x="132" y="643"/>
      <point x="131" y="641"/>
      <point x="130" y="638" type="curve"/>
      <point x="30" y="593" type="line"/>
      <point x="130" y="547" type="line"/>
      <point x="131" y="544"/>
      <point x="132" y="542"/>
      <point x="133" y="539" type="curve"/>
    </contour>
    <contour>
      <point x="257" y="506" type="curve" smooth="yes"/>
      <point x="210" y="506"/>
      <point x="173" y="545"/>
      <point x="173" y="592" type="curve" smooth="yes"/>
      <point x="173" y="640"/>
      <point x="210" y="677"/>
      <point x="257" y="677" type="curve" smooth="yes"/>
      <point x="305" y="677"/>
      <point x="344" y="640"/>
      <point x="344" y="592" type="curve" smooth="yes"/>
      <point x="344" y="545"/>
      <point x="305" y="506"/>
    </contour>
  </outline>
</glyph>
<glyph name="comma" format="1">
  <advance width="275"/>
  <unicode hex="002C"/>
  <outline>
    <contour>
      <point x="250" y="-14" type="curve" smooth="yes"/>
      <point x="250" y="78"/>
      <point x="177" y="145"/>
      <point x="119" y="174" type="curve"/>
      <point x="35" y="26" type="line"/>
      <point x="186" y="-67" type="line"/>
      <point x="140" y="-117"/>
      <point x="81" y="-152"/>
      <point x="-9" y="-199" type="curve"/>
      <point x="21" y="-293" type="line"/>
      <point x="199" y="-204"/>
      <point x="250" y="-113"/>
    </contour>
  </outline>
</glyph>
<glyph name="hyphen" format="1">
  <advance width="342"/>
  <unicode hex="002D"/>
  <outline>
    <contour>
      <point x="14" y="142" type="line"/>
      <point x="318" y="172" type="line"/>
      <point x="328" y="235" type="line"/>
      <point x="127" y="215" type="line"/>
      <point x="317" y="287" type="line"/>
      <point x="318" y="287" type="line"/>
      <point x="328" y="350" type="line"/>
      <point x="127" y="330" type="line"/>
      <point x="317" y="402" type="line"/>
      <point x="318" y="402" type="line"/>
      <point x="328" y="465" type="line"/>
      <point x="24" y="435" type="line"/>
      <point x="14" y="372" type="line"/>
      <point x="253" y="396" type="line"/>
      <point x="56" y="323" type="line"/>
      <point x="24" y="320" type="line"/>
      <point x="14" y="257" type="line"/>
      <point x="253" y="281" type="line"/>
      <point x="56" y="208" type="line"/>
      <point x="24" y="205" type="line"/>
    </contour>
  </outline>
</glyph>
<glyph name="period" format="1">
  <advance width="282"/>
  <unicode hex="002E"/>
  <outline>
    <contour>
      <point x="25" y="99" type="line"/>
      <point x="141" y="-18" type="line"/>
      <point x="257" y="99" type="line"/>
      <point x="141" y="214" type="line"/>
    </contour>
  </outline>
</glyph>
<glyph name="zero" format="1">
  <advance width="665"/>
  <unicode hex="0030"/>
  <outline>
    <contour>
      <point x="33" y="350" type="curve" smooth="yes"/>
      <point x="33" y="130"/>
      <point x="229" y="9"/>
      <point x="436" y="-17" type="curve"/>
      <point x="464" y="93" type="line"/>
      <point x="580" y="177"/>
      <point x="630" y="292"/>
      <point x="630" y="402" type="curve" smooth="yes"/>
      <point x="630" y="531"/>
      <point x="561" y="717"/>
      <point x="254" y="765" type="curve"/>
      <point x="210" y="649" type="line"/>
      <point x="94" y="566"/>
      <point x="33" y="459"/>
    </contour>
    <contour>
      <point x="101" y="389" type="curve" smooth="yes"/>
      <point x="101" y="484"/>
      <point x="144" y="557"/>
      <point x="242" y="617" type="curve"/>
      <point x="491" y="569"/>
      <point x="559" y="444"/>
      <point x="559" y="354" type="curve" smooth="yes"/>
      <point x="559" y="277"/>
      <point x="527" y="194"/>
      <point x="443" y="135" type="curve"/>
      <point x="273" y="162"/>
      <point x="101" y="226"/>
    </contour>
    <contour>
      <point x="216" y="375" type="line"/>
      <point x="332" y="258" type="line"/>
      <point x="448" y="375" type="line"/>
      <point x="332" y="490" type="line"/>
    </contour>
  </outline>
</glyph>
<glyph name="one" format="1">
  <advance width="405"/>
  <unicode hex="0031"/>
  <outline>
    <contour>
      <point x="167" y="0" type="line"/>
      <point x="339" y="0" type="line"/>
      <point x="327" y="383" type="line"/>
      <point x="341" y="658" type="line"/>
      <point x="341" y="757" type="line"/>
      <point x="268" y="757" type="line"/>
      <point x="265" y="754" type="line"/>
      <point x="177" y="674"/>
      <point x="94" y="626"/>
      <point x="-10" y="586" type="curve"/>
      <point x="8" y="509" type="line"/>
      <point x="70" y="534"/>
      <point x="124" y="567"/>
      <point x="177" y="609" type="curve"/>
      <point x="186" y="383" type="line"/>
    </contour>
  </outline>
</glyph>
<glyph name="two" format="1">
  <advance width="639"/>
  <unicode hex="0032"/>
  <outline>
    <contour>
      <point x="66" y="0" type="line"/>
      <point x="597" y="0" type="line"/>
      <point x="597" y="147" type="line"/>
      <point x="334" y="147" type="line"/>
      <point x="144" y="127" type="line"/>
      <point x="220" y="172" type="line" smooth="yes"/>
      <point x="474" y="324"/>
      <point x="568" y="414"/>
      <point x="568" y="549" type="curve" smooth="yes"/>
      <point x="568" y="662"/>
      <point x="463" y="763"/>
      <point x="311" y="763" type="curve" smooth="yes"/>
      <point x="158" y="763"/>
      <point x="39" y="664"/>
      <point x="39" y="526" type="curve" smooth="yes"/>
      <point x="39" y="388"/>
      <point x="135" y="308"/>
      <point x="284" y="280" type="curve"/>
      <point x="254" y="253"/>
      <point x="218" y="223"/>
      <point x="175" y="191" type="curve" smooth="yes"/>
      <point x="45" y="93" type="line"/>
    </contour>
    <contour>
      <point x="94" y="518" type="curve" smooth="yes"/>
      <point x="94" y="603"/>
      <point x="161" y="672"/>
      <point x="245" y="672" type="curve" smooth="yes"/>
      <point x="343" y="672"/>
      <point x="404" y="609"/>
      <point x="404" y="514" type="curve" smooth="yes"/>
      <point x="404" y="440"/>
      <point x="379" y="382"/>
      <point x="323" y="320" type="curve"/>
      <point x="175" y="346"/>
      <point x="94" y="401"/>
    </contour>
  </outline>
</glyph>
<glyph name="three" format="1">
  <advance width="561"/>
  <unicode hex="0033"/>
  <outline>
    <contour>
      <point x="81" y="-11" type="line"/>
      <point x="409" y="18"/>
      <point x="526" y="78"/>
      <point x="526" y="220" type="curve" smooth="yes"/>
      <point x="526" y="313"/>
      <point x="451" y="414"/>
      <point x="229" y="415" type="curve"/>
      <point x="512" y="654" type="line"/>
      <point x="512" y="750" type="line"/>
      <point x="58" y="750" type="line"/>
      <point x="58" y="612" type="line"/>
      <point x="289" y="612" type="line"/>
      <point x="407" y="618" type="line"/>
      <point x="158" y="409" type="line"/>
      <point x="160" y="376" type="line"/>
      <point x="217" y="376" type="line"/>
      <point x="401" y="376"/>
      <point x="451" y="315"/>
      <point x="451" y="271" type="curve" smooth="yes"/>
      <point x="451" y="205"/>
      <point x="381" y="166"/>
      <point x="43" y="152" type="curve"/>
    </contour>
  </outline>
</glyph>
<glyph name="four" format="1">
  <advance width="584"/>
  <unicode hex="0034"/>
  <outline>
    <contour>
      <point x="49" y="190" type="line"/>
      <point x="334" y="190" type="line"/>
      <point x="282" y="0" type="line"/>
      <point x="474" y="0" type="line"/>
      <point x="426" y="190" type="line"/>
      <point x="576" y="190" type="line"/>
      <point x="576" y="278" type="line"/>
      <point x="429" y="263" type="line"/>
      <point x="476" y="467" type="line"/>
      <point x="286" y="467" type="line"/>
      <point x="333" y="253" type="line"/>
      <point x="70" y="226" type="line"/>
      <point x="399" y="750" type="line"/>
      <point x="204" y="750" type="line"/>
      <point x="18" y="227" type="line"/>
      <point x="48" y="190" type="line"/>
      <point x="49" y="192" type="line"/>
    </contour>
  </outline>
</glyph>
<glyph name="five" format="1">
  <advance width="551"/>
  <unicode hex="0035"/>
  <outline>
    <contour>
      <point x="93" y="-30" type="line"/>
      <point x="413" y="19"/>
      <point x="523" y="112"/>
      <point x="523" y="269" type="curve" smooth="yes"/>
      <point x="523" y="402"/>
      <point x="440" y="465"/>
      <point x="318" y="465" type="curve" smooth="yes"/>
      <point x="252" y="465"/>
      <point x="195" y="447"/>
      <point x="142" y="417" type="curve"/>
      <point x="94" y="602" type="line"/>
      <point x="490" y="602" type="line"/>
      <point x="490" y="750" type="line"/>
      <point x="64" y="750" type="line"/>
      <point x="64" y="338" type="line"/>
      <point x="99" y="338" type="line"/>
      <point x="168" y="388"/>
      <point x="243" y="422"/>
      <point x="318" y="422" type="curve" smooth="yes"/>
      <point x="421" y="422"/>
      <point x="469" y="378"/>
      <point x="469" y="314" type="curve" smooth="yes"/>
      <point x="469" y="242"/>
      <point x="402" y="181"/>
      <point x="55" y="125" type="curve"/>
    </contour>
  </outline>
</glyph>
<glyph name="six" format="1">
  <advance width="620"/>
  <unicode hex="0036"/>
  <outline>
    <contour>
      <point x="589" y="233" type="curve" smooth="yes"/>
      <point x="589" y="370"/>
      <point x="505" y="443"/>
      <point x="399" y="443" type="curve" smooth="yes"/>
      <point x="321" y="443"/>
      <point x="241" y="398"/>
      <point x="186" y="295" type="curve"/>
      <point x="167" y="409"/>
      <point x="222" y="525"/>
      <point x="527" y="614" type="curve"/>
      <point x="483" y="763" type="line"/>
      <point x="130" y="650"/>
      <point x="40" y="462"/>
      <point x="40" y="292" type="curve" smooth="yes"/>
      <point x="40" y="122"/>
      <point x="154" y="-13"/>
      <point x="344" y="-13" type="curve" smooth="yes"/>
      <point x="481" y="-13"/>
      <point x="589" y="82"/>
    </contour>
    <contour>
      <point x="381" y="316" type="curve" smooth="yes"/>
      <point x="483" y="316"/>
      <point x="545" y="283"/>
      <point x="545" y="220" type="curve" smooth="yes"/>
      <point x="545" y="149"/>
      <point x="469" y="101"/>
      <point x="369" y="101" type="curve" smooth="yes"/>
      <point x="249" y="101"/>
      <point x="171" y="169"/>
      <point x="167" y="249" type="curve"/>
      <point x="238" y="297"/>
      <point x="302" y="316"/>
    </contour>
  </outline>
</glyph>
<glyph name="seven" format="1">
  <advance width="543"/>
  <unicode hex="0037"/>
  <outline>
    <contour>
      <point x="288" y="-5" type="line"/>
      <point x="520" y="696" type="line"/>
      <point x="520" y="748" type="line"/>
      <point x="29" y="748" type="line"/>
      <point x="29" y="601" type="line"/>
      <point x="258" y="601" type="line" smooth="yes"/>
      <point x="327" y="601"/>
      <point x="395" y="625"/>
      <point x="451" y="654" type="curve"/>
      <point x="90" y="0" type="line"/>
    </contour>
  </outline>
</glyph>
<glyph name="eight" format="1">
  <advance width="629"/>
  <unicode hex="0038"/>
  <outline>
    <contour>
      <point x="317" y="-21" type="curve"/>
      <point x="517" y="80"/>
      <point x="599" y="171"/>
      <point x="599" y="258" type="curve" smooth="yes"/>
      <point x="599" y="330"/>
      <point x="539" y="378"/>
      <point x="430" y="394" type="curve"/>
      <point x="508" y="419"/>
      <point x="568" y="472"/>
      <point x="568" y="544" type="curve" smooth="yes"/>
      <point x="568" y="631"/>
      <point x="494" y="705"/>
      <point x="310" y="769" type="curve"/>
      <point x="114" y="662"/>
      <point x="61" y="603"/>
      <point x="61" y="519" type="curve" smooth="yes"/>
      <point x="61" y="451"/>
      <point x="113" y="404"/>
      <point x="215" y="385" type="curve"/>
      <point x="98" y="356"/>
      <point x="30" y="284"/>
      <point x="30" y="209" type="curve" smooth="yes"/>
      <point x="30" y="116"/>
      <point x="118" y="40"/>
    </contour>
    <contour>
      <point x="162" y="540" type="curve" smooth="yes"/>
      <point x="162" y="577"/>
      <point x="178" y="618"/>
      <point x="213" y="656" type="curve"/>
      <point x="428" y="608"/>
      <point x="463" y="559"/>
      <point x="463" y="506" type="curve" smooth="yes"/>
      <point x="463" y="453"/>
      <point x="419" y="410"/>
      <point x="332" y="403" type="curve"/>
      <point x="231" y="411"/>
      <point x="162" y="464"/>
    </contour>
    <contour>
      <point x="166" y="255" type="curve" smooth="yes"/>
      <point x="166" y="312"/>
      <point x="211" y="366"/>
      <point x="319" y="374" type="curve"/>
      <point x="415" y="364"/>
      <point x="494" y="311"/>
      <point x="494" y="230" type="curve" smooth="yes"/>
      <point x="494" y="186"/>
      <point x="476" y="141"/>
      <point x="436" y="103" type="curve"/>
      <point x="221" y="147"/>
      <point x="166" y="193"/>
    </contour>
  </outline>
</glyph>
<glyph name="less" format="1">
  <advance width="550"/>
  <unicode hex="003C"/>
  <outline>
    <contour>
      <point x="28" y="365" type="line"/>
      <point x="28" y="300" type="line"/>
      <point x="517" y="85" type="line"/>
      <point x="517" y="155" type="line"/>
      <point x="93" y="333" type="line"/>
      <point x="517" y="510" type="line"/>
      <point x="517" y="580" type="line"/>
    </contour>
  </outline>
</glyph>
<glyph name="equal" format="1">
  <advance width="550"/>
  <unicode hex="003D"/>
  <outline>
    <contour>
      <point x="28" y="480" type="line"/>
      <point x="28" y="425" type="line"/>
      <point x="522" y="425" type="line"/>
      <point x="522" y="480" type="line"/>
    </contour>
    <contour>
      <point x="28" y="240" type="line"/>
      <point x="28" y="185" type="line"/>
      <point x="522" y="185" type="line"/>
      <point x="522" y="240" type="line"/>
    </contour>
  </outline>
</glyph>
<glyph name="greater" format="1">
  <advance width="550"/>
  <unicode hex="003E"/>
  <outline>
    <contour>
      <point x="522" y="365" type="line"/>
      <point x="33" y="580" type="line"/>
      <point x="33" y="510" type="line"/>
      <point x="457" y="333" type="line"/>
      <point x="33" y="155" type="line"/>
      <point x="33" y="85" type="line"/>
      <point x="522" y="300" type="line"/>
    </contour>
  </outline>
</glyph>
<glyph name="question" format="1">
  <advance width="583"/>
  <unicode hex="003F"/>
  <outline>
    <contour>
      <point x="160" y="196" type="line"/>
      <point x="292" y="280" type="line" smooth="yes"/>
      <point x="475" y="396"/>
      <point x="521" y="468"/>
      <point x="521" y="574" type="curve" smooth="yes"/>
      <point x="521" y="676"/>
      <point x="429" y="763"/>
      <point x="289" y="763" type="curve" smooth="yes"/>
      <point x="158" y="763"/>
      <point x="59" y="675"/>
      <point x="59" y="549" type="curve" smooth="yes"/>
      <point x="59" y="450"/>
      <point x="133" y="360"/>
      <point x="268" y="325" type="curve"/>
      <point x="261" y="320"/>
      <point x="253" y="314"/>
      <point x="245" y="309" type="curve" smooth="yes"/>
      <point x="134" y="238" type="line"/>
    </contour>
    <contour>
      <point x="105" y="545" type="curve" smooth="yes"/>
      <point x="105" y="635"/>
      <point x="155" y="679"/>
      <point x="221" y="679" type="curve" smooth="yes"/>
      <point x="305" y="679"/>
      <point x="368" y="604"/>
      <point x="368" y="507" type="curve" smooth="yes"/>
      <point x="368" y="450"/>
      <point x="350" y="402"/>
      <point x="308" y="359" type="curve"/>
      <point x="167" y="389"/>
      <point x="105" y="468"/>
    </contour>
    <contour>
      <point x="162" y="99" type="line"/>
      <point x="278" y="-18" type="line"/>
      <point x="394" y="99" type="line"/>
      <point x="278" y="214" type="line"/>
    </contour>
  </outline>
</glyph>
<glyph name="at" format="1">
  <advance width="907"/>
  <unicode hex="0040"/>
  <outline>
    <contour>
      <point x="764" y="-85" type="curve"/>
      <point x="743" y="-45" type="line"/>
      <point x="658" y="-94"/>
      <point x="566" y="-118"/>
      <point x="465" y="-118" type="curve" smooth="yes"/>
      <point x="232" y="-118"/>
      <point x="90" y="14"/>
      <point x="90" y="261" type="curve" smooth="yes"/>
      <point x="90" y="481"/>
      <point x="223" y="647"/>
      <point x="472" y="647" type="curve" smooth="yes"/>
      <point x="661" y="647"/>
      <point x="821" y="546"/>
      <point x="821" y="317" type="curve" smooth="yes"/>
      <point x="821" y="146"/>
      <point x="745" y="48"/>
      <point x="628" y="27" type="curve"/>
      <point x="625" y="141" type="line"/>
      <point x="632" y="192"/>
      <point x="642" y="276"/>
      <point x="649" y="346" type="curve" smooth="yes"/>
      <point x="656" y="415"/>
      <point x="657" y="482"/>
      <point x="656" y="534" type="curve"/>
      <point x="637" y="537"/>
      <point x="609" y="539"/>
      <point x="577" y="539" type="curve" smooth="yes"/>
      <point x="491" y="539"/>
      <point x="348" y="520"/>
      <point x="258" y="492" type="curve"/>
      <point x="261" y="390"/>
      <point x="279" y="294"/>
      <point x="324" y="217" type="curve"/>
      <point x="295" y="198"/>
      <point x="258" y="179"/>
      <point x="217" y="153" type="curve"/>
      <point x="202" y="65"/>
      <point x="247" y="-22"/>
      <point x="339" y="-22" type="curve" smooth="yes"/>
      <point x="398" y="-22"/>
      <point x="449" y="4"/>
      <point x="480" y="74" type="curve"/>
      <point x="476" y="36" type="line"/>
      <point x="473" y="7" type="line"/>
      <point x="473" y="4" type="line"/>
      <point x="472" y="-7" type="line"/>
      <point x="489" y="-13"/>
      <point x="532" y="-22"/>
      <point x="575" y="-22" type="curve" smooth="yes"/>
      <point x="767" y="-22"/>
      <point x="871" y="127"/>
      <point x="871" y="317" type="curve" smooth="yes"/>
      <point x="871" y="576"/>
      <point x="687" y="692"/>
      <point x="476" y="692" type="curve" smooth="yes"/>
      <point x="212" y="692"/>
      <point x="40" y="513"/>
      <point x="40" y="261" type="curve" smooth="yes"/>
      <point x="40" y="10"/>
      <point x="189" y="-163"/>
      <point x="463" y="-163" type="curve" smooth="yes"/>
      <point x="557" y="-163"/>
      <point x="658" y="-139"/>
    </contour>
    <contour>
      <point x="430" y="262" type="curve"/>
      <point x="429" y="264" type="line"/>
      <point x="355" y="325"/>
      <point x="314" y="367"/>
      <point x="294" y="414" type="curve"/>
      <point x="382" y="454"/>
      <point x="468" y="480"/>
      <point x="529" y="491" type="curve"/>
      <point x="514" y="343" type="line" smooth="yes"/>
      <point x="497" y="173"/>
      <point x="471" y="58"/>
      <point x="423" y="58" type="curve" smooth="yes"/>
      <point x="384" y="58"/>
      <point x="349" y="108"/>
      <point x="347" y="192" type="curve"/>
      <point x="380" y="217"/>
      <point x="402" y="236"/>
    </contour>
  </outline>
</glyph>
<glyph name="A" format="1">
  <advance width="690"/>
  <unicode hex="0041"/>
  <outline>
    <contour>
      <point x="297" y="-15" type="curve"/>
      <point x="452" y="166" type="line"/>
      <point x="503" y="-9" type="line"/>
      <point x="680" y="2" type="line"/>
      <point x="421" y="766" type="line"/>
      <point x="327" y="730" type="line"/>
      <point x="294" y="750"/>
      <point x="254" y="762"/>
      <point x="213" y="762" type="curve" smooth="yes"/>
      <point x="91" y="762"/>
      <point x="10" y="687"/>
      <point x="10" y="573" type="curve" smooth="yes"/>
      <point x="10" y="462"/>
      <point x="107" y="371"/>
      <point x="245" y="346" type="curve"/>
      <point x="197" y="292"/>
      <point x="134" y="241"/>
      <point x="64" y="198" type="curve"/>
      <point x="83" y="109"/>
      <point x="181" y="12"/>
    </contour>
    <contour>
      <point x="52" y="568" type="curve" smooth="yes"/>
      <point x="52" y="648"/>
      <point x="116" y="703"/>
      <point x="189" y="703" type="curve" smooth="yes"/>
      <point x="277" y="703"/>
      <point x="339" y="639"/>
      <point x="339" y="538" type="curve" smooth="yes"/>
      <point x="339" y="485"/>
      <point x="312" y="427"/>
      <point x="266" y="371" type="curve"/>
      <point x="131" y="394"/>
      <point x="52" y="474"/>
    </contour>
    <contour>
      <point x="377" y="426" type="curve"/>
      <point x="418" y="285" type="line"/>
      <point x="235" y="278" type="line"/>
      <point x="295" y="313"/>
      <point x="345" y="364"/>
    </contour>
    <contour>
      <point x="185" y="243" type="curve"/>
      <point x="430" y="243" type="line"/>
      <point x="442" y="202" type="line"/>
      <point x="365" y="112" type="line"/>
      <point x="272" y="152"/>
      <point x="223" y="190"/>
    </contour>
  </outline>
</glyph>
<glyph name="B" format="1">
  <advance width="652"/>
  <unicode hex="0042"/>
  <outline>
    <contour>
      <point x="632" y="250" type="curve" smooth="yes"/>
      <point x="632" y="313"/>
      <point x="595" y="370"/>
      <point x="505" y="405" type="curve"/>
      <point x="556" y="435"/>
      <point x="582" y="481"/>
      <point x="582" y="530" type="curve" smooth="yes"/>
      <point x="582" y="645"/>
      <point x="464" y="763"/>
      <point x="132" y="763" type="curve" smooth="yes"/>
      <point x="88" y="763"/>
      <point x="40" y="760"/>
      <point x="-4" y="757" type="curve"/>
      <point x="136" y="627" type="line"/>
      <point x="146" y="378" type="line"/>
      <point x="133" y="131" type="line"/>
      <point x="-5" y="-5" type="line"/>
      <point x="509" y="-5"/>
      <point x="632" y="101"/>
    </contour>
    <contour>
      <point x="501" y="489" type="curve" smooth="yes"/>
      <point x="501" y="461"/>
      <point x="487" y="436"/>
      <point x="457" y="420" type="curve"/>
      <point x="412" y="432"/>
      <point x="356" y="439"/>
      <point x="290" y="441" type="curve"/>
      <point x="300" y="627" type="line"/>
      <point x="464" y="613"/>
      <point x="501" y="540"/>
    </contour>
    <contour>
      <point x="583" y="235" type="curve" smooth="yes"/>
      <point x="583" y="185"/>
      <point x="527" y="150"/>
      <point x="295" y="140" type="curve"/>
      <point x="288" y="353" type="line"/>
      <point x="506" y="344"/>
      <point x="583" y="295"/>
    </contour>
  </outline>
</glyph>
<glyph name="C" format="1">
  <advance width="549"/>
  <unicode hex="0043"/>
  <outline>
    <contour>
      <point x="428" y="280" type="line"/>
      <point x="478" y="294" type="line"/>
      <point x="478" y="763" type="line"/>
      <point x="210" y="772"/>
      <point x="19" y="612"/>
      <point x="19" y="401" type="curve" smooth="yes"/>
      <point x="19" y="170"/>
      <point x="212" y="4"/>
      <point x="488" y="-10" type="curve"/>
      <point x="516" y="172" type="line"/>
      <point x="258" y="195"/>
      <point x="69" y="278"/>
      <point x="69" y="427" type="curve" smooth="yes"/>
      <point x="69" y="547"/>
      <point x="156" y="593"/>
      <point x="305" y="593" type="curve" smooth="yes"/>
      <point x="341" y="593"/>
      <point x="389" y="588"/>
      <point x="428" y="580" type="curve"/>
    </contour>
  </outline>
</glyph>
<glyph name="D" format="1">
  <advance width="672"/>
  <unicode hex="0044"/>
  <outline>
    <contour>
      <point x="207" y="9" type="line" smooth="yes"/>
      <point x="528" y="44"/>
      <point x="655" y="186"/>
      <point x="655" y="354" type="curve" smooth="yes"/>
      <point x="655" y="597"/>
      <point x="390" y="764"/>
      <point x="-6" y="764" type="curve"/>
      <point x="128" y="592" type="line"/>
      <point x="150" y="376" type="line"/>
      <point x="136" y="161" type="line"/>
      <point x="3" y="-13" type="line"/>
    </contour>
    <contour>
      <point x="275" y="376" type="line"/>
      <point x="289" y="574" type="line"/>
      <point x="482" y="533"/>
      <point x="605" y="434"/>
      <point x="605" y="326" type="curve" smooth="yes"/>
      <point x="605" y="249"/>
      <point x="530" y="180"/>
      <point x="287" y="167" type="curve"/>
    </contour>
  </outline>
</glyph>
<glyph name="E" format="1">
  <advance width="575"/>
  <unicode hex="0045"/>
  <outline>
    <contour>
      <point x="-5" y="55" type="line"/>
      <point x="135" y="16"/>
      <point x="286" y="-7"/>
      <point x="489" y="-10" type="curve"/>
      <point x="546" y="125" type="line"/>
      <point x="296" y="106" type="line"/>
      <point x="273" y="288" type="line"/>
      <point x="322" y="275"/>
      <point x="403" y="261"/>
      <point x="440" y="258" type="curve"/>
      <point x="495" y="386" type="line"/>
      <point x="331" y="386" type="line"/>
      <point x="272" y="316" type="line"/>
      <point x="289" y="621" type="line"/>
      <point x="506" y="584" type="line"/>
      <point x="580" y="716" type="line"/>
      <point x="11" y="760" type="line"/>
      <point x="133" y="623" type="line"/>
      <point x="146" y="315" type="line"/>
      <point x="130" y="145" type="line"/>
      <point x="130" y="135" type="line"/>
    </contour>
  </outline>
</glyph>
<glyph name="F" format="1">
  <advance width="579"/>
  <unicode hex="0046"/>
  <outline>
    <contour>
      <point x="285" y="0" type="line"/>
      <point x="267" y="272" type="line"/>
      <point x="425" y="258" type="line"/>
      <point x="525" y="382" type="line"/>
      <point x="521" y="386" type="line"/>
      <point x="394" y="386" type="line"/>
      <point x="599" y="705" type="line"/>
      <point x="-5" y="760" type="line"/>
      <point x="123" y="619" type="line"/>
      <point x="135" y="368" type="line"/>
      <point x="113" y="-4" type="line"/>
    </contour>
    <contour>
      <point x="261" y="386" type="line"/>
      <point x="276" y="612" type="line"/>
      <point x="468" y="572" type="line"/>
      <point x="350" y="386" type="line"/>
    </contour>
  </outline>
</glyph>
<glyph name="G" format="1">
  <advance width="677"/>
  <unicode hex="0047"/>
  <outline>
    <contour>
      <point x="662" y="336" type="curve" smooth="yes"/>
      <point x="662" y="447"/>
      <point x="588" y="508"/>
      <point x="501" y="508" type="curve" smooth="yes"/>
      <point x="498" y="508" type="line"/>
      <point x="498" y="763" type="line"/>
      <point x="477" y="763" type="line" smooth="yes"/>
      <point x="209" y="763"/>
      <point x="19" y="592"/>
      <point x="19" y="415" type="curve" smooth="yes"/>
      <point x="19" y="154"/>
      <point x="238" y="5"/>
      <point x="496" y="-10" type="curve"/>
      <point x="610" y="135"/>
      <point x="662" y="237"/>
    </contour>
    <contour>
      <point x="302" y="316" type="line"/>
      <point x="337" y="351"/>
      <point x="382" y="374"/>
      <point x="444" y="374" type="curve" smooth="yes"/>
      <point x="520" y="374"/>
      <point x="579" y="332"/>
      <point x="579" y="259" type="curve" smooth="yes"/>
      <point x="579" y="224"/>
      <point x="569" y="191"/>
      <point x="555" y="159" type="curve"/>
      <point x="273" y="193"/>
      <point x="70" y="278"/>
      <point x="70" y="423" type="curve" smooth="yes"/>
      <point x="70" y="540"/>
      <point x="167" y="593"/>
      <point x="325" y="593" type="curve" smooth="yes"/>
      <point x="361" y="593"/>
      <point x="409" y="588"/>
      <point x="448" y="580" type="curve"/>
      <point x="448" y="500" type="line"/>
      <point x="386" y="480"/>
      <point x="336" y="423"/>
      <point x="289" y="326" type="curve"/>
    </contour>
  </outline>
</glyph>
<glyph name="H" format="1">
  <advance width="704"/>
  <unicode hex="0048"/>
  <outline>
    <contour>
      <point x="55" y="0" type="line"/>
      <point x="227" y="0" type="line"/>
      <point x="217" y="301" type="line"/>
      <point x="490" y="301" type="line"/>
      <point x="475" y="0" type="line"/>
      <point x="647" y="0" type="line"/>
      <point x="635" y="378" type="line"/>
      <point x="649" y="651" type="line"/>
      <point x="649" y="750" type="line"/>
      <point x="479" y="750" type="line"/>
      <point x="490" y="465" type="line"/>
      <point x="219" y="465" type="line"/>
      <point x="229" y="651" type="line"/>
      <point x="229" y="750" type="line"/>
      <point x="59" y="750" type="line"/>
      <point x="74" y="378" type="line"/>
    </contour>
    <contour>
      <point x="215" y="378" type="line"/>
      <point x="217" y="411" type="line"/>
      <point x="493" y="411" type="line"/>
      <point x="494" y="378" type="line"/>
      <point x="493" y="355" type="line"/>
      <point x="216" y="355" type="line"/>
    </contour>
  </outline>
</glyph>
<glyph name="I" format="1">
  <advance width="292"/>
  <unicode hex="0049"/>
  <outline>
    <contour>
      <point x="64" y="0" type="line"/>
      <point x="231" y="0" type="line"/>
      <point x="219" y="378" type="line"/>
      <point x="233" y="651" type="line"/>
      <point x="233" y="751" type="line"/>
      <point x="9" y="758" type="line"/>
      <point x="74" y="605" type="line"/>
      <point x="83" y="378" type="line"/>
    </contour>
  </outline>
</glyph>
<glyph name="J" format="1">
  <advance width="488"/>
  <unicode hex="004A"/>
  <outline>
    <contour>
      <point x="75" y="574" type="line"/>
      <point x="265" y="674" type="line"/>
      <point x="277" y="406" type="line"/>
      <point x="266" y="217" type="line"/>
      <point x="306" y="59" type="line"/>
      <point x="236" y="94"/>
      <point x="185" y="130"/>
      <point x="113" y="206" type="curve"/>
      <point x="27" y="97" type="line"/>
      <point x="71" y="31"/>
      <point x="135" y="-13"/>
      <point x="231" y="-13" type="curve" smooth="yes"/>
      <point x="328" y="-13"/>
      <point x="388" y="36"/>
      <point x="424" y="151" type="curve"/>
      <point x="401" y="378" type="line"/>
      <point x="433" y="750" type="line"/>
      <point x="95" y="750" type="line"/>
    </contour>
  </outline>
</glyph>
<glyph name="K" format="1">
  <advance width="650"/>
  <unicode hex="004B"/>
  <outline>
    <contour>
      <point x="55" y="0" type="line"/>
      <point x="233" y="0" type="line"/>
      <point x="221" y="278" type="line"/>
      <point x="223" y="344" type="line"/>
      <point x="331" y="353" type="line"/>
      <point x="445" y="0" type="line"/>
      <point x="633" y="0" type="line"/>
      <point x="475" y="388" type="line"/>
      <point x="547" y="434"/>
      <point x="577" y="476"/>
      <point x="577" y="526" type="curve" smooth="yes"/>
      <point x="577" y="591"/>
      <point x="511" y="643"/>
      <point x="511" y="686" type="curve" smooth="yes"/>
      <point x="511" y="702"/>
      <point x="517" y="718"/>
      <point x="560" y="731" type="curve"/>
      <point x="549" y="763" type="line"/>
      <point x="419" y="748"/>
      <point x="363" y="716"/>
      <point x="363" y="650" type="curve" smooth="yes"/>
      <point x="363" y="570"/>
      <point x="456" y="526"/>
      <point x="456" y="462" type="curve" smooth="yes"/>
      <point x="456" y="426"/>
      <point x="419" y="407"/>
      <point x="359" y="407" type="curve" smooth="yes"/>
      <point x="226" y="407" type="line"/>
      <point x="235" y="651" type="line"/>
      <point x="235" y="750" type="line"/>
      <point x="59" y="750" type="line"/>
      <point x="74" y="278" type="line"/>
    </contour>
  </outline>
</glyph>
<glyph name="L" format="1">
  <advance width="554"/>
  <unicode hex="004C"/>
  <outline>
    <contour>
      <point x="6" y="72" type="line"/>
      <point x="172" y="9"/>
      <point x="314" y="-6"/>
      <point x="518" y="-11" type="curve"/>
      <point x="518" y="-8" type="line"/>
      <point x="519" y="-8" type="line"/>
      <point x="519" y="287" type="line"/>
      <point x="469" y="267" type="line"/>
      <point x="469" y="143" type="line"/>
      <point x="386" y="137"/>
      <point x="328" y="136"/>
      <point x="281" y="139" type="curve"/>
      <point x="259" y="368" type="line"/>
      <point x="287" y="743" type="line"/>
      <point x="58" y="750" type="line"/>
      <point x="125" y="591" type="line"/>
      <point x="136" y="368" type="line"/>
      <point x="120" y="151" type="line"/>
    </contour>
  </outline>
</glyph>
<glyph name="M" format="1">
  <advance width="817"/>
  <unicode hex="004D"/>
  <outline>
    <contour>
      <point x="58" y="0" type="line"/>
      <point x="230" y="0" type="line"/>
      <point x="121" y="522" type="line"/>
      <point x="347" y="324" type="line"/>
      <point x="330" y="0" type="line"/>
      <point x="487" y="0" type="line"/>
      <point x="468" y="325" type="line"/>
      <point x="686" y="520" type="line"/>
      <point x="586" y="0" type="line"/>
      <point x="758" y="0" type="line"/>
      <point x="743" y="398" type="line"/>
      <point x="772" y="760" type="line"/>
      <point x="751" y="763" type="line"/>
      <point x="408" y="462" type="line"/>
      <point x="65" y="763" type="line"/>
      <point x="44" y="760" type="line"/>
      <point x="73" y="398" type="line"/>
    </contour>
  </outline>
</glyph>
<glyph name="N" format="1">
  <advance width="663"/>
  <unicode hex="004E"/>
  <outline>
    <contour>
      <point x="50" y="0" type="line"/>
      <point x="217" y="0" type="line"/>
      <point x="125" y="506" type="line"/>
      <point x="565" y="0" type="line"/>
      <point x="589" y="0" type="line"/>
      <point x="613" y="763" type="line"/>
      <point x="457" y="756" type="line"/>
      <point x="541" y="244" type="line"/>
      <point x="87" y="763" type="line"/>
      <point x="56" y="760" type="line"/>
      <point x="75" y="352" type="line"/>
    </contour>
  </outline>
</glyph>
<glyph name="O" format="1">
  <advance width="705"/>
  <unicode hex="004F"/>
  <outline>
    <contour>
      <point x="20" y="298" type="curve" smooth="yes"/>
      <point x="20" y="96"/>
      <point x="273" y="13"/>
      <point x="470" y="-14" type="curve"/>
      <point x="515" y="129" type="line"/>
      <point x="628" y="210"/>
      <point x="680" y="315"/>
      <point x="680" y="417" type="curve" smooth="yes"/>
      <point x="680" y="540"/>
      <point x="612" y="717"/>
      <point x="309" y="763" type="curve"/>
      <point x="242" y="685"/>
      <point x="199" y="597"/>
      <point x="181" y="508" type="curve"/>
      <point x="146" y="508" type="line"/>
      <point x="58" y="451"/>
      <point x="20" y="377"/>
    </contour>
    <contour>
      <point x="353" y="257" type="line"/>
      <point x="285" y="365"/>
      <point x="253" y="464"/>
      <point x="253" y="555" type="curve" smooth="yes"/>
      <point x="253" y="576"/>
      <point x="255" y="596"/>
      <point x="260" y="616" type="curve"/>
      <point x="486" y="574"/>
      <point x="584" y="484"/>
      <point x="584" y="346" type="curve" smooth="yes"/>
      <point x="584" y="274"/>
      <point x="552" y="208"/>
      <point x="481" y="159" type="curve"/>
      <point x="396" y="172"/>
      <point x="311" y="186"/>
      <point x="242" y="210" type="curve"/>
    </contour>
    <contour>
      <point x="100" y="350" type="curve" smooth="yes"/>
      <point x="100" y="398"/>
      <point x="123" y="439"/>
      <point x="177" y="487" type="curve"/>
      <point x="174" y="463"/>
      <point x="172" y="440"/>
      <point x="172" y="416" type="curve" smooth="yes"/>
      <point x="172" y="350"/>
      <point x="187" y="285"/>
      <point x="213" y="221" type="curve"/>
      <point x="145" y="249"/>
      <point x="100" y="289"/>
    </contour>
  </outline>
</glyph>
<glyph name="P" format="1">
  <advance width="657"/>
  <unicode hex="0050"/>
  <outline>
    <contour>
      <point x="163" y="1" type="line"/>
      <point x="327" y="0" type="line"/>
      <point x="316" y="203" type="line"/>
      <point x="528" y="245"/>
      <point x="638" y="342"/>
      <point x="638" y="494" type="curve" smooth="yes"/>
      <point x="638" y="671"/>
      <point x="423" y="750"/>
      <point x="15" y="764" type="curve"/>
      <point x="152" y="610" type="line"/>
      <point x="180" y="378" type="line"/>
      <point x="177" y="321" type="line"/>
      <point x="6" y="166" type="line"/>
      <point x="171" y="184" type="line"/>
    </contour>
    <contour>
      <point x="306" y="382" type="line"/>
      <point x="316" y="596" type="line"/>
      <point x="463" y="574"/>
      <point x="581" y="523"/>
      <point x="581" y="445" type="curve" smooth="yes"/>
      <point x="581" y="383"/>
      <point x="548" y="342"/>
      <point x="360" y="334" type="curve" smooth="yes"/>
      <point x="309" y="332" type="line"/>
    </contour>
  </outline>
</glyph>
<glyph name="Q" format="1">
  <advance width="736"/>
  <unicode hex="0051"/>
  <outline>
    <contour>
      <point x="20" y="298" type="curve" smooth="yes"/>
      <point x="20" y="42"/>
      <point x="404" y="-56"/>
      <point x="701" y="-97" type="curve"/>
      <point x="739" y="50" type="line"/>
      <point x="655" y="62"/>
      <point x="570" y="75"/>
      <point x="490" y="91" type="curve"/>
      <point x="622" y="169"/>
      <point x="680" y="294"/>
      <point x="680" y="412" type="curve" smooth="yes"/>
      <point x="680" y="537"/>
      <point x="612" y="717"/>
      <point x="309" y="763" type="curve"/>
      <point x="242" y="685"/>
      <point x="200" y="598"/>
      <point x="182" y="508" type="curve"/>
      <point x="146" y="508" type="line"/>
      <point x="58" y="451"/>
      <point x="20" y="377"/>
    </contour>
    <contour>
      <point x="100" y="350" type="curve" smooth="yes"/>
      <point x="100" y="398"/>
      <point x="123" y="440"/>
      <point x="178" y="487" type="curve"/>
      <point x="174" y="462"/>
      <point x="172" y="437"/>
      <point x="172" y="411" type="curve" smooth="yes"/>
      <point x="172" y="338"/>
      <point x="190" y="266"/>
      <point x="222" y="196" type="curve"/>
      <point x="353" y="252" type="line"/>
      <point x="285" y="360"/>
      <point x="253" y="459"/>
      <point x="253" y="550" type="curve" smooth="yes"/>
      <point x="253" y="571"/>
      <point x="255" y="591"/>
      <point x="259" y="611" type="curve"/>
      <point x="486" y="569"/>
      <point x="584" y="479"/>
      <point x="584" y="341" type="curve" smooth="yes"/>
      <point x="584" y="246"/>
      <point x="532" y="158"/>
      <point x="412" y="108" type="curve"/>
      <point x="235" y="151"/>
      <point x="100" y="220"/>
    </contour>
  </outline>
</glyph>
<glyph name="R" format="1">
  <advance width="696"/>
  <unicode hex="0052"/>
  <outline>
    <contour>
      <point x="139" y="0" type="line"/>
      <point x="303" y="0" type="line"/>
      <point x="296" y="228" type="line"/>
      <point x="308" y="230"/>
      <point x="320" y="232"/>
      <point x="331" y="235" type="curve"/>
      <point x="505" y="0" type="line"/>
      <point x="686" y="0" type="line"/>
      <point x="467" y="279" type="line"/>
      <point x="570" y="326"/>
      <point x="623" y="397"/>
      <point x="623" y="494" type="curve" smooth="yes"/>
      <point x="623" y="671"/>
      <point x="408" y="750"/>
      <point x="0" y="764" type="curve"/>
      <point x="137" y="610" type="line"/>
      <point x="170" y="348" type="line"/>
      <point x="-9" y="195" type="line"/>
      <point x="158" y="207" type="line"/>
    </contour>
    <contour>
      <point x="291" y="402" type="line"/>
      <point x="301" y="596" type="line"/>
      <point x="448" y="574"/>
      <point x="566" y="523"/>
      <point x="566" y="445" type="curve" smooth="yes"/>
      <point x="566" y="394"/>
      <point x="533" y="362"/>
      <point x="345" y="354" type="curve" smooth="yes"/>
      <point x="293" y="352" type="line"/>
    </contour>
  </outline>
</glyph>
<glyph name="S" format="1">
  <advance width="616"/>
  <unicode hex="0053"/>
  <outline>
    <contour>
      <point x="588" y="206" type="curve" smooth="yes"/>
      <point x="588" y="279"/>
      <point x="545" y="333"/>
      <point x="486" y="377" type="curve"/>
      <point x="499" y="444"/>
      <point x="564" y="518"/>
      <point x="564" y="597" type="curve" smooth="yes"/>
      <point x="564" y="695"/>
      <point x="448" y="763"/>
      <point x="323" y="763" type="curve" smooth="yes"/>
      <point x="152" y="763"/>
      <point x="66" y="661"/>
      <point x="66" y="552" type="curve" smooth="yes"/>
      <point x="66" y="463"/>
      <point x="107" y="404"/>
      <point x="165" y="360" type="curve"/>
      <point x="65" y="294"/>
      <point x="18" y="226"/>
      <point x="18" y="151" type="curve" smooth="yes"/>
      <point x="18" y="49"/>
      <point x="129" y="-13"/>
      <point x="309" y="-13" type="curve" smooth="yes"/>
      <point x="478" y="-13"/>
      <point x="588" y="55"/>
    </contour>
    <contour>
      <point x="139" y="615" type="curve" smooth="yes"/>
      <point x="139" y="651"/>
      <point x="161" y="678"/>
      <point x="219" y="678" type="curve" smooth="yes"/>
      <point x="360" y="678"/>
      <point x="460" y="579"/>
      <point x="455" y="398" type="curve"/>
      <point x="323" y="482"/>
      <point x="139" y="528"/>
    </contour>
    <contour>
      <point x="106" y="229" type="curve" smooth="yes"/>
      <point x="106" y="264"/>
      <point x="144" y="295"/>
      <point x="258" y="304" type="curve"/>
      <point x="375" y="246"/>
      <point x="503" y="213"/>
      <point x="503" y="126" type="curve" smooth="yes"/>
      <point x="503" y="85"/>
      <point x="470" y="65"/>
      <point x="406" y="65" type="curve" smooth="yes"/>
      <point x="281" y="65"/>
      <point x="106" y="157"/>
    </contour>
  </outline>
</glyph>
<glyph name="T" format="1">
  <advance width="709"/>
  <unicode hex="0054"/>
  <outline>
    <contour>
      <point x="260" y="0" type="line"/>
      <point x="438" y="0" type="line"/>
      <point x="426" y="378" type="line"/>
      <point x="430" y="448" type="line"/>
      <point x="679" y="334" type="line"/>
      <point x="657" y="510" type="line"/>
      <point x="433" y="510" type="line"/>
      <point x="440" y="651" type="line"/>
      <point x="440" y="683" type="line"/>
      <point x="679" y="574" type="line"/>
      <point x="657" y="750" type="line"/>
      <point x="50" y="750" type="line"/>
      <point x="30" y="574" type="line"/>
      <point x="267" y="681" type="line"/>
      <point x="274" y="510" type="line"/>
      <point x="50" y="510" type="line"/>
      <point x="30" y="334" type="line"/>
      <point x="276" y="445" type="line"/>
      <point x="279" y="378" type="line"/>
    </contour>
  </outline>
</glyph>
<glyph name="U" format="1">
  <advance width="685"/>
  <unicode hex="0055"/>
  <outline>
    <contour>
      <point x="25" y="166" type="curve"/>
      <point x="46" y="58"/>
      <point x="135" y="-13"/>
      <point x="236" y="-13" type="curve" smooth="yes"/>
      <point x="312" y="-13"/>
      <point x="415" y="34"/>
      <point x="460" y="150" type="curve"/>
      <point x="452" y="0" type="line"/>
      <point x="624" y="0" type="line"/>
      <point x="612" y="378" type="line"/>
      <point x="626" y="651" type="line"/>
      <point x="626" y="750" type="line"/>
      <point x="456" y="750" type="line"/>
      <point x="469" y="420" type="line" smooth="yes"/>
      <point x="476" y="237"/>
      <point x="447" y="130"/>
      <point x="347" y="130" type="curve" smooth="yes"/>
      <point x="277" y="130"/>
      <point x="211" y="174"/>
      <point x="189" y="262" type="curve"/>
      <point x="279" y="378"/>
      <point x="342" y="493"/>
      <point x="342" y="603" type="curve" smooth="yes"/>
      <point x="342" y="701"/>
      <point x="272" y="763"/>
      <point x="124" y="763" type="curve"/>
      <point x="55" y="603" type="line"/>
      <point x="197" y="576"/>
      <point x="234" y="512"/>
      <point x="234" y="453" type="curve" smooth="yes"/>
      <point x="234" y="369"/>
      <point x="147" y="286"/>
    </contour>
  </outline>
</glyph>
<glyph name="V" format="1">
  <advance width="758"/>
  <unicode hex="0056"/>
  <outline>
    <contour>
      <point x="732" y="522" type="curve" smooth="yes"/>
      <point x="732" y="688"/>
      <point x="629" y="760"/>
      <point x="522" y="760" type="curve" smooth="yes"/>
      <point x="431" y="760"/>
      <point x="354" y="704"/>
      <point x="298" y="589" type="curve"/>
      <point x="263" y="642"/>
      <point x="223" y="699"/>
      <point x="178" y="764" type="curve"/>
      <point x="145" y="744" type="line"/>
      <point x="8" y="661" type="line"/>
      <point x="25" y="617" type="line"/>
      <point x="75" y="648" type="line"/>
      <point x="264" y="384"/>
      <point x="321" y="303"/>
      <point x="321" y="74" type="curve" smooth="yes"/>
      <point x="321" y="0" type="line"/>
      <point x="376" y="0" type="line"/>
      <point x="599" y="171"/>
      <point x="732" y="315"/>
    </contour>
    <contour>
      <point x="432" y="614" type="curve" smooth="yes"/>
      <point x="533" y="614"/>
      <point x="645" y="535"/>
      <point x="645" y="401" type="curve" smooth="yes"/>
      <point x="645" y="305"/>
      <point x="597" y="235"/>
      <point x="471" y="206" type="curve"/>
      <point x="454" y="318"/>
      <point x="404" y="422"/>
      <point x="319" y="556" type="curve"/>
      <point x="343" y="595"/>
      <point x="382" y="614"/>
    </contour>
  </outline>
</glyph>
<glyph name="W" format="1">
  <advance width="1131"/>
  <unicode hex="0057"/>
  <outline>
    <contour>
      <point x="665" y="94" type="line"/>
      <point x="687" y="-13" type="line"/>
      <point x="740" y="-8" type="line"/>
      <point x="956" y="158"/>
      <point x="1105" y="322"/>
      <point x="1105" y="547" type="curve" smooth="yes"/>
      <point x="1105" y="688"/>
      <point x="1021" y="763"/>
      <point x="919" y="763" type="curve" smooth="yes"/>
      <point x="825" y="763"/>
      <point x="748" y="717"/>
      <point x="692" y="602" type="curve"/>
      <point x="657" y="699"/>
      <point x="583" y="763"/>
      <point x="494" y="763" type="curve" smooth="yes"/>
      <point x="409" y="763"/>
      <point x="335" y="708"/>
      <point x="280" y="599" type="curve"/>
      <point x="250" y="649"/>
      <point x="216" y="704"/>
      <point x="178" y="764" type="curve"/>
      <point x="145" y="744" type="line"/>
      <point x="8" y="661" type="line"/>
      <point x="25" y="617" type="line"/>
      <point x="73" y="647" type="line"/>
      <point x="242" y="384"/>
      <point x="298" y="303"/>
      <point x="298" y="74" type="curve" smooth="yes"/>
      <point x="298" y="0" type="line"/>
      <point x="353" y="0" type="line"/>
      <point x="467" y="82"/>
      <point x="552" y="166"/>
      <point x="622" y="275" type="curve"/>
    </contour>
    <contour>
      <point x="829" y="614" type="curve" smooth="yes"/>
      <point x="931" y="614"/>
      <point x="1010" y="530"/>
      <point x="1010" y="394" type="curve" smooth="yes"/>
      <point x="1010" y="284"/>
      <point x="925" y="220"/>
      <point x="793" y="204" type="curve"/>
      <point x="709" y="543" type="line"/>
      <point x="732" y="591"/>
      <point x="774" y="614"/>
    </contour>
    <contour>
      <point x="409" y="614" type="curve" smooth="yes"/>
      <point x="528" y="614"/>
      <point x="605" y="536"/>
      <point x="605" y="397" type="curve" smooth="yes"/>
      <point x="605" y="334"/>
      <point x="572" y="242"/>
      <point x="447" y="211" type="curve"/>
      <point x="430" y="323"/>
      <point x="381" y="428"/>
      <point x="301" y="563" type="curve"/>
      <point x="326" y="597"/>
      <point x="363" y="614"/>
    </contour>
  </outline>
</glyph>
<glyph name="X" format="1">
  <advance width="645"/>
  <unicode hex="0058"/>
  <outline>
    <contour>
      <point x="646" y="142" type="line"/>
      <point x="394" y="221"/>
      <point x="331" y="303"/>
      <point x="331" y="453" type="curve" smooth="yes"/>
      <point x="331" y="464" type="line" smooth="yes"/>
      <point x="331" y="559"/>
      <point x="357" y="632"/>
      <point x="410" y="632" type="curve" smooth="yes"/>
      <point x="449" y="632"/>
      <point x="484" y="597"/>
      <point x="519" y="527" type="curve"/>
      <point x="633" y="642" type="line"/>
      <point x="619" y="698"/>
      <point x="569" y="762"/>
      <point x="507" y="762" type="curve" smooth="yes"/>
      <point x="470" y="762"/>
      <point x="412" y="716"/>
      <point x="286" y="590" type="curve"/>
      <point x="136" y="761" type="line"/>
      <point x="6" y="646" type="line"/>
      <point x="185" y="454"/>
      <point x="222" y="392"/>
      <point x="222" y="302" type="curve" smooth="yes"/>
      <point x="222" y="217"/>
      <point x="183" y="166"/>
      <point x="-5" y="31" type="curve"/>
      <point x="21" y="-13" type="line"/>
      <point x="154" y="81"/>
      <point x="220" y="144"/>
      <point x="260" y="198" type="curve"/>
      <point x="304" y="114"/>
      <point x="411" y="47"/>
      <point x="587" y="-15" type="curve"/>
    </contour>
  </outline>
</glyph>
<glyph name="Y" format="1">
  <advance width="708"/>
  <unicode hex="0059"/>
  <outline>
    <contour>
      <point x="678" y="218" type="curve" smooth="yes"/>
      <point x="678" y="276"/>
      <point x="636" y="318"/>
      <point x="580" y="341" type="curve"/>
      <point x="647" y="411"/>
      <point x="659" y="491"/>
      <point x="659" y="561" type="curve" smooth="yes"/>
      <point x="659" y="672"/>
      <point x="582" y="763"/>
      <point x="468" y="763" type="curve" smooth="yes"/>
      <point x="376" y="763"/>
      <point x="308" y="689"/>
      <point x="293" y="591" type="curve"/>
      <point x="275" y="638"/>
      <point x="255" y="686"/>
      <point x="233" y="737" type="curve"/>
      <point x="87" y="716" type="line"/>
      <point x="7" y="705" type="line"/>
      <point x="25" y="654" type="line"/>
      <point x="86" y="664" type="line"/>
      <point x="106" y="629" type="line" smooth="yes"/>
      <point x="155" y="545"/>
      <point x="187" y="464"/>
      <point x="203" y="376" type="curve" smooth="yes"/>
      <point x="213" y="320" type="line"/>
      <point x="141" y="299"/>
      <point x="100" y="252"/>
      <point x="100" y="182" type="curve" smooth="yes"/>
      <point x="100" y="59"/>
      <point x="202" y="-13"/>
      <point x="368" y="-13" type="curve" smooth="yes"/>
      <point x="565" y="-13"/>
      <point x="678" y="88"/>
    </contour>
    <contour>
      <point x="413" y="611" type="curve" smooth="yes"/>
      <point x="484" y="611"/>
      <point x="567" y="558"/>
      <point x="567" y="457" type="curve" smooth="yes"/>
      <point x="567" y="376"/>
      <point x="514" y="333"/>
      <point x="395" y="332" type="curve" smooth="yes"/>
      <point x="376" y="332" type="line"/>
      <point x="357" y="402"/>
      <point x="336" y="470"/>
      <point x="312" y="538" type="curve"/>
      <point x="326" y="588"/>
      <point x="366" y="611"/>
    </contour>
    <contour>
      <point x="198" y="96" type="curve" smooth="yes"/>
      <point x="198" y="125"/>
      <point x="214" y="161"/>
      <point x="404" y="233" type="curve" smooth="yes"/>
      <point x="468" y="257"/>
      <point x="516" y="285"/>
      <point x="552" y="315" type="curve"/>
      <point x="557" y="299"/>
      <point x="559" y="284"/>
      <point x="559" y="269" type="curve" smooth="yes"/>
      <point x="559" y="142"/>
      <point x="393" y="57"/>
      <point x="259" y="57" type="curve" smooth="yes"/>
      <point x="217" y="57"/>
      <point x="198" y="72"/>
    </contour>
  </outline>
</glyph>
<glyph name="Z" format="1">
  <advance width="681"/>
  <unicode hex="005A"/>
  <outline>
    <contour>
      <point x="9" y="12" type="line"/>
      <point x="38" y="-6" type="line"/>
      <point x="79" y="52"/>
      <point x="102" y="68"/>
      <point x="136" y="68" type="curve" smooth="yes"/>
      <point x="189" y="68"/>
      <point x="343" y="-13"/>
      <point x="469" y="-13" type="curve" smooth="yes"/>
      <point x="544" y="-13"/>
      <point x="706" y="30"/>
      <point x="616" y="466" type="curve"/>
      <point x="579" y="445" type="line"/>
      <point x="609" y="152"/>
      <point x="481" y="53"/>
      <point x="245" y="101" type="curve"/>
      <point x="648" y="745" type="line"/>
      <point x="620" y="760" type="line"/>
      <point x="586" y="720"/>
      <point x="542" y="702"/>
      <point x="326" y="737" type="curve" smooth="yes"/>
      <point x="170" y="763" type="line"/>
      <point x="141" y="679"/>
      <point x="107" y="600"/>
      <point x="70" y="528" type="curve"/>
      <point x="107" y="514" type="line"/>
      <point x="156" y="603" type="line"/>
      <point x="424" y="677" type="line"/>
    </contour>
  </outline>
</glyph>
<glyph name="backslash" format="1">
  <advance width="351"/>
  <unicode hex="005C"/>
  <outline>
    <contour>
      <point x="351" y="-116" type="line"/>
      <point x="101" y="750" type="line"/>
      <point x="0" y="750" type="line"/>
      <point x="250" y="-116" type="line"/>
    </contour>
  </outline>
</glyph>
<glyph name="grave" format="1">
  <advance width="500"/>
  <unicode hex="0060"/>
  <outline>
    <contour>
      <point x="317" y="655" type="line"/>
      <point x="342" y="655" type="line"/>
      <point x="259" y="868" type="line"/>
      <point x="108" y="868" type="line"/>
    </contour>
  </outline>
</glyph>
<glyph name="a" format="1">
  <advance width="493"/>
  <unicode hex="0061"/>
  <outline>
    <contour>
      <point x="301" y="-12" type="line"/>
      <point x="467" y="-1" type="line"/>
      <point x="448" y="163" type="line"/>
      <point x="450" y="217"/>
      <point x="454" y="306"/>
      <point x="454" y="379" type="curve" smooth="yes"/>
      <point x="454" y="456"/>
      <point x="451" y="530"/>
      <point x="445" y="588" type="curve"/>
      <point x="425" y="591"/>
      <point x="395" y="593"/>
      <point x="361" y="593" type="curve" smooth="yes"/>
      <point x="263" y="593"/>
      <point x="124" y="579"/>
      <point x="30" y="544" type="curve"/>
      <point x="42" y="433"/>
      <point x="69" y="327"/>
      <point x="124" y="243" type="curve"/>
      <point x="94" y="223"/>
      <point x="56" y="203"/>
      <point x="13" y="174" type="curve"/>
      <point x="6" y="78"/>
      <point x="55" y="-13"/>
      <point x="162" y="-13" type="curve" smooth="yes"/>
      <point x="224" y="-13"/>
      <point x="273" y="20"/>
      <point x="301" y="93" type="curve"/>
    </contour>
    <contour>
      <point x="232" y="291" type="curve"/>
      <point x="231" y="293" type="line"/>
      <point x="164" y="344"/>
      <point x="123" y="387"/>
      <point x="89" y="444" type="curve"/>
      <point x="155" y="479"/>
      <point x="231" y="511"/>
      <point x="307" y="527" type="curve"/>
      <point x="307" y="376" type="line" smooth="yes"/>
      <point x="307" y="197"/>
      <point x="291" y="76"/>
      <point x="243" y="76" type="curve" smooth="yes"/>
      <point x="204" y="76"/>
      <point x="164" y="131"/>
      <point x="154" y="222" type="curve"/>
      <point x="186" y="250"/>
      <point x="206" y="265"/>
    </contour>
  </outline>
</glyph>
<glyph name="b" format="1">
  <advance width="546"/>
  <unicode hex="0062"/>
  <outline>
    <contour>
      <point x="39" y="-16" type="line"/>
      <point x="52" y="-15" type="line"/>
      <point x="357" y="-8"/>
      <point x="525" y="98"/>
      <point x="525" y="358" type="curve" smooth="yes"/>
      <point x="525" y="522"/>
      <point x="459" y="593"/>
      <point x="372" y="593" type="curve" smooth="yes"/>
      <point x="308" y="593"/>
      <point x="244" y="545"/>
      <point x="189" y="472" type="curve"/>
      <point x="194" y="629" type="line"/>
      <point x="194" y="784" type="line"/>
      <point x="185" y="788" type="line"/>
      <point x="79" y="689" type="line"/>
      <point x="51" y="783" type="line"/>
      <point x="30" y="780" type="line"/>
      <point x="49" y="378" type="line"/>
    </contour>
    <contour>
      <point x="286" y="503" type="curve" smooth="yes"/>
      <point x="339" y="503"/>
      <point x="365" y="446"/>
      <point x="365" y="288" type="curve" smooth="yes"/>
      <point x="365" y="100"/>
      <point x="326" y="56"/>
      <point x="263" y="56" type="curve" smooth="yes"/>
      <point x="239" y="56"/>
      <point x="217" y="60"/>
      <point x="195" y="67" type="curve"/>
      <point x="192" y="164" type="line"/>
      <point x="192" y="460"/>
      <point x="250" y="503"/>
    </contour>
  </outline>
</glyph>
<glyph name="c" format="1">
  <advance width="382"/>
  <unicode hex="0063"/>
  <outline>
    <contour>
      <point x="56" y="352" type="curve" smooth="yes"/>
      <point x="56" y="406"/>
      <point x="100" y="436"/>
      <point x="176" y="436" type="curve" smooth="yes"/>
      <point x="209" y="436"/>
      <point x="254" y="431"/>
      <point x="313" y="415" type="curve"/>
      <point x="336" y="593" type="line"/>
      <point x="153" y="593"/>
      <point x="17" y="482"/>
      <point x="17" y="338" type="curve" smooth="yes"/>
      <point x="17" y="185"/>
      <point x="120" y="48"/>
      <point x="328" y="-13" type="curve"/>
      <point x="362" y="166" type="line"/>
      <point x="145" y="220"/>
      <point x="56" y="263"/>
    </contour>
  </outline>
</glyph>
<glyph name="d" format="1">
  <advance width="547"/>
  <unicode hex="0064"/>
  <outline>
    <contour>
      <point x="503" y="775" type="line"/>
      <point x="163" y="775" type="line"/>
      <point x="163" y="730" type="line"/>
      <point x="345" y="730" type="line"/>
      <point x="348" y="590" type="line"/>
      <point x="134" y="554"/>
      <point x="21" y="443"/>
      <point x="21" y="223" type="curve" smooth="yes"/>
      <point x="21" y="58"/>
      <point x="83" y="-13"/>
      <point x="164" y="-13" type="curve" smooth="yes"/>
      <point x="226" y="-13"/>
      <point x="300" y="48"/>
      <point x="358" y="128" type="curve"/>
      <point x="358" y="-11" type="line"/>
      <point x="517" y="-1" type="line"/>
      <point x="502" y="158"/>
      <point x="495" y="320"/>
      <point x="495" y="553" type="curve"/>
      <point x="503" y="730" type="line"/>
    </contour>
    <contour>
      <point x="181" y="282" type="curve" smooth="yes"/>
      <point x="181" y="476"/>
      <point x="217" y="531"/>
      <point x="276" y="531" type="curve" smooth="yes"/>
      <point x="302" y="531"/>
      <point x="325" y="526"/>
      <point x="350" y="518" type="curve"/>
      <point x="354" y="350" type="line"/>
      <point x="354" y="132"/>
      <point x="294" y="86"/>
      <point x="261" y="86" type="curve" smooth="yes"/>
      <point x="215" y="86"/>
      <point x="181" y="127"/>
    </contour>
  </outline>
</glyph>
<glyph name="e" format="1">
  <advance width="449"/>
  <unicode hex="0065"/>
  <outline>
    <contour>
      <point x="417" y="166" type="line"/>
      <point x="246" y="194"/>
      <point x="143" y="230"/>
      <point x="94" y="276" type="curve"/>
      <point x="439" y="366" type="line"/>
      <point x="431" y="410" type="line"/>
      <point x="405" y="403" type="line"/>
      <point x="355" y="443"/>
      <point x="333" y="489"/>
      <point x="333" y="528" type="curve" smooth="yes"/>
      <point x="333" y="561"/>
      <point x="348" y="590"/>
      <point x="376" y="608" type="curve"/>
      <point x="352" y="635" type="line"/>
      <point x="304" y="593" type="line"/>
      <point x="143" y="593"/>
      <point x="20" y="481"/>
      <point x="20" y="329" type="curve" smooth="yes"/>
      <point x="20" y="158"/>
      <point x="133" y="49"/>
      <point x="383" y="-13" type="curve"/>
    </contour>
    <contour>
      <point x="59" y="350" type="curve" smooth="yes"/>
      <point x="59" y="412"/>
      <point x="105" y="456"/>
      <point x="173" y="456" type="curve" smooth="yes"/>
      <point x="187" y="456"/>
      <point x="202" y="454"/>
      <point x="218" y="450" type="curve"/>
      <point x="220" y="415"/>
      <point x="229" y="390"/>
      <point x="250" y="362" type="curve"/>
      <point x="66" y="314" type="line"/>
      <point x="61" y="326"/>
      <point x="59" y="338"/>
    </contour>
  </outline>
</glyph>
<glyph name="f" format="1">
  <advance width="342"/>
  <unicode hex="0066"/>
  <outline>
    <contour>
      <point x="121" y="3" type="curve" smooth="yes"/>
      <point x="121" y="163"/>
      <point x="312" y="240"/>
      <point x="312" y="347" type="curve" smooth="yes"/>
      <point x="312" y="403"/>
      <point x="254" y="457"/>
      <point x="199" y="507" type="curve"/>
      <point x="327" y="507" type="line"/>
      <point x="327" y="555" type="line"/>
      <point x="149" y="555" type="line"/>
      <point x="123" y="582"/>
      <point x="104" y="607"/>
      <point x="104" y="631" type="curve" smooth="yes"/>
      <point x="104" y="665"/>
      <point x="131" y="691"/>
      <point x="181" y="691" type="curve" smooth="yes"/>
      <point x="271" y="691"/>
      <point x="367" y="648"/>
      <point x="372" y="564" type="curve" smooth="yes"/>
      <point x="374" y="533" type="line"/>
      <point x="401" y="533" type="line"/>
      <point x="402" y="556"/>
      <point x="403" y="579"/>
      <point x="414" y="605" type="curve" smooth="yes"/>
      <point x="429" y="639"/>
      <point x="463" y="670"/>
      <point x="463" y="712" type="curve" smooth="yes"/>
      <point x="463" y="753"/>
      <point x="405" y="788"/>
      <point x="330" y="788" type="curve" smooth="yes"/>
      <point x="165" y="788"/>
      <point x="23" y="675"/>
      <point x="9" y="555" type="curve"/>
      <point x="-107" y="555" type="line"/>
      <point x="-107" y="507" type="line"/>
      <point x="11" y="507" type="line"/>
      <point x="33" y="402"/>
      <point x="166" y="346"/>
      <point x="166" y="256" type="curve" smooth="yes"/>
      <point x="166" y="191"/>
      <point x="72" y="128"/>
      <point x="72" y="10" type="curve" smooth="yes"/>
      <point x="72" y="-83"/>
      <point x="124" y="-135"/>
      <point x="227" y="-186" type="curve"/>
      <point x="250" y="-151" type="line"/>
      <point x="161" y="-104"/>
      <point x="121" y="-60"/>
    </contour>
  </outline>
</glyph>
<glyph name="g" format="1">
  <advance width="461"/>
  <unicode hex="0067"/>
  <outline>
    <contour>
      <point x="474" y="-19" type="curve" smooth="yes"/>
      <point x="474" y="25"/>
      <point x="426" y="61"/>
      <point x="370" y="92" type="curve"/>
      <point x="372" y="214" type="line" smooth="yes"/>
      <point x="374" y="319"/>
      <point x="434" y="341"/>
      <point x="434" y="410" type="curve" smooth="yes"/>
      <point x="434" y="496"/>
      <point x="347" y="593"/>
      <point x="228" y="593" type="curve" smooth="yes"/>
      <point x="114" y="593"/>
      <point x="18" y="509"/>
      <point x="18" y="393" type="curve" smooth="yes"/>
      <point x="18" y="295"/>
      <point x="112" y="242"/>
      <point x="171" y="227" type="curve"/>
      <point x="100" y="193"/>
      <point x="62" y="163"/>
      <point x="62" y="132" type="curve" smooth="yes"/>
      <point x="62" y="112"/>
      <point x="83" y="90"/>
      <point x="114" y="68" type="curve"/>
      <point x="39" y="11"/>
      <point x="-12" y="-37"/>
      <point x="-12" y="-97" type="curve" smooth="yes"/>
      <point x="-12" y="-160"/>
      <point x="56" y="-186"/>
      <point x="131" y="-186" type="curve" smooth="yes"/>
      <point x="295" y="-186"/>
      <point x="474" y="-110"/>
    </contour>
    <contour>
      <point x="110" y="495" type="curve" smooth="yes"/>
      <point x="110" y="513"/>
      <point x="120" y="529"/>
      <point x="143" y="529" type="curve" smooth="yes"/>
      <point x="238" y="529"/>
      <point x="319" y="401"/>
      <point x="334" y="292" type="curve"/>
      <point x="194" y="315"/>
      <point x="110" y="412"/>
    </contour>
    <contour>
      <point x="202" y="200" type="curve" smooth="yes"/>
      <point x="202" y="228"/>
      <point x="266" y="241"/>
      <point x="337" y="269" type="curve"/>
      <point x="341" y="217"/>
      <point x="342" y="150"/>
      <point x="343" y="106" type="curve"/>
      <point x="273" y="142"/>
      <point x="202" y="172"/>
    </contour>
    <contour>
      <point x="63" y="-20" type="curve" smooth="yes"/>
      <point x="63" y="1"/>
      <point x="86" y="16"/>
      <point x="159" y="40" type="curve"/>
      <point x="241" y="-9"/>
      <point x="347" y="-57"/>
      <point x="347" y="-93" type="curve" smooth="yes"/>
      <point x="347" y="-104"/>
      <point x="343" y="-115"/>
      <point x="289" y="-115" type="curve" smooth="yes"/>
      <point x="166" y="-115"/>
      <point x="63" y="-69"/>
    </contour>
  </outline>
</glyph>
<glyph name="h" format="1">
  <advance width="538"/>
  <unicode hex="0068"/>
  <outline>
    <contour>
      <point x="39" y="0" type="line"/>
      <point x="196" y="0" type="line"/>
      <point x="191" y="186" type="line"/>
      <point x="194" y="383"/>
      <point x="222" y="497"/>
      <point x="280" y="497" type="curve" smooth="yes"/>
      <point x="310" y="497"/>
      <point x="343" y="452"/>
      <point x="356" y="403" type="curve"/>
      <point x="337" y="0" type="line"/>
      <point x="498" y="0" type="line"/>
      <point x="487" y="276" type="line" smooth="yes"/>
      <point x="485" y="326"/>
      <point x="508" y="420"/>
      <point x="523" y="461" type="curve"/>
      <point x="482" y="551"/>
      <point x="417" y="595"/>
      <point x="359" y="595" type="curve" smooth="yes"/>
      <point x="301" y="595"/>
      <point x="237" y="559"/>
      <point x="188" y="455" type="curve"/>
      <point x="194" y="629" type="line"/>
      <point x="194" y="784" type="line"/>
      <point x="185" y="788" type="line"/>
      <point x="79" y="689" type="line"/>
      <point x="51" y="783" type="line"/>
      <point x="30" y="780" type="line"/>
      <point x="49" y="378" type="line"/>
    </contour>
  </outline>
</glyph>
<glyph name="i" format="1">
  <advance width="237"/>
  <unicode hex="0069"/>
  <outline>
    <contour>
      <point x="212" y="865" type="curve"/>
      <point x="205" y="873"/>
      <point x="190" y="878"/>
      <point x="176" y="876" type="curve"/>
      <point x="158" y="793" type="line"/>
      <point x="122" y="793"/>
      <point x="75" y="794"/>
      <point x="26" y="770" type="curve"/>
      <point x="11" y="682"/>
      <point x="64" y="600"/>
      <point x="140" y="600" type="curve"/>
      <point x="159" y="670"/>
      <point x="194" y="799"/>
    </contour>
    <contour>
      <point x="200" y="0" type="line"/>
      <point x="200" y="183"/>
      <point x="195" y="366"/>
      <point x="185" y="547" type="curve"/>
      <point x="26" y="521" type="line"/>
      <point x="59" y="302" type="line"/>
      <point x="39" y="0" type="line"/>
    </contour>
  </outline>
</glyph>
<glyph name="j" format="1">
  <advance width="240"/>
  <unicode hex="006A"/>
  <outline>
    <contour>
      <point x="207" y="870" type="curve"/>
      <point x="200" y="878"/>
      <point x="185" y="883"/>
      <point x="171" y="881" type="curve"/>
      <point x="153" y="798" type="line"/>
      <point x="117" y="798"/>
      <point x="70" y="799"/>
      <point x="21" y="775" type="curve"/>
      <point x="6" y="687"/>
      <point x="59" y="605"/>
      <point x="135" y="605" type="curve"/>
      <point x="154" y="675"/>
      <point x="189" y="804"/>
    </contour>
    <contour>
      <point x="34" y="-184" type="curve"/>
      <point x="63" y="-188" type="line"/>
      <point x="80" y="-149"/>
      <point x="117" y="-96"/>
      <point x="148" y="-40" type="curve" smooth="yes"/>
      <point x="182" y="22"/>
      <point x="213" y="93"/>
      <point x="213" y="164" type="curve"/>
      <point x="203" y="245"/>
      <point x="182" y="406"/>
      <point x="188" y="553" type="curve"/>
      <point x="31" y="525" type="line"/>
      <point x="45" y="426"/>
      <point x="56" y="335"/>
      <point x="56" y="262" type="curve" smooth="yes"/>
      <point x="56" y="78"/>
      <point x="42" y="-85"/>
    </contour>
  </outline>
</glyph>
<glyph name="k" format="1">
  <advance width="536"/>
  <unicode hex="006B"/>
  <outline>
    <contour>
      <point x="39" y="0" type="line"/>
      <point x="196" y="0" type="line"/>
      <point x="190" y="184" type="line"/>
      <point x="189" y="236" type="line"/>
      <point x="219" y="236" type="line"/>
      <point x="356" y="0" type="line"/>
      <point x="536" y="0" type="line"/>
      <point x="343" y="287" type="line"/>
      <point x="409" y="349"/>
      <point x="461" y="427"/>
      <point x="461" y="490" type="curve" smooth="yes"/>
      <point x="461" y="554"/>
      <point x="421" y="593"/>
      <point x="378" y="593" type="curve" smooth="yes"/>
      <point x="325" y="593"/>
      <point x="273" y="549"/>
      <point x="240" y="493" type="curve"/>
      <point x="245" y="478" type="line"/>
      <point x="306" y="474"/>
      <point x="346" y="438"/>
      <point x="346" y="389" type="curve" smooth="yes"/>
      <point x="346" y="320"/>
      <point x="319" y="279"/>
      <point x="212" y="279" type="curve" smooth="yes"/>
      <point x="188" y="279" type="line"/>
      <point x="188" y="306" type="line"/>
      <point x="194" y="629" type="line"/>
      <point x="194" y="784" type="line"/>
      <point x="185" y="788" type="line"/>
      <point x="79" y="689" type="line"/>
      <point x="51" y="783" type="line"/>
      <point x="30" y="780" type="line"/>
      <point x="49" y="378" type="line"/>
    </contour>
  </outline>
</glyph>
<glyph name="l" format="1">
  <advance width="226"/>
  <unicode hex="006C"/>
  <outline>
    <contour>
      <point x="39" y="0" type="line"/>
      <point x="196" y="0" type="line"/>
      <point x="186" y="384" type="line"/>
      <point x="194" y="629" type="line"/>
      <point x="194" y="784" type="line"/>
      <point x="185" y="788" type="line"/>
      <point x="79" y="689" type="line"/>
      <point x="51" y="783" type="line"/>
      <point x="30" y="780" type="line"/>
      <point x="49" y="378" type="line"/>
    </contour>
  </outline>
</glyph>
<glyph name="m" format="1">
  <advance width="817"/>
  <unicode hex="006D"/>
  <outline>
    <contour>
      <point x="38" y="0" type="line"/>
      <point x="199" y="0" type="line"/>
      <point x="196" y="159" type="line"/>
      <point x="196" y="372"/>
      <point x="219" y="497"/>
      <point x="270" y="497" type="curve" smooth="yes"/>
      <point x="300" y="497"/>
      <point x="334" y="453"/>
      <point x="346" y="403" type="curve"/>
      <point x="327" y="0" type="line"/>
      <point x="488" y="0" type="line"/>
      <point x="482" y="159" type="line"/>
      <point x="482" y="372"/>
      <point x="505" y="497"/>
      <point x="556" y="497" type="curve" smooth="yes"/>
      <point x="586" y="497"/>
      <point x="620" y="453"/>
      <point x="632" y="403" type="curve"/>
      <point x="613" y="0" type="line"/>
      <point x="774" y="0" type="line"/>
      <point x="763" y="276" type="line" smooth="yes"/>
      <point x="761" y="326"/>
      <point x="784" y="420"/>
      <point x="799" y="461" type="curve"/>
      <point x="758" y="551"/>
      <point x="693" y="595"/>
      <point x="635" y="595" type="curve" smooth="yes"/>
      <point x="588" y="595"/>
      <point x="539" y="568"/>
      <point x="497" y="493" type="curve"/>
      <point x="456" y="561"/>
      <point x="400" y="595"/>
      <point x="349" y="595" type="curve" smooth="yes"/>
      <point x="294" y="595"/>
      <point x="236" y="558"/>
      <point x="190" y="451" type="curve"/>
      <point x="189" y="492" type="line"/>
      <point x="181" y="587" type="line"/>
      <point x="18" y="561" type="line"/>
      <point x="57" y="189" type="line"/>
    </contour>
  </outline>
</glyph>
<glyph name="n" format="1">
  <advance width="543"/>
  <unicode hex="006E"/>
  <outline>
    <contour>
      <point x="38" y="0" type="line"/>
      <point x="199" y="0" type="line"/>
      <point x="196" y="159" type="line"/>
      <point x="196" y="372"/>
      <point x="224" y="497"/>
      <point x="285" y="497" type="curve" smooth="yes"/>
      <point x="315" y="497"/>
      <point x="348" y="452"/>
      <point x="361" y="403" type="curve"/>
      <point x="342" y="0" type="line"/>
      <point x="503" y="0" type="line"/>
      <point x="492" y="276" type="line" smooth="yes"/>
      <point x="490" y="326"/>
      <point x="513" y="420"/>
      <point x="528" y="461" type="curve"/>
      <point x="487" y="551"/>
      <point x="422" y="595"/>
      <point x="364" y="595" type="curve" smooth="yes"/>
      <point x="305" y="595"/>
      <point x="239" y="557"/>
      <point x="190" y="447" type="curve"/>
      <point x="189" y="492" type="line"/>
      <point x="181" y="587" type="line"/>
      <point x="18" y="561" type="line"/>
      <point x="51" y="311" type="line"/>
    </contour>
  </outline>
</glyph>
<glyph name="o" format="1">
  <advance width="547"/>
  <unicode hex="006F"/>
  <outline>
    <contour>
      <point x="298" y="621" type="line"/>
      <point x="257" y="586"/>
      <point x="222" y="555"/>
      <point x="178" y="511" type="curve"/>
      <point x="92" y="426"/>
      <point x="20" y="330"/>
      <point x="20" y="239" type="curve" smooth="yes"/>
      <point x="20" y="106"/>
      <point x="127" y="30"/>
      <point x="276" y="-15" type="curve"/>
      <point x="360" y="27"/>
      <point x="532" y="86"/>
      <point x="532" y="225" type="curve" smooth="yes"/>
      <point x="532" y="386"/>
      <point x="291" y="492"/>
      <point x="291" y="546" type="curve" smooth="yes"/>
      <point x="291" y="563"/>
      <point x="303" y="574"/>
      <point x="325" y="593" type="curve"/>
    </contour>
    <contour>
      <point x="151" y="355" type="curve" smooth="yes"/>
      <point x="151" y="385"/>
      <point x="154" y="416"/>
      <point x="165" y="446" type="curve"/>
      <point x="297" y="351"/>
      <point x="388" y="245"/>
      <point x="388" y="147" type="curve" smooth="yes"/>
      <point x="388" y="114"/>
      <point x="381" y="89"/>
      <point x="373" y="72" type="curve"/>
      <point x="216" y="148"/>
      <point x="151" y="227"/>
    </contour>
  </outline>
</glyph>
<glyph name="p" format="1">
  <advance width="573"/>
  <unicode hex="0070"/>
  <outline>
    <contour>
      <point x="15" y="-14" type="line"/>
      <point x="38" y="-13"/>
      <point x="60" y="-13"/>
      <point x="81" y="-11" type="curve"/>
      <point x="79" y="-52"/>
      <point x="76" y="-97"/>
      <point x="74" y="-130" type="curve"/>
      <point x="10" y="-130" type="line"/>
      <point x="10" y="-175" type="line"/>
      <point x="384" y="-175" type="line"/>
      <point x="384" y="-130" type="line"/>
      <point x="232" y="-130" type="line"/>
      <point x="229" y="8" type="line"/>
      <point x="438" y="51"/>
      <point x="552" y="160"/>
      <point x="552" y="358" type="curve" smooth="yes"/>
      <point x="552" y="522"/>
      <point x="486" y="593"/>
      <point x="399" y="593" type="curve" smooth="yes"/>
      <point x="336" y="593"/>
      <point x="273" y="546"/>
      <point x="219" y="478" type="curve"/>
      <point x="219" y="602" type="line"/>
      <point x="14" y="580" type="line"/>
      <point x="14" y="528" type="line"/>
      <point x="68" y="535" type="line"/>
      <point x="79" y="402"/>
      <point x="82" y="285"/>
      <point x="82" y="103" type="curve"/>
    </contour>
    <contour>
      <point x="313" y="503" type="curve" smooth="yes"/>
      <point x="366" y="503"/>
      <point x="392" y="446"/>
      <point x="392" y="288" type="curve" smooth="yes"/>
      <point x="392" y="110"/>
      <point x="353" y="68"/>
      <point x="290" y="68" type="curve" smooth="yes"/>
      <point x="270" y="68"/>
      <point x="249" y="72"/>
      <point x="227" y="78" type="curve"/>
      <point x="224" y="202" type="line"/>
      <point x="229" y="450"/>
      <point x="281" y="503"/>
    </contour>
  </outline>
</glyph>
<glyph name="q" format="1">
  <advance width="533"/>
  <unicode hex="0071"/>
  <outline>
    <contour>
      <point x="499" y="605" type="line"/>
      <point x="188" y="587"/>
      <point x="21" y="490"/>
      <point x="21" y="223" type="curve" smooth="yes"/>
      <point x="21" y="58"/>
      <point x="83" y="-13"/>
      <point x="164" y="-13" type="curve" smooth="yes"/>
      <point x="222" y="-13"/>
      <point x="291" y="43"/>
      <point x="347" y="118" type="curve"/>
      <point x="345" y="5"/>
      <point x="340" y="-93"/>
      <point x="331" y="-191" type="curve"/>
      <point x="486" y="-173" type="line"/>
      <point x="486" y="5" type="line"/>
    </contour>
    <contour>
      <point x="181" y="282" type="curve" smooth="yes"/>
      <point x="181" y="473"/>
      <point x="217" y="518"/>
      <point x="275" y="518" type="curve" smooth="yes"/>
      <point x="300" y="518"/>
      <point x="322" y="513"/>
      <point x="344" y="506" type="curve"/>
      <point x="347" y="470"/>
      <point x="349" y="430"/>
      <point x="349" y="389" type="curve" smooth="yes"/>
      <point x="349" y="350" type="line"/>
      <point x="349" y="132"/>
      <point x="292" y="86"/>
      <point x="261" y="86" type="curve" smooth="yes"/>
      <point x="215" y="86"/>
      <point x="181" y="127"/>
    </contour>
  </outline>
</glyph>
<glyph name="r" format="1">
  <advance width="436"/>
  <unicode hex="0072"/>
  <outline>
    <contour>
      <point x="43" y="-10" type="line"/>
      <point x="202" y="0" type="line"/>
      <point x="199" y="58" type="line"/>
      <point x="199" y="361"/>
      <point x="230" y="488"/>
      <point x="288" y="488" type="curve" smooth="yes"/>
      <point x="316" y="488"/>
      <point x="362" y="457"/>
      <point x="362" y="266" type="curve"/>
      <point x="391" y="266" type="line"/>
      <point x="391" y="464"/>
      <point x="480" y="484"/>
      <point x="480" y="541" type="curve" smooth="yes"/>
      <point x="480" y="596"/>
      <point x="418" y="641"/>
      <point x="371" y="641" type="curve" smooth="yes"/>
      <point x="311" y="641"/>
      <point x="239" y="574"/>
      <point x="181" y="405" type="curve"/>
      <point x="176" y="507" type="line"/>
      <point x="169" y="616" type="line"/>
      <point x="10" y="582" type="line"/>
      <point x="60" y="175" type="line"/>
    </contour>
  </outline>
</glyph>
<glyph name="s" format="1">
  <advance width="473"/>
  <unicode hex="0073"/>
  <outline>
    <contour>
      <point x="463" y="168" type="curve" smooth="yes"/>
      <point x="463" y="229"/>
      <point x="421" y="273"/>
      <point x="367" y="309" type="curve"/>
      <point x="390" y="354"/>
      <point x="433" y="389"/>
      <point x="433" y="459" type="curve" smooth="yes"/>
      <point x="433" y="525"/>
      <point x="354" y="593"/>
      <point x="247" y="593" type="curve" smooth="yes"/>
      <point x="134" y="593"/>
      <point x="45" y="512"/>
      <point x="45" y="421" type="curve" smooth="yes"/>
      <point x="45" y="346"/>
      <point x="84" y="298"/>
      <point x="136" y="261" type="curve"/>
      <point x="65" y="216"/>
      <point x="15" y="169"/>
      <point x="15" y="100" type="curve" smooth="yes"/>
      <point x="15" y="44"/>
      <point x="70" y="-13"/>
      <point x="212" y="-13" type="curve" smooth="yes"/>
      <point x="344" y="-13"/>
      <point x="463" y="61"/>
    </contour>
    <contour>
      <point x="116" y="481" type="curve" smooth="yes"/>
      <point x="116" y="503"/>
      <point x="126" y="519"/>
      <point x="171" y="519" type="curve" smooth="yes"/>
      <point x="249" y="519"/>
      <point x="335" y="443"/>
      <point x="337" y="327" type="curve"/>
      <point x="237" y="383"/>
      <point x="116" y="419"/>
    </contour>
    <contour>
      <point x="101" y="172" type="curve" smooth="yes"/>
      <point x="101" y="196"/>
      <point x="117" y="213"/>
      <point x="221" y="212" type="curve"/>
      <point x="299" y="174"/>
      <point x="372" y="145"/>
      <point x="372" y="90" type="curve" smooth="yes"/>
      <point x="372" y="72"/>
      <point x="360" y="63"/>
      <point x="336" y="63" type="curve" smooth="yes"/>
      <point x="243" y="63"/>
      <point x="101" y="123"/>
    </contour>
  </outline>
</glyph>
<glyph name="t" format="1">
  <advance width="463"/>
  <unicode hex="0074"/>
  <outline>
    <contour>
      <point x="456" y="154" type="curve"/>
      <point x="431" y="173" type="line"/>
      <point x="389" y="118"/>
      <point x="357" y="103"/>
      <point x="323" y="103" type="curve" smooth="yes"/>
      <point x="273" y="103"/>
      <point x="235" y="133"/>
      <point x="236" y="206" type="curve" smooth="yes"/>
      <point x="241" y="476" type="line"/>
      <point x="426" y="476" type="line"/>
      <point x="435" y="509"/>
      <point x="444" y="550"/>
      <point x="447" y="573" type="curve"/>
      <point x="241" y="573" type="line"/>
      <point x="239" y="702" type="line"/>
      <point x="221" y="705" type="line"/>
      <point x="12" y="522" type="line"/>
      <point x="12" y="503" type="line"/>
      <point x="95" y="481" type="line"/>
      <point x="106" y="297" type="line"/>
      <point x="88" y="156" type="line" smooth="yes"/>
      <point x="75" y="51"/>
      <point x="168" y="-13"/>
      <point x="247" y="-13" type="curve" smooth="yes"/>
      <point x="322" y="-13"/>
      <point x="379" y="26"/>
    </contour>
  </outline>
</glyph>
<glyph name="u" format="1">
  <advance width="535"/>
  <unicode hex="0075"/>
  <outline>
    <contour>
      <point x="33" y="100" type="curve" smooth="yes"/>
      <point x="33" y="60"/>
      <point x="106" y="-13"/>
      <point x="164" y="-13" type="curve" smooth="yes"/>
      <point x="221" y="-13"/>
      <point x="287" y="31"/>
      <point x="339" y="105" type="curve"/>
      <point x="339" y="88" type="line"/>
      <point x="346" y="-21" type="line"/>
      <point x="510" y="13" type="line"/>
      <point x="488" y="164"/>
      <point x="476" y="345"/>
      <point x="476" y="421" type="curve" smooth="yes"/>
      <point x="476" y="492"/>
      <point x="487" y="554"/>
      <point x="490" y="593" type="curve"/>
      <point x="329" y="577" type="line"/>
      <point x="335" y="296" type="line"/>
      <point x="332" y="157"/>
      <point x="302" y="76"/>
      <point x="242" y="76" type="curve" smooth="yes"/>
      <point x="216" y="76"/>
      <point x="190" y="124"/>
      <point x="177" y="177" type="curve"/>
      <point x="196" y="593" type="line"/>
      <point x="35" y="577" type="line"/>
      <point x="46" y="304" type="line"/>
      <point x="46" y="232"/>
      <point x="33" y="169"/>
    </contour>
  </outline>
</glyph>
<glyph name="v" format="1">
  <advance width="572"/>
  <unicode hex="0076"/>
  <outline>
    <contour>
      <point x="185" y="-5" type="line"/>
      <point x="235" y="-5" type="line"/>
      <point x="404" y="81"/>
      <point x="551" y="218"/>
      <point x="551" y="417" type="curve" smooth="yes"/>
      <point x="551" y="550"/>
      <point x="474" y="600"/>
      <point x="394" y="600" type="curve" smooth="yes"/>
      <point x="325" y="600"/>
      <point x="278" y="562"/>
      <point x="225" y="470" type="curve"/>
      <point x="210" y="515"/>
      <point x="193" y="559"/>
      <point x="172" y="603" type="curve"/>
      <point x="-21" y="581" type="line"/>
      <point x="-21" y="529" type="line"/>
      <point x="38" y="537" type="line"/>
      <point x="66" y="491" type="line"/>
      <point x="109" y="398"/>
      <point x="138" y="282"/>
      <point x="165" y="189" type="curve"/>
      <point x="179" y="104" type="line"/>
    </contour>
    <contour>
      <point x="314" y="463" type="curve" smooth="yes"/>
      <point x="392" y="463"/>
      <point x="479" y="395"/>
      <point x="479" y="298" type="curve" smooth="yes"/>
      <point x="479" y="224"/>
      <point x="415" y="176"/>
      <point x="316" y="143" type="curve"/>
      <point x="291" y="239"/>
      <point x="268" y="337"/>
      <point x="238" y="433" type="curve"/>
      <point x="252" y="453"/>
      <point x="276" y="463"/>
    </contour>
  </outline>
</glyph>
<glyph name="w" format="1">
  <advance width="898"/>
  <unicode hex="0077"/>
  <outline>
    <contour>
      <point x="185" y="-5" type="line"/>
      <point x="235" y="-5" type="line"/>
      <point x="328" y="44"/>
      <point x="425" y="107"/>
      <point x="487" y="200" type="curve"/>
      <point x="488" y="196"/>
      <point x="489" y="193"/>
      <point x="490" y="189" type="curve"/>
      <point x="507" y="87" type="line"/>
      <point x="512" y="-5" type="line"/>
      <point x="562" y="-5" type="line"/>
      <point x="746" y="88"/>
      <point x="878" y="216"/>
      <point x="878" y="417" type="curve" smooth="yes"/>
      <point x="878" y="550"/>
      <point x="801" y="600"/>
      <point x="721" y="600" type="curve" smooth="yes"/>
      <point x="650" y="600"/>
      <point x="602" y="560"/>
      <point x="548" y="462" type="curve"/>
      <point x="532" y="561"/>
      <point x="464" y="600"/>
      <point x="394" y="600" type="curve" smooth="yes"/>
      <point x="325" y="600"/>
      <point x="278" y="562"/>
      <point x="225" y="470" type="curve"/>
      <point x="210" y="515"/>
      <point x="193" y="559"/>
      <point x="172" y="603" type="curve"/>
      <point x="-21" y="581" type="line"/>
      <point x="-21" y="529" type="line"/>
      <point x="38" y="537" type="line"/>
      <point x="66" y="491" type="line"/>
      <point x="109" y="398"/>
      <point x="138" y="282"/>
      <point x="165" y="189" type="curve"/>
      <point x="179" y="104" type="line"/>
    </contour>
    <contour>
      <point x="314" y="463" type="curve" smooth="yes"/>
      <point x="392" y="463"/>
      <point x="479" y="395"/>
      <point x="479" y="298" type="curve" smooth="yes"/>
      <point x="479" y="224"/>
      <point x="415" y="176"/>
      <point x="316" y="143" type="curve"/>
      <point x="291" y="239"/>
      <point x="268" y="337"/>
      <point x="238" y="433" type="curve"/>
      <point x="252" y="453"/>
      <point x="276" y="463"/>
    </contour>
    <contour>
      <point x="641" y="463" type="curve" smooth="yes"/>
      <point x="719" y="463"/>
      <point x="806" y="395"/>
      <point x="806" y="298" type="curve" smooth="yes"/>
      <point x="806" y="224"/>
      <point x="742" y="176"/>
      <point x="644" y="143" type="curve"/>
      <point x="622" y="248"/>
      <point x="595" y="344"/>
      <point x="562" y="430" type="curve"/>
      <point x="576" y="452"/>
      <point x="601" y="463"/>
    </contour>
  </outline>
</glyph>
<glyph name="x" format="1">
  <advance width="542"/>
  <unicode hex="0078"/>
  <outline>
    <contour>
      <point x="579" y="131" type="curve"/>
      <point x="556" y="149" type="line"/>
      <point x="531" y="120"/>
      <point x="496" y="107"/>
      <point x="455" y="107" type="curve" smooth="yes"/>
      <point x="364" y="107"/>
      <point x="256" y="186"/>
      <point x="256" y="316" type="curve" smooth="yes"/>
      <point x="256" y="344" type="line" smooth="yes"/>
      <point x="256" y="423"/>
      <point x="268" y="484"/>
      <point x="306" y="484" type="curve" smooth="yes"/>
      <point x="357" y="484"/>
      <point x="398" y="443"/>
      <point x="398" y="376" type="curve"/>
      <point x="406" y="373" type="line"/>
      <point x="452" y="403"/>
      <point x="511" y="453"/>
      <point x="512" y="491" type="curve" smooth="yes"/>
      <point x="512" y="541"/>
      <point x="457" y="595"/>
      <point x="404" y="595" type="curve" smooth="yes"/>
      <point x="373" y="595"/>
      <point x="323" y="568"/>
      <point x="233" y="483" type="curve"/>
      <point x="211" y="541"/>
      <point x="180" y="598"/>
      <point x="143" y="656" type="curve"/>
      <point x="3" y="579" type="line"/>
      <point x="113" y="400"/>
      <point x="141" y="308"/>
      <point x="141" y="195" type="curve" smooth="yes"/>
      <point x="141" y="101"/>
      <point x="120" y="17"/>
      <point x="-71" y="-128" type="curve"/>
      <point x="-57" y="-155" type="line"/>
      <point x="73" y="-74"/>
      <point x="156" y="24"/>
      <point x="202" y="102" type="curve"/>
      <point x="251" y="32"/>
      <point x="335" y="-13"/>
      <point x="395" y="-13" type="curve" smooth="yes"/>
      <point x="466" y="-13"/>
      <point x="517" y="31"/>
    </contour>
  </outline>
</glyph>
<glyph name="y" format="1">
  <advance width="531"/>
  <unicode hex="0079"/>
  <outline>
    <contour>
      <point x="486" y="-44" type="curve" smooth="yes"/>
      <point x="486" y="12"/>
      <point x="454" y="54"/>
      <point x="410" y="83" type="curve"/>
      <point x="389" y="65" type="line"/>
      <point x="414" y="45"/>
      <point x="425" y="29"/>
      <point x="425" y="15" type="curve" smooth="yes"/>
      <point x="425" y="-36"/>
      <point x="274" y="-95"/>
      <point x="134" y="-95" type="curve" smooth="yes"/>
      <point x="111" y="-95"/>
      <point x="97" y="-88"/>
      <point x="97" y="-72" type="curve" smooth="yes"/>
      <point x="97" y="29"/>
      <point x="515" y="73"/>
      <point x="515" y="405" type="curve" smooth="yes"/>
      <point x="515" y="530"/>
      <point x="445" y="600"/>
      <point x="358" y="600" type="curve" smooth="yes"/>
      <point x="289" y="600"/>
      <point x="241" y="556"/>
      <point x="198" y="478" type="curve"/>
      <point x="182" y="519"/>
      <point x="165" y="561"/>
      <point x="145" y="603" type="curve"/>
      <point x="-60" y="546" type="line"/>
      <point x="-60" y="494" type="line"/>
      <point x="29" y="522" type="line"/>
      <point x="49" y="491" type="line"/>
      <point x="90" y="391"/>
      <point x="116" y="302"/>
      <point x="143" y="206" type="curve"/>
      <point x="153" y="149" type="line"/>
      <point x="82" y="107"/>
      <point x="34" y="54"/>
      <point x="34" y="-20" type="curve" smooth="yes"/>
      <point x="34" y="-123"/>
      <point x="156" y="-186"/>
      <point x="295" y="-186" type="curve" smooth="yes"/>
      <point x="411" y="-186"/>
      <point x="486" y="-124"/>
    </contour>
    <contour>
      <point x="268" y="459" type="curve" smooth="yes"/>
      <point x="344" y="459"/>
      <point x="437" y="402"/>
      <point x="437" y="293" type="curve" smooth="yes"/>
      <point x="437" y="218"/>
      <point x="374" y="180"/>
      <point x="294" y="163" type="curve"/>
      <point x="268" y="258"/>
      <point x="243" y="350"/>
      <point x="210" y="443" type="curve"/>
      <point x="224" y="453"/>
      <point x="243" y="459"/>
    </contour>
  </outline>
</glyph>
<glyph name="z" format="1">
  <advance width="539"/>
  <unicode hex="007A"/>
  <outline>
    <contour>
      <point x="10" y="18" type="line"/>
      <point x="39" y="0" type="line"/>
      <point x="56" y="28"/>
      <point x="74" y="42"/>
      <point x="102" y="42" type="curve" smooth="yes"/>
      <point x="156" y="42"/>
      <point x="256" y="-13"/>
      <point x="356" y="-13" type="curve" smooth="yes"/>
      <point x="449" y="-13"/>
      <point x="524" y="54"/>
      <point x="524" y="161" type="curve" smooth="yes"/>
      <point x="524" y="221"/>
      <point x="491" y="291"/>
      <point x="440" y="348" type="curve"/>
      <point x="413" y="334" type="line"/>
      <point x="431" y="298"/>
      <point x="439" y="264"/>
      <point x="439" y="234" type="curve" smooth="yes"/>
      <point x="439" y="126"/>
      <point x="357" y="79"/>
      <point x="244" y="79" type="curve" smooth="yes"/>
      <point x="234" y="79"/>
      <point x="218" y="80"/>
      <point x="208" y="81" type="curve"/>
      <point x="515" y="578" type="line"/>
      <point x="487" y="593" type="line"/>
      <point x="465" y="567"/>
      <point x="439" y="552"/>
      <point x="378" y="552" type="curve" smooth="yes"/>
      <point x="344" y="552"/>
      <point x="298" y="557"/>
      <point x="236" y="567" type="curve" smooth="yes"/>
      <point x="87" y="591" type="line"/>
      <point x="76" y="504"/>
      <point x="64" y="436"/>
      <point x="38" y="342" type="curve"/>
      <point x="84" y="335" type="line"/>
      <point x="100" y="424" type="line"/>
      <point x="142" y="445"/>
      <point x="211" y="473"/>
      <point x="313" y="500" type="curve"/>
    </contour>
  </outline>
</glyph>
<glyph name="braceleft" format="1">
  <advance width="365"/>
  <unicode hex="007B"/>
  <outline>
    <contour>
      <point x="340" y="-112" type="curve"/>
      <point x="345" y="-84" type="line"/>
      <point x="259" y="-74"/>
      <point x="228" y="-59"/>
      <point x="228" y="-24" type="curve" smooth="yes"/>
      <point x="228" y="48"/>
      <point x="305" y="111"/>
      <point x="305" y="194" type="curve" smooth="yes"/>
      <point x="305" y="274"/>
      <point x="251" y="310"/>
      <point x="195" y="325" type="curve"/>
      <point x="251" y="341"/>
      <point x="305" y="377"/>
      <point x="305" y="457" type="curve" smooth="yes"/>
      <point x="305" y="540"/>
      <point x="228" y="603"/>
      <point x="228" y="675" type="curve" smooth="yes"/>
      <point x="228" y="710"/>
      <point x="259" y="725"/>
      <point x="345" y="735" type="curve"/>
      <point x="340" y="763" type="line"/>
      <point x="161" y="753"/>
      <point x="88" y="717"/>
      <point x="88" y="618" type="curve" smooth="yes"/>
      <point x="88" y="511"/>
      <point x="186" y="432"/>
      <point x="186" y="388" type="curve" smooth="yes"/>
      <point x="186" y="357"/>
      <point x="164" y="341"/>
      <point x="92" y="341" type="curve" smooth="yes"/>
      <point x="65" y="341" type="line"/>
      <point x="65" y="310" type="line"/>
      <point x="92" y="310" type="line" smooth="yes"/>
      <point x="164" y="310"/>
      <point x="186" y="294"/>
      <point x="186" y="263" type="curve" smooth="yes"/>
      <point x="186" y="219"/>
      <point x="88" y="140"/>
      <point x="88" y="33" type="curve" smooth="yes"/>
      <point x="88" y="-66"/>
      <point x="161" y="-102"/>
    </contour>
  </outline>
</glyph>
<glyph name="bar" format="1">
  <advance width="209"/>
  <unicode hex="007C"/>
  <outline>
    <contour>
      <point x="65" y="-115" type="line"/>
      <point x="144" y="-115" type="line"/>
      <point x="144" y="780" type="line"/>
      <point x="65" y="780" type="line"/>
    </contour>
  </outline>
</glyph>
<glyph name="cent" format="1">
  <advance width="382"/>
  <unicode hex="00A2"/>
  <outline>
    <contour>
      <point x="178" y="-121" type="line"/>
      <point x="214" y="-121" type="line"/>
      <point x="214" y="33" type="line"/>
      <point x="248" y="15"/>
      <point x="286" y="-1"/>
      <point x="328" y="-13" type="curve"/>
      <point x="362" y="166" type="line"/>
      <point x="304" y="181"/>
      <point x="255" y="194"/>
      <point x="214" y="208" type="curve"/>
      <point x="214" y="434" type="line"/>
      <point x="241" y="431"/>
      <point x="274" y="426"/>
      <point x="313" y="415" type="curve"/>
      <point x="336" y="593" type="line"/>
      <point x="292" y="593"/>
      <point x="251" y="587"/>
      <point x="214" y="575" type="curve"/>
      <point x="214" y="714" type="line"/>
      <point x="178" y="714" type="line"/>
      <point x="178" y="562" type="line"/>
      <point x="80" y="519"/>
      <point x="17" y="436"/>
      <point x="17" y="338" type="curve" smooth="yes"/>
      <point x="17" y="228"/>
      <point x="70" y="126"/>
      <point x="178" y="55" type="curve"/>
    </contour>
    <contour>
      <point x="56" y="352" type="curve" smooth="yes"/>
      <point x="56" y="406"/>
      <point x="100" y="436"/>
      <point x="176" y="436" type="curve" smooth="yes"/>
      <point x="178" y="436" type="line"/>
      <point x="178" y="222" type="line"/>
      <point x="93" y="256"/>
      <point x="56" y="294"/>
    </contour>
  </outline>
</glyph>
<glyph name="sterling" format="1">
  <advance width="550"/>
  <unicode hex="00A3"/>
  <outline>
    <contour>
      <point x="65" y="-30" type="line"/>
      <point x="77" y="-18"/>
      <point x="88" y="-7"/>
      <point x="99" y="4" type="curve"/>
      <point x="222" y="21"/>
      <point x="401" y="10"/>
      <point x="516" y="-12" type="curve"/>
      <point x="488" y="164" type="line"/>
      <point x="374" y="164"/>
      <point x="305" y="145"/>
      <point x="220" y="105" type="curve" smooth="yes"/>
      <point x="177" y="85" type="line"/>
      <point x="256" y="170"/>
      <point x="298" y="227"/>
      <point x="311" y="281" type="curve"/>
      <point x="469" y="281" type="line"/>
      <point x="469" y="324" type="line"/>
      <point x="316" y="324" type="line"/>
      <point x="316" y="340"/>
      <point x="314" y="356"/>
      <point x="309" y="373" type="curve"/>
      <point x="480" y="373" type="line"/>
      <point x="480" y="416" type="line"/>
      <point x="296" y="416" type="line"/>
      <point x="203" y="684" type="line"/>
      <point x="284" y="646"/>
      <point x="331" y="612"/>
      <point x="401" y="546" type="curve"/>
      <point x="497" y="667" type="line"/>
      <point x="446" y="720"/>
      <point x="385" y="756"/>
      <point x="305" y="763" type="curve"/>
      <point x="179" y="720"/>
      <point x="90" y="667"/>
      <point x="90" y="551" type="curve" smooth="yes"/>
      <point x="90" y="514"/>
      <point x="103" y="473"/>
      <point x="122" y="422" type="curve" smooth="yes"/>
      <point x="124" y="416" type="line"/>
      <point x="44" y="416" type="line"/>
      <point x="44" y="373" type="line"/>
      <point x="140" y="373" type="line"/>
      <point x="155" y="331" type="line" smooth="yes"/>
      <point x="156" y="329"/>
      <point x="157" y="326"/>
      <point x="158" y="324" type="curve"/>
      <point x="35" y="324" type="line"/>
      <point x="35" y="281" type="line"/>
      <point x="170" y="281" type="line"/>
      <point x="192" y="191"/>
      <point x="166" y="123"/>
      <point x="39" y="-6" type="curve"/>
    </contour>
  </outline>
</glyph>
<glyph name="currency" format="1">
  <advance width="708"/>
  <unicode hex="00A4"/>
  <outline>
    <contour>
      <point x="80" y="144" type="line"/>
      <point x="205" y="192" type="line"/>
      <point x="248" y="163"/>
      <point x="299" y="146"/>
      <point x="354" y="146" type="curve" smooth="yes"/>
      <point x="410" y="146"/>
      <point x="461" y="163"/>
      <point x="504" y="192" type="curve"/>
      <point x="628" y="144" type="line"/>
      <point x="586" y="280" type="line"/>
      <point x="609" y="320"/>
      <point x="622" y="366"/>
      <point x="622" y="415" type="curve" smooth="yes"/>
      <point x="622" y="466"/>
      <point x="608" y="513"/>
      <point x="584" y="554" type="curve"/>
      <point x="628" y="696" type="line"/>
      <point x="494" y="644" type="line"/>
      <point x="453" y="670"/>
      <point x="406" y="684"/>
      <point x="354" y="684" type="curve" smooth="yes"/>
      <point x="303" y="684"/>
      <point x="256" y="669"/>
      <point x="215" y="644" type="curve"/>
      <point x="80" y="696" type="line"/>
      <point x="125" y="553" type="line"/>
      <point x="100" y="513"/>
      <point x="86" y="465"/>
      <point x="86" y="415" type="curve" smooth="yes"/>
      <point x="86" y="366"/>
      <point x="99" y="320"/>
      <point x="123" y="281" type="curve"/>
    </contour>
    <contour>
      <point x="354" y="230" type="curve" smooth="yes"/>
      <point x="253" y="230"/>
      <point x="168" y="313"/>
      <point x="168" y="415" type="curve" smooth="yes"/>
      <point x="168" y="516"/>
      <point x="253" y="601"/>
      <point x="354" y="601" type="curve" smooth="yes"/>
      <point x="455" y="601"/>
      <point x="540" y="516"/>
      <point x="540" y="415" type="curve" smooth="yes"/>
      <point x="540" y="313"/>
      <point x="455" y="230"/>
    </contour>
  </outline>
</glyph>
<glyph name="yen" format="1">
  <advance width="786"/>
  <unicode hex="00A5"/>
  <outline>
    <contour>
      <point x="58" y="393" type="line"/>
      <point x="214" y="393" type="line"/>
      <point x="215" y="387"/>
      <point x="216" y="382"/>
      <point x="217" y="376" type="curve" smooth="yes"/>
      <point x="227" y="320" type="line"/>
      <point x="155" y="299"/>
      <point x="114" y="252"/>
      <point x="114" y="182" type="curve" smooth="yes"/>
      <point x="114" y="59"/>
      <point x="216" y="-13"/>
      <point x="382" y="-13" type="curve" smooth="yes"/>
      <point x="579" y="-13"/>
      <point x="692" y="88"/>
      <point x="692" y="218" type="curve" smooth="yes"/>
      <point x="692" y="276"/>
      <point x="650" y="318"/>
      <point x="594" y="341" type="curve"/>
      <point x="610" y="358"/>
      <point x="623" y="375"/>
      <point x="633" y="393" type="curve"/>
      <point x="755" y="393" type="line"/>
      <point x="755" y="440" type="line"/>
      <point x="655" y="440" type="line"/>
      <point x="661" y="458"/>
      <point x="665" y="475"/>
      <point x="668" y="493" type="curve"/>
      <point x="755" y="493" type="line"/>
      <point x="755" y="540" type="line"/>
      <point x="673" y="540" type="line"/>
      <point x="673" y="561" type="line" smooth="yes"/>
      <point x="673" y="672"/>
      <point x="596" y="763"/>
      <point x="482" y="763" type="curve" smooth="yes"/>
      <point x="390" y="763"/>
      <point x="322" y="689"/>
      <point x="307" y="591" type="curve"/>
      <point x="289" y="638"/>
      <point x="269" y="686"/>
      <point x="247" y="737" type="curve"/>
      <point x="101" y="716" type="line"/>
      <point x="21" y="705" type="line"/>
      <point x="39" y="654" type="line"/>
      <point x="100" y="664" type="line"/>
      <point x="120" y="629" type="line" smooth="yes"/>
      <point x="137" y="599"/>
      <point x="153" y="570"/>
      <point x="166" y="540" type="curve"/>
      <point x="58" y="540" type="line"/>
      <point x="58" y="493" type="line"/>
      <point x="185" y="493" type="line"/>
      <point x="191" y="475"/>
      <point x="197" y="458"/>
      <point x="202" y="440" type="curve"/>
      <point x="58" y="440" type="line"/>
    </contour>
    <contour>
      <point x="427" y="611" type="curve" smooth="yes"/>
      <point x="475" y="611"/>
      <point x="528" y="587"/>
      <point x="558" y="540" type="curve"/>
      <point x="327" y="540" type="line"/>
      <point x="340" y="588"/>
      <point x="380" y="611"/>
    </contour>
    <contour>
      <point x="581" y="457" type="curve" smooth="yes"/>
      <point x="581" y="451"/>
      <point x="581" y="445"/>
      <point x="580" y="440" type="curve"/>
      <point x="359" y="440" type="line"/>
      <point x="353" y="458"/>
      <point x="347" y="475"/>
      <point x="341" y="493" type="curve"/>
      <point x="577" y="493" type="line"/>
      <point x="580" y="482"/>
      <point x="581" y="470"/>
    </contour>
    <contour>
      <point x="390" y="332" type="line"/>
      <point x="384" y="352"/>
      <point x="379" y="373"/>
      <point x="373" y="393" type="curve"/>
      <point x="565" y="393" type="line"/>
      <point x="542" y="353"/>
      <point x="491" y="333"/>
      <point x="409" y="332" type="curve" smooth="yes"/>
    </contour>
    <contour>
      <point x="212" y="96" type="curve" smooth="yes"/>
      <point x="212" y="125"/>
      <point x="228" y="161"/>
      <point x="418" y="233" type="curve" smooth="yes"/>
      <point x="482" y="257"/>
      <point x="530" y="285"/>
      <point x="566" y="315" type="curve"/>
      <point x="571" y="299"/>
      <point x="573" y="284"/>
      <point x="573" y="269" type="curve" smooth="yes"/>
      <point x="573" y="142"/>
      <point x="407" y="57"/>
      <point x="273" y="57" type="curve" smooth="yes"/>
      <point x="231" y="57"/>
      <point x="212" y="72"/>
    </contour>
  </outline>
</glyph>
<glyph name="brokenbar" format="1">
  <advance width="209"/>
  <unicode hex="00A6"/>
  <outline>
    <contour>
      <point x="144" y="437" type="line"/>
      <point x="144" y="780" type="line"/>
      <point x="65" y="780" type="line"/>
      <point x="65" y="437" type="line"/>
    </contour>
    <contour>
      <point x="65" y="-115" type="line"/>
      <point x="144" y="-115" type="line"/>
      <point x="144" y="228" type="line"/>
      <point x="65" y="228" type="line"/>
    </contour>
  </outline>
</glyph>
<glyph name="section" format="1">
  <advance width="564"/>
  <unicode hex="00A7"/>
  <outline>
    <contour>
      <point x="514" y="45" type="curve" smooth="yes"/>
      <point x="514" y="116"/>
      <point x="473" y="164"/>
      <point x="418" y="200" type="curve"/>
      <point x="477" y="233"/>
      <point x="514" y="283"/>
      <point x="514" y="343" type="curve" smooth="yes"/>
      <point x="514" y="395"/>
      <point x="480" y="435"/>
      <point x="432" y="467" type="curve"/>
      <point x="452" y="518"/>
      <point x="503" y="553"/>
      <point x="503" y="629" type="curve" smooth="yes"/>
      <point x="503" y="695"/>
      <point x="409" y="763"/>
      <point x="282" y="763" type="curve" smooth="yes"/>
      <point x="152" y="763"/>
      <point x="50" y="684"/>
      <point x="50" y="596" type="curve" smooth="yes"/>
      <point x="50" y="523"/>
      <point x="93" y="475"/>
      <point x="150" y="438" type="curve"/>
      <point x="89" y="405"/>
      <point x="50" y="357"/>
      <point x="50" y="298" type="curve" smooth="yes"/>
      <point x="50" y="246"/>
      <point x="84" y="206"/>
      <point x="132" y="174" type="curve"/>
      <point x="112" y="123"/>
      <point x="61" y="88"/>
      <point x="61" y="12" type="curve" smooth="yes"/>
      <point x="61" y="-54"/>
      <point x="155" y="-122"/>
      <point x="282" y="-122" type="curve" smooth="yes"/>
      <point x="412" y="-122"/>
      <point x="514" y="-43"/>
    </contour>
    <contour>
      <point x="121" y="656" type="curve" smooth="yes"/>
      <point x="121" y="675"/>
      <point x="132" y="689"/>
      <point x="181" y="689" type="curve" smooth="yes"/>
      <point x="292" y="689"/>
      <point x="414" y="627"/>
      <point x="406" y="483" type="curve"/>
      <point x="290" y="551"/>
      <point x="121" y="588"/>
    </contour>
    <contour>
      <point x="141" y="376" type="curve" smooth="yes"/>
      <point x="141" y="399"/>
      <point x="159" y="412"/>
      <point x="196" y="413" type="curve"/>
      <point x="300" y="360"/>
      <point x="423" y="332"/>
      <point x="423" y="265" type="curve" smooth="yes"/>
      <point x="423" y="242"/>
      <point x="405" y="229"/>
      <point x="368" y="228" type="curve"/>
      <point x="264" y="281"/>
      <point x="141" y="309"/>
    </contour>
    <contour>
      <point x="443" y="-15" type="curve" smooth="yes"/>
      <point x="443" y="-34"/>
      <point x="432" y="-48"/>
      <point x="383" y="-48" type="curve" smooth="yes"/>
      <point x="273" y="-48"/>
      <point x="150" y="14"/>
      <point x="158" y="158" type="curve"/>
      <point x="274" y="90"/>
      <point x="443" y="53"/>
    </contour>
  </outline>
</glyph>
<glyph name="ordfeminine" format="1">
  <advance width="493"/>
  <unicode hex="00AA"/>
  <outline>
    <contour>
      <point x="298" y="218" type="line"/>
      <point x="456" y="228" type="line"/>
      <point x="438" y="376" type="line"/>
      <point x="440" y="424"/>
      <point x="443" y="504"/>
      <point x="443" y="570" type="curve" smooth="yes"/>
      <point x="443" y="639"/>
      <point x="440" y="706"/>
      <point x="435" y="758" type="curve"/>
      <point x="416" y="761"/>
      <point x="387" y="763"/>
      <point x="355" y="763" type="curve" smooth="yes"/>
      <point x="262" y="763"/>
      <point x="130" y="750"/>
      <point x="41" y="719" type="curve"/>
      <point x="52" y="619"/>
      <point x="78" y="523"/>
      <point x="130" y="448" type="curve"/>
      <point x="101" y="430"/>
      <point x="65" y="412"/>
      <point x="24" y="386" type="curve"/>
      <point x="18" y="299"/>
      <point x="64" y="217"/>
      <point x="166" y="217" type="curve" smooth="yes"/>
      <point x="225" y="217"/>
      <point x="271" y="247"/>
      <point x="298" y="313" type="curve"/>
    </contour>
    <contour>
      <point x="232" y="491" type="curve"/>
      <point x="231" y="493" type="line"/>
      <point x="168" y="539"/>
      <point x="129" y="577"/>
      <point x="97" y="629" type="curve"/>
      <point x="159" y="660"/>
      <point x="231" y="689"/>
      <point x="304" y="703" type="curve"/>
      <point x="304" y="567" type="line" smooth="yes"/>
      <point x="304" y="406"/>
      <point x="288" y="297"/>
      <point x="243" y="297" type="curve" smooth="yes"/>
      <point x="206" y="297"/>
      <point x="168" y="347"/>
      <point x="158" y="429" type="curve"/>
      <point x="189" y="454"/>
      <point x="208" y="468"/>
    </contour>
  </outline>
</glyph>
<glyph name="logicalnot" format="1">
  <advance width="550"/>
  <unicode hex="00AC"/>
  <outline>
    <contour>
      <point x="28" y="385" type="line"/>
      <point x="28" y="330" type="line"/>
      <point x="467" y="330" type="line"/>
      <point x="467" y="181" type="line"/>
      <point x="522" y="181" type="line"/>
      <point x="522" y="385" type="line"/>
    </contour>
  </outline>
</glyph>
<glyph name="registered" format="1">
  <advance width="838"/>
  <unicode hex="00AE"/>
  <outline>
    <contour>
      <point x="419" y="-14" type="curve" smooth="yes"/>
      <point x="633" y="-14"/>
      <point x="808" y="161"/>
      <point x="808" y="375" type="curve" smooth="yes"/>
      <point x="808" y="589"/>
      <point x="633" y="764"/>
      <point x="419" y="764" type="curve" smooth="yes"/>
      <point x="205" y="764"/>
      <point x="30" y="589"/>
      <point x="30" y="375" type="curve" smooth="yes"/>
      <point x="30" y="161"/>
      <point x="205" y="-14"/>
    </contour>
    <contour>
      <point x="419" y="38" type="curve" smooth="yes"/>
      <point x="234" y="38"/>
      <point x="83" y="190"/>
      <point x="83" y="375" type="curve" smooth="yes"/>
      <point x="83" y="560"/>
      <point x="234" y="711"/>
      <point x="419" y="711" type="curve" smooth="yes"/>
      <point x="604" y="711"/>
      <point x="756" y="560"/>
      <point x="756" y="375" type="curve" smooth="yes"/>
      <point x="756" y="190"/>
      <point x="604" y="38"/>
    </contour>
    <contour>
      <point x="294" y="132" type="line"/>
      <point x="404" y="132" type="line"/>
      <point x="399" y="278" type="line"/>
      <point x="407" y="279"/>
      <point x="414" y="281"/>
      <point x="420" y="282" type="curve"/>
      <point x="498" y="132" type="line"/>
      <point x="619" y="132" type="line"/>
      <point x="505" y="307" type="line"/>
      <point x="573" y="336"/>
      <point x="606" y="379"/>
      <point x="606" y="439" type="curve" smooth="yes"/>
      <point x="606" y="561"/>
      <point x="487" y="612"/>
      <point x="226" y="621" type="curve"/>
      <point x="293" y="525" type="line"/>
      <point x="314" y="384" type="line"/>
      <point x="312" y="357" type="line"/>
      <point x="220" y="257" type="line"/>
      <point x="304" y="264" type="line"/>
    </contour>
    <contour>
      <point x="426" y="359" type="curve" smooth="yes"/>
      <point x="397" y="361" type="line"/>
      <point x="396" y="389" type="line"/>
      <point x="402" y="509" type="line"/>
      <point x="495" y="496"/>
      <point x="567" y="467"/>
      <point x="567" y="417" type="curve" smooth="yes"/>
      <point x="567" y="384"/>
      <point x="546" y="350"/>
    </contour>
  </outline>
</glyph>
<glyph name="macron" format="1">
  <advance width="500"/>
  <unicode hex="00AF"/>
  <outline>
    <contour>
      <point x="84" y="708" type="line"/>
      <point x="416" y="708" type="line"/>
      <point x="416" y="765" type="line"/>
      <point x="84" y="765" type="line"/>
    </contour>
  </outline>
</glyph>
<glyph name="degree" format="1">
  <advance width="343"/>
  <unicode hex="00B0"/>
  <outline>
    <contour>
      <point x="172" y="474" type="curve" smooth="yes"/>
      <point x="251" y="474"/>
      <point x="316" y="539"/>
      <point x="316" y="619" type="curve" smooth="yes"/>
      <point x="316" y="698"/>
      <point x="251" y="763"/>
      <point x="172" y="763" type="curve" smooth="yes"/>
      <point x="92" y="763"/>
      <point x="27" y="698"/>
      <point x="27" y="619" type="curve" smooth="yes"/>
      <point x="27" y="539"/>
      <point x="92" y="474"/>
    </contour>
    <contour>
      <point x="172" y="524" type="curve" smooth="yes"/>
      <point x="119" y="524"/>
      <point x="77" y="567"/>
      <point x="77" y="619" type="curve" smooth="yes"/>
      <point x="77" y="672"/>
      <point x="119" y="714"/>
      <point x="172" y="714" type="curve" smooth="yes"/>
      <point x="225" y="714"/>
      <point x="267" y="672"/>
      <point x="267" y="619" type="curve" smooth="yes"/>
      <point x="267" y="567"/>
      <point x="225" y="524"/>
    </contour>
  </outline>
</glyph>
<glyph name="acute" format="1">
  <advance width="500"/>
  <unicode hex="00B4"/>
  <outline>
    <contour>
      <point x="183" y="655" type="line"/>
      <point x="392" y="868" type="line"/>
      <point x="241" y="868" type="line"/>
      <point x="158" y="655" type="line"/>
    </contour>
  </outline>
</glyph>
<glyph name="mu" format="1">
  <advance width="510"/>
  <unicode hex="00B5"/>
  <outline>
    <contour>
      <point x="15" y="100" type="curve" smooth="yes"/>
      <point x="15" y="-177" type="line"/>
      <point x="160" y="-177" type="line"/>
      <point x="160" y="-12" type="line"/>
      <point x="214" y="-6"/>
      <point x="273" y="37"/>
      <point x="321" y="105" type="curve"/>
      <point x="321" y="88" type="line"/>
      <point x="328" y="-21" type="line"/>
      <point x="492" y="13" type="line"/>
      <point x="470" y="164"/>
      <point x="458" y="345"/>
      <point x="458" y="421" type="curve" smooth="yes"/>
      <point x="458" y="492"/>
      <point x="469" y="554"/>
      <point x="472" y="593" type="curve"/>
      <point x="311" y="577" type="line"/>
      <point x="317" y="296" type="line"/>
      <point x="314" y="157"/>
      <point x="284" y="76"/>
      <point x="224" y="76" type="curve" smooth="yes"/>
      <point x="198" y="76"/>
      <point x="172" y="124"/>
      <point x="159" y="177" type="curve"/>
      <point x="178" y="593" type="line"/>
      <point x="17" y="577" type="line"/>
      <point x="28" y="304" type="line" smooth="yes"/>
      <point x="31" y="232"/>
      <point x="15" y="169"/>
    </contour>
  </outline>
</glyph>
<glyph name="paragraph" format="1">
  <advance width="588"/>
  <unicode hex="00B6"/>
  <outline>
    <contour>
      <point x="549" y="757" type="line"/>
      <point x="392" y="759" type="line"/>
      <point x="402" y="363" type="line"/>
      <point x="394" y="53" type="line"/>
      <point x="394" y="-102" type="line"/>
      <point x="403" y="-106" type="line"/>
      <point x="509" y="-7" type="line"/>
      <point x="537" y="-101" type="line"/>
      <point x="558" y="-98" type="line"/>
      <point x="539" y="369" type="line"/>
    </contour>
    <contour>
      <point x="342" y="757" type="line"/>
      <point x="165" y="745"/>
      <point x="59" y="653"/>
      <point x="59" y="504" type="curve" smooth="yes"/>
      <point x="59" y="381"/>
      <point x="141" y="278"/>
      <point x="308" y="270" type="curve"/>
      <point x="297" y="158"/>
      <point x="267" y="67"/>
      <point x="208" y="-31" type="curve"/>
      <point x="277" y="-79" type="line"/>
      <point x="346" y="70"/>
      <point x="367" y="180"/>
      <point x="352" y="523" type="curve" smooth="yes"/>
    </contour>
  </outline>
</glyph>
<glyph name="periodcentered" format="1">
  <advance width="348"/>
  <unicode hex="00B7"/>
  <outline>
    <contour>
      <point x="70" y="374" type="line"/>
      <point x="174" y="269" type="line"/>
      <point x="278" y="374" type="line"/>
      <point x="174" y="477" type="line"/>
    </contour>
  </outline>
</glyph>
<glyph name="cedilla" format="1">
  <advance width="500"/>
  <unicode hex="00B8"/>
  <outline>
    <contour>
      <point x="149" y="-148" type="line"/>
      <point x="175" y="-162" type="line"/>
      <point x="240" y="-104"/>
      <point x="273" y="-91"/>
      <point x="304" y="-91" type="curve" smooth="yes"/>
      <point x="333" y="-91"/>
      <point x="346" y="-106"/>
      <point x="346" y="-130" type="curve" smooth="yes"/>
      <point x="346" y="-163"/>
      <point x="317" y="-199"/>
      <point x="125" y="-230" type="curve"/>
      <point x="142" y="-318" type="line"/>
      <point x="324" y="-288"/>
      <point x="400" y="-254"/>
      <point x="400" y="-161" type="curve" smooth="yes"/>
      <point x="400" y="-99"/>
      <point x="359" y="-57"/>
      <point x="305" y="-57" type="curve" smooth="yes"/>
      <point x="275" y="-57"/>
      <point x="245" y="-67"/>
      <point x="213" y="-90" type="curve"/>
      <point x="274" y="44" type="line"/>
      <point x="240" y="50" type="line"/>
    </contour>
  </outline>
</glyph>
<glyph name="guillemotright" format="1">
  <advance width="541"/>
  <unicode hex="00BB"/>
  <outline>
    <contour>
      <point x="244" y="76" type="line"/>
      <point x="501" y="300" type="line"/>
      <point x="501" y="310" type="line"/>
      <point x="244" y="534" type="line"/>
      <point x="225" y="515" type="line"/>
      <point x="376" y="305" type="line"/>
      <point x="225" y="95" type="line"/>
    </contour>
    <contour>
      <point x="44" y="76" type="line"/>
      <point x="301" y="300" type="line"/>
      <point x="301" y="310" type="line"/>
      <point x="44" y="534" type="line"/>
      <point x="25" y="515" type="line"/>
      <point x="176" y="305" type="line"/>
      <point x="25" y="95" type="line"/>
    </contour>
  </outline>
</glyph>
<glyph name="questiondown" format="1">
  <advance width="583"/>
  <unicode hex="00BF"/>
  <outline>
    <contour>
      <point x="421" y="478" type="line"/>
      <point x="305" y="595" type="line"/>
      <point x="189" y="478" type="line"/>
      <point x="305" y="363" type="line"/>
    </contour>
    <contour>
      <point x="423" y="381" type="line"/>
      <point x="291" y="297" type="line" smooth="yes"/>
      <point x="108" y="181"/>
      <point x="62" y="109"/>
      <point x="62" y="3" type="curve" smooth="yes"/>
      <point x="62" y="-99"/>
      <point x="154" y="-186"/>
      <point x="294" y="-186" type="curve" smooth="yes"/>
      <point x="425" y="-186"/>
      <point x="524" y="-98"/>
      <point x="524" y="28" type="curve" smooth="yes"/>
      <point x="524" y="127"/>
      <point x="450" y="217"/>
      <point x="315" y="252" type="curve"/>
      <point x="322" y="257"/>
      <point x="330" y="263"/>
      <point x="338" y="268" type="curve" smooth="yes"/>
      <point x="449" y="339" type="line"/>
    </contour>
    <contour>
      <point x="478" y="32" type="curve" smooth="yes"/>
      <point x="478" y="-58"/>
      <point x="428" y="-102"/>
      <point x="362" y="-102" type="curve" smooth="yes"/>
      <point x="278" y="-102"/>
      <point x="215" y="-27"/>
      <point x="215" y="70" type="curve" smooth="yes"/>
      <point x="215" y="127"/>
      <point x="233" y="175"/>
      <point x="275" y="218" type="curve"/>
      <point x="416" y="188"/>
      <point x="478" y="109"/>
    </contour>
  </outline>
</glyph>
<glyph name="Aring" format="1">
  <advance width="690"/>
  <unicode hex="00C5"/>
  <outline>
    <contour>
      <point x="297" y="-15" type="curve"/>
      <point x="452" y="166" type="line"/>
      <point x="503" y="-9" type="line"/>
      <point x="680" y="2" type="line"/>
      <point x="426" y="752" type="line"/>
      <point x="454" y="774"/>
      <point x="472" y="808"/>
      <point x="472" y="846" type="curve" smooth="yes"/>
      <point x="472" y="912"/>
      <point x="416" y="966"/>
      <point x="347" y="966" type="curve" smooth="yes"/>
      <point x="279" y="966"/>
      <point x="223" y="912"/>
      <point x="223" y="846" type="curve" smooth="yes"/>
      <point x="223" y="810"/>
      <point x="239" y="778"/>
      <point x="265" y="756" type="curve"/>
      <point x="248" y="760"/>
      <point x="231" y="762"/>
      <point x="213" y="762" type="curve" smooth="yes"/>
      <point x="91" y="762"/>
      <point x="10" y="687"/>
      <point x="10" y="573" type="curve" smooth="yes"/>
      <point x="10" y="462"/>
      <point x="107" y="371"/>
      <point x="245" y="346" type="curve"/>
      <point x="197" y="292"/>
      <point x="134" y="241"/>
      <point x="64" y="198" type="curve"/>
      <point x="83" y="109"/>
      <point x="181" y="12"/>
    </contour>
    <contour>
      <point x="347" y="773" type="curve" smooth="yes"/>
      <point x="305" y="773"/>
      <point x="272" y="807"/>
      <point x="272" y="847" type="curve" smooth="yes"/>
      <point x="272" y="888"/>
      <point x="305" y="922"/>
      <point x="347" y="922" type="curve" smooth="yes"/>
      <point x="388" y="922"/>
      <point x="420" y="888"/>
      <point x="420" y="847" type="curve" smooth="yes"/>
      <point x="420" y="807"/>
      <point x="388" y="773"/>
    </contour>
    <contour>
      <point x="52" y="568" type="curve" smooth="yes"/>
      <point x="52" y="648"/>
      <point x="116" y="703"/>
      <point x="189" y="703" type="curve" smooth="yes"/>
      <point x="277" y="703"/>
      <point x="339" y="639"/>
      <point x="339" y="538" type="curve" smooth="yes"/>
      <point x="339" y="485"/>
      <point x="312" y="427"/>
      <point x="266" y="371" type="curve"/>
      <point x="131" y="394"/>
      <point x="52" y="474"/>
    </contour>
    <contour>
      <point x="377" y="426" type="curve"/>
      <point x="418" y="285" type="line"/>
      <point x="235" y="278" type="line"/>
      <point x="295" y="313"/>
      <point x="345" y="364"/>
    </contour>
    <contour>
      <point x="185" y="243" type="curve"/>
      <point x="430" y="243" type="line"/>
      <point x="442" y="202" type="line"/>
      <point x="365" y="112" type="line"/>
      <point x="272" y="152"/>
      <point x="223" y="190"/>
    </contour>
  </outline>
</glyph>
<glyph name="AE" format="1">
  <advance width="922"/>
  <unicode hex="00C6"/>
  <outline>
    <contour>
      <point x="301" y="-15" type="curve"/>
      <point x="368" y="64" type="line"/>
      <point x="478" y="188" type="line"/>
      <point x="547" y="107"/>
      <point x="637" y="35"/>
      <point x="732" y="-21" type="curve"/>
      <point x="806" y="6"/>
      <point x="868" y="44"/>
      <point x="914" y="94" type="curve"/>
      <point x="894" y="125" type="line"/>
      <point x="883" y="114"/>
      <point x="868" y="101"/>
      <point x="851" y="89" type="curve"/>
      <point x="759" y="151"/>
      <point x="678" y="222"/>
      <point x="614" y="298" type="curve"/>
      <point x="666" y="295"/>
      <point x="711" y="298"/>
      <point x="771" y="307" type="curve"/>
      <point x="875" y="437" type="line"/>
      <point x="871" y="441" type="line"/>
      <point x="770" y="429"/>
      <point x="727" y="426"/>
      <point x="631" y="437" type="curve"/>
      <point x="567" y="358" type="line"/>
      <point x="511" y="438"/>
      <point x="475" y="523"/>
      <point x="466" y="608" type="curve"/>
      <point x="558" y="606"/>
      <point x="644" y="601"/>
      <point x="762" y="587" type="curve"/>
      <point x="856" y="726" type="line"/>
      <point x="685" y="739"/>
      <point x="602" y="744"/>
      <point x="477" y="745" type="curve"/>
      <point x="479" y="751"/>
      <point x="480" y="756"/>
      <point x="482" y="762" type="curve"/>
      <point x="465" y="769" type="line"/>
      <point x="458" y="761"/>
      <point x="452" y="753"/>
      <point x="445" y="745" type="curve"/>
      <point x="427" y="722"/>
      <point x="410" y="697"/>
      <point x="396" y="670" type="curve"/>
      <point x="360" y="724"/>
      <point x="292" y="762"/>
      <point x="223" y="762" type="curve" smooth="yes"/>
      <point x="103" y="762"/>
      <point x="19" y="689"/>
      <point x="19" y="573" type="curve" smooth="yes"/>
      <point x="19" y="462"/>
      <point x="114" y="371"/>
      <point x="249" y="346" type="curve"/>
      <point x="201" y="293"/>
      <point x="138" y="241"/>
      <point x="68" y="198" type="curve"/>
      <point x="87" y="109"/>
      <point x="185" y="12"/>
    </contour>
    <contour>
      <point x="56" y="568" type="curve" smooth="yes"/>
      <point x="56" y="648"/>
      <point x="120" y="703"/>
      <point x="193" y="703" type="curve" smooth="yes"/>
      <point x="281" y="703"/>
      <point x="343" y="639"/>
      <point x="343" y="538" type="curve" smooth="yes"/>
      <point x="343" y="485"/>
      <point x="316" y="427"/>
      <point x="270" y="371" type="curve"/>
      <point x="135" y="394"/>
      <point x="56" y="474"/>
    </contour>
    <contour>
      <point x="359" y="388" type="curve"/>
      <point x="370" y="353"/>
      <point x="387" y="318"/>
      <point x="407" y="284" type="curve"/>
      <point x="243" y="278" type="line"/>
      <point x="289" y="305"/>
      <point x="329" y="343"/>
    </contour>
    <contour>
      <point x="191" y="252" type="line"/>
      <point x="192" y="252" type="line"/>
      <point x="191" y="251" type="line"/>
    </contour>
    <contour>
      <point x="196" y="243" type="curve"/>
      <point x="434" y="243" type="line"/>
      <point x="441" y="233"/>
      <point x="448" y="224"/>
      <point x="456" y="214" type="curve"/>
      <point x="364" y="107" type="line"/>
      <point x="283" y="145"/>
      <point x="232" y="183"/>
    </contour>
  </outline>
</glyph>
<glyph name="Eth" format="1">
  <advance width="704"/>
  <unicode hex="00D0"/>
  <outline>
    <contour>
      <point x="212" y="9" type="line" smooth="yes"/>
      <point x="533" y="44"/>
      <point x="660" y="186"/>
      <point x="660" y="354" type="curve" smooth="yes"/>
      <point x="660" y="597"/>
      <point x="395" y="764"/>
      <point x="-1" y="764" type="curve"/>
      <point x="133" y="592" type="line"/>
      <point x="151" y="420" type="line"/>
      <point x="44" y="420" type="line"/>
      <point x="44" y="340" type="line"/>
      <point x="153" y="340" type="line"/>
      <point x="141" y="161" type="line"/>
      <point x="8" y="-13" type="line"/>
    </contour>
    <contour>
      <point x="433" y="420" type="line"/>
      <point x="283" y="420" type="line"/>
      <point x="294" y="574" type="line"/>
      <point x="487" y="533"/>
      <point x="610" y="434"/>
      <point x="610" y="326" type="curve" smooth="yes"/>
      <point x="610" y="249"/>
      <point x="535" y="180"/>
      <point x="292" y="167" type="curve"/>
      <point x="282" y="340" type="line"/>
      <point x="433" y="340" type="line"/>
    </contour>
  </outline>
</glyph>
<glyph name="Thorn" format="1">
  <advance width="669"/>
  <unicode hex="00DE"/>
  <outline>
    <contour>
      <point x="181" y="0" type="line"/>
      <point x="345" y="-1" type="line"/>
      <point x="338" y="134" type="line"/>
      <point x="543" y="172"/>
      <point x="651" y="244"/>
      <point x="651" y="362" type="curve" smooth="yes"/>
      <point x="651" y="489"/>
      <point x="541" y="567"/>
      <point x="333" y="602" type="curve"/>
      <point x="339" y="763" type="line"/>
      <point x="165" y="715" type="line"/>
      <point x="174" y="619" type="line"/>
      <point x="126" y="622"/>
      <point x="74" y="624"/>
      <point x="18" y="624" type="curve"/>
      <point x="187" y="490" type="line"/>
      <point x="198" y="378" type="line"/>
      <point x="192" y="255" type="line"/>
      <point x="9" y="105" type="line"/>
      <point x="186" y="117" type="line"/>
    </contour>
    <contour>
      <point x="324" y="382" type="line"/>
      <point x="328" y="477" type="line"/>
      <point x="485" y="457"/>
      <point x="601" y="403"/>
      <point x="601" y="325" type="curve" smooth="yes"/>
      <point x="601" y="285"/>
      <point x="569" y="254"/>
      <point x="350" y="254" type="curve" smooth="yes"/>
      <point x="331" y="254" type="line"/>
    </contour>
  </outline>
</glyph>
<glyph name="germandbls" format="1">
  <advance width="671"/>
  <unicode hex="00DF"/>
  <outline>
    <contour>
      <point x="82" y="-18" type="line"/>
      <point x="244" y="0" type="line"/>
      <point x="244" y="499" type="line"/>
      <point x="175" y="546"/>
      <point x="160" y="588"/>
      <point x="160" y="626" type="curve" smooth="yes"/>
      <point x="160" y="659"/>
      <point x="185" y="686"/>
      <point x="228" y="686" type="curve" smooth="yes"/>
      <point x="307" y="686"/>
      <point x="387" y="630"/>
      <point x="387" y="568" type="curve" smooth="yes"/>
      <point x="387" y="503"/>
      <point x="333" y="442"/>
      <point x="333" y="365" type="curve" smooth="yes"/>
      <point x="333" y="315"/>
      <point x="358" y="282"/>
      <point x="392" y="255" type="curve"/>
      <point x="334" y="212"/>
      <point x="289" y="161"/>
      <point x="289" y="96" type="curve" smooth="yes"/>
      <point x="289" y="41"/>
      <point x="324" y="-14"/>
      <point x="414" y="-14" type="curve" smooth="yes"/>
      <point x="548" y="-14"/>
      <point x="670" y="59"/>
      <point x="670" y="164" type="curve" smooth="yes"/>
      <point x="670" y="343"/>
      <point x="411" y="367"/>
      <point x="411" y="484" type="curve" smooth="yes"/>
      <point x="411" y="577"/>
      <point x="479" y="611"/>
      <point x="479" y="670" type="curve" smooth="yes"/>
      <point x="479" y="745"/>
      <point x="398" y="789"/>
      <point x="338" y="789" type="curve" smooth="yes"/>
      <point x="213" y="789"/>
      <point x="73" y="630"/>
      <point x="73" y="534" type="curve" smooth="yes"/>
      <point x="73" y="520"/>
      <point x="76" y="509"/>
      <point x="84" y="499" type="curve"/>
      <point x="15" y="499" type="line"/>
      <point x="15" y="451" type="line"/>
      <point x="99" y="451" type="line"/>
      <point x="99" y="174" type="line"/>
    </contour>
    <contour>
      <point x="362" y="163" type="curve" smooth="yes"/>
      <point x="362" y="185"/>
      <point x="398" y="202"/>
      <point x="470" y="206" type="curve"/>
      <point x="527" y="175"/>
      <point x="579" y="144"/>
      <point x="579" y="86" type="curve" smooth="yes"/>
      <point x="579" y="68"/>
      <point x="567" y="59"/>
      <point x="543" y="59" type="curve" smooth="yes"/>
      <point x="475" y="59"/>
      <point x="362" y="114"/>
    </contour>
  </outline>
</glyph>
<glyph name="ae" format="1">
  <advance width="771"/>
  <unicode hex="00E6"/>
  <outline>
    <contour>
      <point x="732" y="166" type="line"/>
      <point x="577" y="189"/>
      <point x="471" y="228"/>
      <point x="418" y="273" type="curve"/>
      <point x="764" y="364" type="line"/>
      <point x="764" y="410" type="line"/>
      <point x="736" y="402" type="line"/>
      <point x="684" y="446"/>
      <point x="670" y="477"/>
      <point x="670" y="504" type="curve" smooth="yes"/>
      <point x="670" y="533"/>
      <point x="685" y="566"/>
      <point x="710" y="583" type="curve"/>
      <point x="680" y="616" type="line"/>
      <point x="636" y="570" type="line"/>
      <point x="608" y="580"/>
      <point x="522" y="595"/>
      <point x="424" y="595" type="curve" smooth="yes"/>
      <point x="184" y="595"/>
      <point x="20" y="483"/>
      <point x="20" y="225" type="curve" smooth="yes"/>
      <point x="20" y="60"/>
      <point x="82" y="-11"/>
      <point x="163" y="-11" type="curve" smooth="yes"/>
      <point x="238" y="-11"/>
      <point x="329" y="68"/>
      <point x="390" y="181" type="curve"/>
      <point x="441" y="93"/>
      <point x="544" y="32"/>
      <point x="698" y="-13" type="curve"/>
    </contour>
    <contour>
      <point x="180" y="284" type="curve" smooth="yes"/>
      <point x="180" y="488"/>
      <point x="215" y="536"/>
      <point x="272" y="536" type="curve" smooth="yes"/>
      <point x="315" y="536"/>
      <point x="348" y="503"/>
      <point x="412" y="488" type="curve"/>
      <point x="372" y="439"/>
      <point x="338" y="391"/>
      <point x="338" y="274" type="curve" smooth="yes"/>
      <point x="339" y="130"/>
      <point x="288" y="83"/>
      <point x="260" y="83" type="curve" smooth="yes"/>
      <point x="214" y="83"/>
      <point x="180" y="125"/>
    </contour>
    <contour>
      <point x="377" y="346" type="curve" smooth="yes"/>
      <point x="377" y="413"/>
      <point x="436" y="462"/>
      <point x="548" y="451" type="curve"/>
      <point x="552" y="417"/>
      <point x="562" y="389"/>
      <point x="579" y="361" type="curve"/>
      <point x="386" y="310" type="line"/>
      <point x="380" y="322"/>
      <point x="377" y="334"/>
    </contour>
  </outline>
</glyph>
<glyph name="eth" format="1">
  <advance width="581"/>
  <unicode hex="00F0"/>
  <outline>
    <contour>
      <point x="547" y="329" type="curve" smooth="yes"/>
      <point x="547" y="459"/>
      <point x="459" y="568"/>
      <point x="313" y="661" type="curve"/>
      <point x="434" y="713" type="line"/>
      <point x="414" y="752" type="line"/>
      <point x="268" y="688" type="line"/>
      <point x="207" y="723"/>
      <point x="137" y="754"/>
      <point x="62" y="784" type="curve"/>
      <point x="51" y="764" type="line"/>
      <point x="105" y="724"/>
      <point x="151" y="688"/>
      <point x="190" y="654" type="curve"/>
      <point x="64" y="599" type="line"/>
      <point x="81" y="560" type="line"/>
      <point x="225" y="623" type="line"/>
      <point x="248" y="601"/>
      <point x="269" y="580"/>
      <point x="286" y="560" type="curve"/>
      <point x="97" y="474"/>
      <point x="28" y="357"/>
      <point x="28" y="246" type="curve" smooth="yes"/>
      <point x="28" y="129"/>
      <point x="102" y="40"/>
      <point x="226" y="-15" type="curve"/>
      <point x="390" y="56"/>
      <point x="547" y="144"/>
    </contour>
    <contour>
      <point x="170" y="305" type="curve" smooth="yes"/>
      <point x="170" y="402"/>
      <point x="203" y="477"/>
      <point x="312" y="527" type="curve"/>
      <point x="362" y="457"/>
      <point x="383" y="387"/>
      <point x="383" y="293" type="curve" smooth="yes"/>
      <point x="383" y="213"/>
      <point x="368" y="139"/>
      <point x="327" y="83" type="curve"/>
      <point x="246" y="124"/>
      <point x="170" y="202"/>
    </contour>
  </outline>
</glyph>
<glyph name="oslash" format="1">
  <advance width="536"/>
  <unicode hex="00F8"/>
  <outline>
    <contour>
      <point x="298" y="621" type="line"/>
      <point x="257" y="586"/>
      <point x="222" y="555"/>
      <point x="178" y="511" type="curve"/>
      <point x="92" y="426"/>
      <point x="20" y="330"/>
      <point x="20" y="239" type="curve" smooth="yes"/>
      <point x="20" y="185"/>
      <point x="38" y="140"/>
      <point x="69" y="103" type="curve"/>
      <point x="-6" y="19" type="line"/>
      <point x="25" y="-6" type="line"/>
      <point x="97" y="75" type="line"/>
      <point x="142" y="36"/>
      <point x="204" y="7"/>
      <point x="276" y="-15" type="curve"/>
      <point x="360" y="27"/>
      <point x="532" y="86"/>
      <point x="532" y="225" type="curve" smooth="yes"/>
      <point x="532" y="306"/>
      <point x="471" y="373"/>
      <point x="410" y="427" type="curve"/>
      <point x="507" y="536" type="line"/>
      <point x="479" y="560" type="line"/>
      <point x="382" y="451" type="line"/>
      <point x="333" y="492"/>
      <point x="291" y="524"/>
      <point x="291" y="546" type="curve" smooth="yes"/>
      <point x="291" y="563"/>
      <point x="303" y="574"/>
      <point x="325" y="593" type="curve"/>
    </contour>
    <contour>
      <point x="151" y="355" type="curve" smooth="yes"/>
      <point x="151" y="385"/>
      <point x="154" y="416"/>
      <point x="165" y="446" type="curve"/>
      <point x="208" y="415"/>
      <point x="250" y="380"/>
      <point x="285" y="344" type="curve"/>
      <point x="181" y="227" type="line"/>
      <point x="160" y="264"/>
      <point x="151" y="306"/>
    </contour>
    <contour>
      <point x="388" y="147" type="curve" smooth="yes"/>
      <point x="388" y="114"/>
      <point x="381" y="89"/>
      <point x="373" y="72" type="curve"/>
      <point x="295" y="110"/>
      <point x="239" y="149"/>
      <point x="203" y="194" type="curve"/>
      <point x="311" y="316" type="line"/>
      <point x="360" y="259"/>
      <point x="388" y="202"/>
    </contour>
  </outline>
</glyph>
<glyph name="Aogonek" format="1">
  <advance width="690"/>
  <unicode hex="0104"/>
  <outline>
    <contour>
      <point x="297" y="-15" type="curve"/>
      <point x="452" y="166" type="line"/>
      <point x="504" y="-10" type="line"/>
      <point x="435" y="-48"/>
      <point x="403" y="-98"/>
      <point x="403" y="-150" type="curve" smooth="yes"/>
      <point x="403" y="-212"/>
      <point x="459" y="-266"/>
      <point x="558" y="-266" type="curve" smooth="yes"/>
      <point x="604" y="-266"/>
      <point x="643" y="-258"/>
      <point x="676" y="-246" type="curve"/>
      <point x="676" y="-123" type="line"/>
      <point x="624" y="-141"/>
      <point x="586" y="-149"/>
      <point x="547" y="-149" type="curve" smooth="yes"/>
      <point x="507" y="-149"/>
      <point x="481" y="-130"/>
      <point x="481" y="-103" type="curve" smooth="yes"/>
      <point x="481" y="-59"/>
      <point x="516" y="-23"/>
      <point x="641" y="-4" type="curve" smooth="yes"/>
      <point x="680" y="2" type="line"/>
      <point x="422" y="766" type="line"/>
      <point x="327" y="730" type="line"/>
      <point x="294" y="750"/>
      <point x="254" y="762"/>
      <point x="213" y="762" type="curve" smooth="yes"/>
      <point x="91" y="762"/>
      <point x="10" y="687"/>
      <point x="10" y="573" type="curve" smooth="yes"/>
      <point x="10" y="462"/>
      <point x="107" y="371"/>
      <point x="245" y="346" type="curve"/>
      <point x="197" y="292"/>
      <point x="134" y="241"/>
      <point x="64" y="198" type="curve"/>
      <point x="83" y="109"/>
      <point x="181" y="12"/>
    </contour>
    <contour>
      <point x="52" y="568" type="curve" smooth="yes"/>
      <point x="52" y="648"/>
      <point x="116" y="703"/>
      <point x="189" y="703" type="curve" smooth="yes"/>
      <point x="277" y="703"/>
      <point x="339" y="639"/>
      <point x="339" y="538" type="curve" smooth="yes"/>
      <point x="339" y="485"/>
      <point x="312" y="427"/>
      <point x="266" y="371" type="curve"/>
      <point x="131" y="394"/>
      <point x="52" y="474"/>
    </contour>
    <contour>
      <point x="377" y="426" type="curve"/>
      <point x="418" y="285" type="line"/>
      <point x="235" y="278" type="line"/>
      <point x="295" y="313"/>
      <point x="345" y="364"/>
    </contour>
    <contour>
      <point x="185" y="243" type="curve"/>
      <point x="430" y="243" type="line"/>
      <point x="442" y="202" type="line"/>
      <point x="365" y="112" type="line"/>
      <point x="272" y="152"/>
      <point x="223" y="190"/>
    </contour>
  </outline>
</glyph>
<glyph name="aogonek" format="1">
  <advance width="493"/>
  <unicode hex="0105"/>
  <outline>
    <contour>
      <point x="355" y="-268" type="curve" smooth="yes"/>
      <point x="401" y="-268"/>
      <point x="440" y="-260"/>
      <point x="473" y="-248" type="curve"/>
      <point x="473" y="-125" type="line"/>
      <point x="421" y="-143"/>
      <point x="383" y="-151"/>
      <point x="344" y="-151" type="curve" smooth="yes"/>
      <point x="304" y="-151"/>
      <point x="278" y="-132"/>
      <point x="278" y="-105" type="curve" smooth="yes"/>
      <point x="278" y="-64"/>
      <point x="315" y="-26"/>
      <point x="436" y="-6" type="curve" smooth="yes"/>
      <point x="467" y="-1" type="line"/>
      <point x="448" y="163" type="line"/>
      <point x="450" y="217"/>
      <point x="454" y="306"/>
      <point x="454" y="379" type="curve" smooth="yes"/>
      <point x="454" y="456"/>
      <point x="451" y="530"/>
      <point x="445" y="588" type="curve"/>
      <point x="425" y="591"/>
      <point x="395" y="593"/>
      <point x="361" y="593" type="curve" smooth="yes"/>
      <point x="263" y="593"/>
      <point x="124" y="579"/>
      <point x="30" y="544" type="curve"/>
      <point x="42" y="433"/>
      <point x="69" y="327"/>
      <point x="124" y="243" type="curve"/>
      <point x="94" y="223"/>
      <point x="56" y="203"/>
      <point x="13" y="174" type="curve"/>
      <point x="6" y="78"/>
      <point x="55" y="-13"/>
      <point x="162" y="-13" type="curve" smooth="yes"/>
      <point x="224" y="-13"/>
      <point x="273" y="20"/>
      <point x="301" y="93" type="curve"/>
      <point x="301" y="-12" type="line"/>
      <point x="229" y="-48"/>
      <point x="200" y="-101"/>
      <point x="200" y="-152" type="curve" smooth="yes"/>
      <point x="200" y="-214"/>
      <point x="256" y="-268"/>
    </contour>
    <contour>
      <point x="232" y="291" type="curve"/>
      <point x="231" y="293" type="line"/>
      <point x="164" y="344"/>
      <point x="123" y="387"/>
      <point x="89" y="444" type="curve"/>
      <point x="155" y="479"/>
      <point x="231" y="511"/>
      <point x="307" y="527" type="curve"/>
      <point x="307" y="376" type="line" smooth="yes"/>
      <point x="307" y="197"/>
      <point x="291" y="76"/>
      <point x="243" y="76" type="curve" smooth="yes"/>
      <point x="204" y="76"/>
      <point x="164" y="131"/>
      <point x="154" y="222" type="curve"/>
      <point x="186" y="250"/>
      <point x="206" y="265"/>
    </contour>
  </outline>
</glyph>
<glyph name="dcroat" format="1">
  <advance width="547"/>
  <unicode hex="0111"/>
  <outline>
    <contour>
      <point x="191" y="648" type="line"/>
      <point x="347" y="648" type="line"/>
      <point x="349" y="590" type="line"/>
      <point x="134" y="555"/>
      <point x="21" y="443"/>
      <point x="21" y="223" type="curve" smooth="yes"/>
      <point x="21" y="58"/>
      <point x="83" y="-13"/>
      <point x="164" y="-13" type="curve" smooth="yes"/>
      <point x="226" y="-13"/>
      <point x="300" y="48"/>
      <point x="358" y="128" type="curve"/>
      <point x="358" y="-11" type="line"/>
      <point x="517" y="-1" type="line"/>
      <point x="502" y="158"/>
      <point x="495" y="320"/>
      <point x="495" y="553" type="curve"/>
      <point x="499" y="648" type="line"/>
      <point x="558" y="648" type="line"/>
      <point x="558" y="695" type="line"/>
      <point x="500" y="695" type="line"/>
      <point x="503" y="764" type="line"/>
      <point x="346" y="764" type="line"/>
      <point x="346" y="757" type="line"/>
      <point x="345" y="757" type="line"/>
      <point x="346" y="695" type="line"/>
      <point x="191" y="695" type="line"/>
    </contour>
    <contour>
      <point x="181" y="282" type="curve" smooth="yes"/>
      <point x="181" y="476"/>
      <point x="217" y="531"/>
      <point x="276" y="531" type="curve" smooth="yes"/>
      <point x="302" y="531"/>
      <point x="326" y="526"/>
      <point x="350" y="518" type="curve"/>
      <point x="354" y="354" type="line"/>
      <point x="354" y="132"/>
      <point x="294" y="86"/>
      <point x="261" y="86" type="curve" smooth="yes"/>
      <point x="215" y="86"/>
      <point x="181" y="127"/>
    </contour>
  </outline>
</glyph>
<glyph name="eogonek" format="1">
  <advance width="449"/>
  <unicode hex="0119"/>
  <outline>
    <contour>
      <point x="294" y="-268" type="curve" smooth="yes"/>
      <point x="337" y="-268"/>
      <point x="373" y="-259"/>
      <point x="404" y="-248" type="curve"/>
      <point x="404" y="-125" type="line"/>
      <point x="355" y="-142"/>
      <point x="320" y="-151"/>
      <point x="283" y="-151" type="curve" smooth="yes"/>
      <point x="248" y="-151"/>
      <point x="226" y="-132"/>
      <point x="226" y="-105" type="curve" smooth="yes"/>
      <point x="226" y="-83"/>
      <point x="238" y="-46"/>
      <point x="383" y="-13" type="curve"/>
      <point x="417" y="166" type="line"/>
      <point x="246" y="194"/>
      <point x="143" y="230"/>
      <point x="94" y="276" type="curve"/>
      <point x="439" y="366" type="line"/>
      <point x="431" y="410" type="line"/>
      <point x="405" y="403" type="line"/>
      <point x="355" y="443"/>
      <point x="333" y="489"/>
      <point x="333" y="528" type="curve" smooth="yes"/>
      <point x="333" y="561"/>
      <point x="348" y="590"/>
      <point x="376" y="608" type="curve"/>
      <point x="352" y="635" type="line"/>
      <point x="304" y="593" type="line"/>
      <point x="143" y="593"/>
      <point x="20" y="481"/>
      <point x="20" y="329" type="curve" smooth="yes"/>
      <point x="20" y="173"/>
      <point x="114" y="69"/>
      <point x="319" y="5" type="curve"/>
      <point x="195" y="-26"/>
      <point x="148" y="-90"/>
      <point x="148" y="-152" type="curve" smooth="yes"/>
      <point x="148" y="-214"/>
      <point x="201" y="-268"/>
    </contour>
    <contour>
      <point x="59" y="350" type="curve" smooth="yes"/>
      <point x="59" y="412"/>
      <point x="105" y="456"/>
      <point x="173" y="456" type="curve" smooth="yes"/>
      <point x="187" y="456"/>
      <point x="202" y="454"/>
      <point x="218" y="450" type="curve"/>
      <point x="220" y="415"/>
      <point x="229" y="390"/>
      <point x="250" y="362" type="curve"/>
      <point x="66" y="314" type="line"/>
      <point x="61" y="326"/>
      <point x="59" y="338"/>
    </contour>
  </outline>
</glyph>
<glyph name="Hbar" format="1">
  <advance width="704"/>
  <unicode hex="0126"/>
  <outline>
    <contour>
      <point x="55" y="0" type="line"/>
      <point x="227" y="0" type="line"/>
      <point x="217" y="301" type="line"/>
      <point x="490" y="301" type="line"/>
      <point x="475" y="0" type="line"/>
      <point x="647" y="0" type="line"/>
      <point x="635" y="378" type="line"/>
      <point x="644" y="563" type="line"/>
      <point x="698" y="563" type="line"/>
      <point x="698" y="610" type="line"/>
      <point x="647" y="610" type="line"/>
      <point x="649" y="651" type="line"/>
      <point x="649" y="750" type="line"/>
      <point x="479" y="750" type="line"/>
      <point x="485" y="610" type="line"/>
      <point x="227" y="610" type="line"/>
      <point x="229" y="651" type="line"/>
      <point x="229" y="750" type="line"/>
      <point x="59" y="750" type="line"/>
      <point x="65" y="610" type="line"/>
      <point x="10" y="610" type="line"/>
      <point x="10" y="563" type="line"/>
      <point x="67" y="563" type="line"/>
      <point x="74" y="378" type="line"/>
    </contour>
    <contour>
      <point x="219" y="465" type="line"/>
      <point x="224" y="563" type="line"/>
      <point x="487" y="563" type="line"/>
      <point x="490" y="465" type="line"/>
    </contour>
    <contour>
      <point x="215" y="378" type="line"/>
      <point x="217" y="411" type="line"/>
      <point x="493" y="411" type="line"/>
      <point x="494" y="378" type="line"/>
      <point x="493" y="355" type="line"/>
      <point x="216" y="355" type="line"/>
    </contour>
  </outline>
</glyph>
<glyph name="hbar" format="1">
  <advance width="538"/>
  <unicode hex="0127"/>
  <outline>
    <contour>
      <point x="39" y="0" type="line"/>
      <point x="196" y="0" type="line"/>
      <point x="191" y="186" type="line"/>
      <point x="194" y="383"/>
      <point x="222" y="497"/>
      <point x="280" y="497" type="curve" smooth="yes"/>
      <point x="310" y="497"/>
      <point x="343" y="452"/>
      <point x="356" y="403" type="curve"/>
      <point x="337" y="0" type="line"/>
      <point x="498" y="0" type="line"/>
      <point x="487" y="276" type="line" smooth="yes"/>
      <point x="485" y="326"/>
      <point x="508" y="420"/>
      <point x="523" y="461" type="curve"/>
      <point x="482" y="551"/>
      <point x="417" y="595"/>
      <point x="359" y="595" type="curve" smooth="yes"/>
      <point x="301" y="595"/>
      <point x="237" y="559"/>
      <point x="188" y="455" type="curve"/>
      <point x="194" y="628" type="line"/>
      <point x="343" y="628" type="line"/>
      <point x="343" y="675" type="line"/>
      <point x="194" y="675" type="line"/>
      <point x="194" y="784" type="line"/>
      <point x="185" y="788" type="line"/>
      <point x="79" y="689" type="line"/>
      <point x="51" y="783" type="line"/>
      <point x="30" y="780" type="line"/>
      <point x="35" y="675" type="line"/>
      <point x="-24" y="675" type="line"/>
      <point x="-24" y="628" type="line"/>
      <point x="37" y="628" type="line"/>
      <point x="49" y="378" type="line"/>
    </contour>
  </outline>
</glyph>
<glyph name="iogonek" format="1">
  <advance width="237"/>
  <unicode hex="012F"/>
  <outline>
    <contour>
      <point x="212" y="865" type="curve"/>
      <point x="205" y="873"/>
      <point x="190" y="878"/>
      <point x="176" y="876" type="curve"/>
      <point x="158" y="793" type="line"/>
      <point x="122" y="793"/>
      <point x="75" y="794"/>
      <point x="26" y="770" type="curve"/>
      <point x="11" y="682"/>
      <point x="64" y="600"/>
      <point x="140" y="600" type="curve"/>
      <point x="159" y="670"/>
      <point x="194" y="799"/>
    </contour>
    <contour>
      <point x="200" y="0" type="line"/>
      <point x="200" y="183"/>
      <point x="195" y="366"/>
      <point x="185" y="547" type="curve"/>
      <point x="26" y="521" type="line"/>
      <point x="59" y="302" type="line"/>
      <point x="39" y="0" type="line"/>
      <point x="92" y="0" type="line"/>
      <point x="0" y="-35"/>
      <point x="-36" y="-95"/>
      <point x="-36" y="-152" type="curve" smooth="yes"/>
      <point x="-36" y="-214"/>
      <point x="20" y="-268"/>
      <point x="119" y="-268" type="curve" smooth="yes"/>
      <point x="165" y="-268"/>
      <point x="204" y="-260"/>
      <point x="237" y="-248" type="curve"/>
      <point x="237" y="-125" type="line"/>
      <point x="185" y="-143"/>
      <point x="147" y="-151"/>
      <point x="108" y="-151" type="curve" smooth="yes"/>
      <point x="68" y="-151"/>
      <point x="42" y="-132"/>
      <point x="42" y="-105" type="curve" smooth="yes"/>
      <point x="42" y="-80"/>
      <point x="53" y="-33"/>
      <point x="198" y="0" type="curve"/>
    </contour>
  </outline>
</glyph>
<glyph name="dotlessi" format="1">
  <advance width="238"/>
  <unicode hex="0131"/>
  <outline>
    <contour>
      <point x="207" y="0" type="line"/>
      <point x="192" y="593" type="line"/>
      <point x="33" y="582" type="line"/>
      <point x="56" y="302" type="line"/>
      <point x="31" y="0" type="line"/>
    </contour>
  </outline>
</glyph>
<glyph name="lslash" format="1">
  <advance width="226"/>
  <unicode hex="0142"/>
  <outline>
    <contour>
      <point x="39" y="0" type="line"/>
      <point x="196" y="0" type="line"/>
      <point x="186" y="384" type="line"/>
      <point x="187" y="417" type="line"/>
      <point x="265" y="457" type="line"/>
      <point x="265" y="510" type="line"/>
      <point x="189" y="470" type="line"/>
      <point x="194" y="629" type="line"/>
      <point x="194" y="784" type="line"/>
      <point x="185" y="788" type="line"/>
      <point x="79" y="689" type="line"/>
      <point x="51" y="783" type="line"/>
      <point x="30" y="780" type="line"/>
      <point x="48" y="397" type="line"/>
      <point x="-24" y="360" type="line"/>
      <point x="-24" y="307" type="line"/>
      <point x="48" y="344" type="line"/>
    </contour>
  </outline>
</glyph>
<glyph name="OE" format="1">
  <advance width="950"/>
  <unicode hex="0152"/>
  <outline>
    <contour>
      <point x="871" y="121" type="line"/>
      <point x="774" y="126"/>
      <point x="681" y="136"/>
      <point x="594" y="150" type="curve"/>
      <point x="579" y="301" type="line"/>
      <point x="659" y="291"/>
      <point x="713" y="293"/>
      <point x="793" y="305" type="curve"/>
      <point x="897" y="435" type="line"/>
      <point x="893" y="439" type="line"/>
      <point x="836" y="432"/>
      <point x="797" y="428"/>
      <point x="757" y="428" type="curve"/>
      <point x="916" y="664" type="line"/>
      <point x="943" y="705" type="line"/>
      <point x="736" y="721"/>
      <point x="609" y="763"/>
      <point x="449" y="763" type="curve" smooth="yes"/>
      <point x="171" y="763"/>
      <point x="24" y="609"/>
      <point x="24" y="416" type="curve" smooth="yes"/>
      <point x="24" y="133"/>
      <point x="357" y="3"/>
      <point x="803" y="-30" type="curve"/>
    </contour>
    <contour>
      <point x="81" y="470" type="curve" smooth="yes"/>
      <point x="81" y="589"/>
      <point x="166" y="654"/>
      <point x="306" y="654" type="curve" smooth="yes"/>
      <point x="349" y="654"/>
      <point x="391" y="650"/>
      <point x="434" y="644" type="curve"/>
      <point x="447" y="368" type="line"/>
      <point x="434" y="183" type="line"/>
      <point x="222" y="239"/>
      <point x="81" y="332"/>
    </contour>
    <contour>
      <point x="572" y="368" type="line"/>
      <point x="588" y="614" type="line"/>
      <point x="661" y="598"/>
      <point x="738" y="581"/>
      <point x="820" y="570" type="curve"/>
      <point x="724" y="429" type="line"/>
      <point x="703" y="430"/>
      <point x="680" y="432"/>
      <point x="653" y="435" type="curve"/>
      <point x="575" y="339" type="line"/>
    </contour>
  </outline>
</glyph>
<glyph name="tbar" format="1">
  <advance width="463"/>
  <unicode hex="0167"/>
  <outline>
    <contour>
      <point x="356" y="306" type="line"/>
      <point x="356" y="353" type="line"/>
      <point x="238" y="340" type="line"/>
      <point x="241" y="476" type="line"/>
      <point x="426" y="476" type="line"/>
      <point x="435" y="509"/>
      <point x="444" y="550"/>
      <point x="447" y="573" type="curve"/>
      <point x="241" y="573" type="line"/>
      <point x="239" y="702" type="line"/>
      <point x="221" y="705" type="line"/>
      <point x="12" y="522" type="line"/>
      <point x="12" y="503" type="line"/>
      <point x="95" y="481" type="line"/>
      <point x="104" y="324" type="line"/>
      <point x="23" y="315" type="line"/>
      <point x="23" y="268" type="line"/>
      <point x="103" y="277" type="line"/>
      <point x="88" y="156" type="line" smooth="yes"/>
      <point x="75" y="51"/>
      <point x="168" y="-13"/>
      <point x="247" y="-13" type="curve" smooth="yes"/>
      <point x="322" y="-13"/>
      <point x="379" y="26"/>
      <point x="456" y="154" type="curve"/>
      <point x="431" y="173" type="line"/>
      <point x="389" y="118"/>
      <point x="357" y="103"/>
      <point x="323" y="103" type="curve" smooth="yes"/>
      <point x="273" y="103"/>
      <point x="235" y="133"/>
      <point x="236" y="206" type="curve" smooth="yes"/>
      <point x="238" y="292" type="line"/>
    </contour>
  </outline>
</glyph>
<glyph name="dotlessj" format="1">
  <advance width="240"/>
  <unicode hex="0237"/>
  <outline>
    <contour>
      <point x="34" y="-184" type="curve"/>
      <point x="63" y="-188" type="line"/>
      <point x="80" y="-149"/>
      <point x="117" y="-96"/>
      <point x="148" y="-40" type="curve" smooth="yes"/>
      <point x="182" y="22"/>
      <point x="213" y="93"/>
      <point x="213" y="164" type="curve"/>
      <point x="203" y="245"/>
      <point x="182" y="406"/>
      <point x="188" y="553" type="curve"/>
      <point x="31" y="525" type="line"/>
      <point x="45" y="426"/>
      <point x="56" y="335"/>
      <point x="56" y="262" type="curve" smooth="yes"/>
      <point x="56" y="78"/>
      <point x="42" y="-85"/>
    </contour>
  </outline>
</glyph>
<glyph name="circumflex" format="1">
  <advance width="500"/>
  <unicode hex="02C6"/>
  <outline>
    <contour>
      <point x="108" y="655" type="line"/>
      <point x="250" y="785" type="line"/>
      <point x="392" y="655" type="line"/>
      <point x="417" y="655" type="line"/>
      <point x="319" y="868" type="line"/>
      <point x="181" y="868" type="line"/>
      <point x="83" y="655" type="line"/>
    </contour>
  </outline>
</glyph>
<glyph name="breve" format="1">
  <advance width="500"/>
  <unicode hex="02D8"/>
  <outline>
    <contour>
      <point x="262" y="706" type="curve" smooth="yes"/>
      <point x="222" y="706"/>
      <point x="213" y="739"/>
      <point x="196" y="832" type="curve"/>
      <point x="79" y="832" type="line"/>
      <point x="104" y="724"/>
      <point x="176" y="674"/>
      <point x="262" y="674" type="curve" smooth="yes"/>
      <point x="348" y="674"/>
      <point x="420" y="724"/>
      <point x="445" y="832" type="curve"/>
      <point x="328" y="832" type="line"/>
      <point x="311" y="739"/>
      <point x="302" y="706"/>
    </contour>
  </outline>
</glyph>
<glyph name="dotaccent" format="1">
  <advance width="500"/>
  <unicode hex="02D9"/>
  <outline>
    <contour>
      <point x="146" y="794" type="line"/>
      <point x="250" y="689" type="line"/>
      <point x="354" y="794" type="line"/>
      <point x="250" y="897" type="line"/>
    </contour>
  </outline>
</glyph>
<glyph name="ogonek" format="1">
  <advance width="500"/>
  <unicode hex="02DB"/>
  <outline>
    <contour>
      <point x="258" y="-268" type="curve" smooth="yes"/>
      <point x="304" y="-268"/>
      <point x="343" y="-260"/>
      <point x="376" y="-248" type="curve"/>
      <point x="376" y="-125" type="line"/>
      <point x="324" y="-143"/>
      <point x="286" y="-151"/>
      <point x="247" y="-151" type="curve" smooth="yes"/>
      <point x="207" y="-151"/>
      <point x="181" y="-132"/>
      <point x="181" y="-105" type="curve" smooth="yes"/>
      <point x="181" y="-80"/>
      <point x="192" y="-33"/>
      <point x="338" y="0" type="curve"/>
      <point x="334" y="25" type="line"/>
      <point x="165" y="2"/>
      <point x="103" y="-77"/>
      <point x="103" y="-152" type="curve" smooth="yes"/>
      <point x="103" y="-214"/>
      <point x="159" y="-268"/>
    </contour>
  </outline>
</glyph>
<glyph name="tilde" format="1">
  <advance width="500"/>
  <unicode hex="02DC"/>
  <outline>
    <contour>
      <point x="345" y="787" type="curve" smooth="yes"/>
      <point x="288" y="787"/>
      <point x="228" y="832"/>
      <point x="171" y="832" type="curve" smooth="yes"/>
      <point x="118" y="832"/>
      <point x="87" y="801"/>
      <point x="43" y="686" type="curve"/>
      <point x="71" y="676" type="line"/>
      <point x="90" y="724"/>
      <point x="113" y="737"/>
      <point x="142" y="737" type="curve" smooth="yes"/>
      <point x="199" y="737"/>
      <point x="263" y="693"/>
      <point x="320" y="693" type="curve" smooth="yes"/>
      <point x="378" y="693"/>
      <point x="413" y="731"/>
      <point x="448" y="839" type="curve"/>
      <point x="416" y="848" type="line"/>
      <point x="407" y="806"/>
      <point x="379" y="787"/>
    </contour>
  </outline>
</glyph>
<glyph name="pi" format="1">
  <advance width="664"/>
  <unicode hex="03C0"/>
  <outline>
    <contour>
      <point x="380" y="0" type="curve"/>
      <point x="536" y="-12" type="line"/>
      <point x="516" y="302" type="line"/>
      <point x="534" y="423" type="line"/>
      <point x="646" y="580" type="line"/>
      <point x="133" y="580" type="line"/>
      <point x="41" y="428" type="line"/>
      <point x="185" y="441" type="line"/>
      <point x="204" y="365"/>
      <point x="211" y="299"/>
      <point x="211" y="251" type="curve" smooth="yes"/>
      <point x="211" y="156"/>
      <point x="173" y="132"/>
      <point x="130" y="132" type="curve" smooth="yes"/>
      <point x="95" y="132"/>
      <point x="70" y="148"/>
      <point x="54" y="180" type="curve"/>
      <point x="44" y="177" type="line"/>
      <point x="39" y="152"/>
      <point x="37" y="129"/>
      <point x="37" y="109" type="curve" smooth="yes"/>
      <point x="37" y="41"/>
      <point x="67" y="-13"/>
      <point x="130" y="-13" type="curve" smooth="yes"/>
      <point x="206" y="-13"/>
      <point x="259" y="80"/>
      <point x="259" y="226" type="curve" smooth="yes"/>
      <point x="259" y="285"/>
      <point x="244" y="364"/>
      <point x="223" y="444" type="curve"/>
      <point x="396" y="459" type="line"/>
      <point x="384" y="307"/>
      <point x="380" y="153"/>
    </contour>
  </outline>
</glyph>
<glyph name="emdash" format="1">
  <advance width="840"/>
  <unicode hex="2014"/>
  <outline>
    <contour>
      <point x="20" y="370" type="line"/>
      <point x="20" y="300" type="line"/>
      <point x="820" y="300" type="line"/>
      <point x="820" y="370" type="line"/>
    </contour>
  </outline>
</glyph>
<glyph name="quoteright" format="1">
  <advance width="253"/>
  <unicode hex="2019"/>
  <outline>
    <contour>
      <point x="220" y="641" type="curve" smooth="yes"/>
      <point x="220" y="709"/>
      <point x="173" y="764"/>
      <point x="115" y="764" type="curve" smooth="yes"/>
      <point x="76" y="764"/>
      <point x="43" y="737"/>
      <point x="43" y="694" type="curve" smooth="yes"/>
      <point x="43" y="646"/>
      <point x="88" y="609"/>
      <point x="161" y="598" type="curve"/>
      <point x="165" y="590" type="line"/>
      <point x="160" y="557"/>
      <point x="102" y="529"/>
      <point x="16" y="507" type="curve"/>
      <point x="39" y="434" type="line"/>
      <point x="188" y="479"/>
      <point x="220" y="557"/>
    </contour>
  </outline>
</glyph>
<glyph name="quotedblleft" format="1">
  <advance width="462"/>
  <unicode hex="201C"/>
  <outline>
    <contour>
      <point x="245" y="557" type="curve" smooth="yes"/>
      <point x="245" y="489"/>
      <point x="292" y="434"/>
      <point x="350" y="434" type="curve" smooth="yes"/>
      <point x="389" y="434"/>
      <point x="422" y="461"/>
      <point x="422" y="504" type="curve" smooth="yes"/>
      <point x="422" y="552"/>
      <point x="377" y="589"/>
      <point x="304" y="600" type="curve"/>
      <point x="300" y="608" type="line"/>
      <point x="305" y="641"/>
      <point x="363" y="669"/>
      <point x="449" y="691" type="curve"/>
      <point x="426" y="764" type="line"/>
      <point x="277" y="719"/>
      <point x="245" y="641"/>
    </contour>
    <contour>
      <point x="36" y="557" type="curve" smooth="yes"/>
      <point x="36" y="489"/>
      <point x="83" y="434"/>
      <point x="141" y="434" type="curve" smooth="yes"/>
      <point x="180" y="434"/>
      <point x="213" y="461"/>
      <point x="213" y="504" type="curve" smooth="yes"/>
      <point x="213" y="552"/>
      <point x="168" y="589"/>
      <point x="95" y="600" type="curve"/>
      <point x="91" y="608" type="line"/>
      <point x="96" y="641"/>
      <point x="154" y="669"/>
      <point x="240" y="691" type="curve"/>
      <point x="217" y="764" type="line"/>
      <point x="68" y="719"/>
      <point x="36" y="641"/>
    </contour>
  </outline>
</glyph>
<glyph name="daggerdbl" format="1">
  <advance width="525"/>
  <unicode hex="2021"/>
  <outline>
    <contour>
      <point x="50" y="100" type="line"/>
      <point x="223" y="100" type="line"/>
      <point x="223" y="-45" type="line"/>
      <point x="302" y="-45" type="line"/>
      <point x="302" y="100" type="line"/>
      <point x="475" y="100" type="line"/>
      <point x="475" y="167" type="line"/>
      <point x="302" y="167" type="line"/>
      <point x="302" y="245" type="line"/>
      <point x="475" y="245" type="line"/>
      <point x="475" y="312" type="line"/>
      <point x="302" y="312" type="line"/>
      <point x="302" y="810" type="line"/>
      <point x="223" y="810" type="line"/>
      <point x="223" y="312" type="line"/>
      <point x="50" y="312" type="line"/>
      <point x="50" y="245" type="line"/>
      <point x="223" y="245" type="line"/>
      <point x="223" y="167" type="line"/>
      <point x="50" y="167" type="line"/>
    </contour>
  </outline>
</glyph>
<glyph name="perthousand" format="1">
  <advance width="807"/>
  <unicode hex="2030"/>
  <outline>
    <contour>
      <point x="217" y="500" type="curve" smooth="yes"/>
      <point x="289" y="500"/>
      <point x="348" y="559"/>
      <point x="348" y="632" type="curve" smooth="yes"/>
      <point x="348" y="704"/>
      <point x="289" y="763"/>
      <point x="217" y="763" type="curve" smooth="yes"/>
      <point x="144" y="763"/>
      <point x="85" y="704"/>
      <point x="85" y="632" type="curve" smooth="yes"/>
      <point x="85" y="559"/>
      <point x="144" y="500"/>
    </contour>
    <contour>
      <point x="25" y="0" type="line"/>
      <point x="126" y="0" type="line"/>
      <point x="608" y="750" type="line"/>
      <point x="507" y="750" type="line"/>
    </contour>
    <contour>
      <point x="417" y="-13" type="curve" smooth="yes"/>
      <point x="472" y="-13"/>
      <point x="520" y="22"/>
      <point x="539" y="71" type="curve"/>
      <point x="558" y="22"/>
      <point x="606" y="-13"/>
      <point x="662" y="-13" type="curve" smooth="yes"/>
      <point x="734" y="-13"/>
      <point x="793" y="46"/>
      <point x="793" y="119" type="curve" smooth="yes"/>
      <point x="793" y="191"/>
      <point x="734" y="250"/>
      <point x="662" y="250" type="curve" smooth="yes"/>
      <point x="606" y="250"/>
      <point x="558" y="215"/>
      <point x="539" y="167" type="curve"/>
      <point x="520" y="215"/>
      <point x="472" y="250"/>
      <point x="417" y="250" type="curve" smooth="yes"/>
      <point x="344" y="250"/>
      <point x="285" y="191"/>
      <point x="285" y="119" type="curve" smooth="yes"/>
      <point x="285" y="46"/>
      <point x="344" y="-13"/>
    </contour>
  </outline>
</glyph>
<glyph name="guilsinglleft" format="1">
  <advance width="341"/>
  <unicode hex="2039"/>
  <outline>
    <contour>
      <point x="297" y="534" type="line"/>
      <point x="40" y="310" type="line"/>
      <point x="40" y="300" type="line"/>
      <point x="297" y="76" type="line"/>
      <point x="316" y="95" type="line"/>
      <point x="165" y="305" type="line"/>
      <point x="316" y="515" type="line"/>
    </contour>
  </outline>
</glyph>
<glyph name="guilsinglright" format="1">
  <advance width="341"/>
  <unicode hex="203A"/>
  <outline>
    <contour>
      <point x="44" y="76" type="line"/>
      <point x="301" y="300" type="line"/>
      <point x="301" y="310" type="line"/>
      <point x="44" y="534" type="line"/>
      <point x="25" y="515" type="line"/>
      <point x="176" y="305" type="line"/>
      <point x="25" y="95" type="line"/>
    </contour>
  </outline>
</glyph>
<glyph name="fraction" format="1">
  <advance width="633"/>
  <unicode hex="2044"/>
  <outline>
    <contour>
      <point x="25" y="0" type="line"/>
      <point x="126" y="0" type="line"/>
      <point x="608" y="750" type="line"/>
      <point x="507" y="750" type="line"/>
    </contour>
  </outline>
</glyph>
<glyph name="Euro" format="1">
  <advance width="652"/>
  <unicode hex="20AC"/>
  <outline>
    <contour>
      <point x="4" y="343" type="line"/>
      <point x="119" y="343" type="line"/>
      <point x="149" y="143"/>
      <point x="332" y="3"/>
      <point x="584" y="-10" type="curve"/>
      <point x="612" y="172" type="line"/>
      <point x="407" y="191"/>
      <point x="246" y="246"/>
      <point x="188" y="343" type="curve"/>
      <point x="524" y="343" type="line"/>
      <point x="524" y="280" type="line"/>
      <point x="574" y="294" type="line"/>
      <point x="574" y="763" type="line"/>
      <point x="345" y="771"/>
      <point x="173" y="655"/>
      <point x="127" y="490" type="curve"/>
      <point x="39" y="490" type="line"/>
      <point x="29" y="443" type="line"/>
      <point x="118" y="443" type="line"/>
      <point x="116" y="429"/>
      <point x="115" y="415"/>
      <point x="115" y="401" type="curve" smooth="yes"/>
      <point x="115" y="390" type="line"/>
      <point x="14" y="390" type="line"/>
    </contour>
    <contour>
      <point x="401" y="593" type="curve" smooth="yes"/>
      <point x="437" y="593"/>
      <point x="485" y="588"/>
      <point x="524" y="580" type="curve"/>
      <point x="524" y="490" type="line"/>
      <point x="175" y="490" type="line"/>
      <point x="202" y="563"/>
      <point x="281" y="593"/>
    </contour>
    <contour>
      <point x="165" y="427" type="curve" smooth="yes"/>
      <point x="165" y="433"/>
      <point x="165" y="438"/>
      <point x="166" y="443" type="curve"/>
      <point x="524" y="443" type="line"/>
      <point x="524" y="390" type="line"/>
      <point x="169" y="390" type="line"/>
      <point x="166" y="402"/>
      <point x="165" y="414"/>
    </contour>
  </outline>
</glyph>
<glyph name="trademark" format="1">
  <advance width="978"/>
  <unicode hex="2122"/>
  <outline>
    <contour>
      <point x="489" y="368" type="line"/>
      <point x="594" y="368" type="line"/>
      <point x="527" y="635" type="line"/>
      <point x="666" y="534" type="line"/>
      <point x="656" y="368" type="line"/>
      <point x="752" y="368" type="line"/>
      <point x="740" y="534" type="line"/>
      <point x="874" y="634" type="line"/>
      <point x="813" y="368" type="line"/>
      <point x="919" y="368" type="line"/>
      <point x="909" y="572" type="line"/>
      <point x="927" y="757" type="line"/>
      <point x="914" y="759" type="line"/>
      <point x="704" y="605" type="line"/>
      <point x="493" y="759" type="line"/>
      <point x="480" y="757" type="line"/>
      <point x="498" y="572" type="line"/>
    </contour>
    <contour>
      <point x="172" y="368" type="line"/>
      <point x="281" y="368" type="line"/>
      <point x="274" y="562" type="line"/>
      <point x="276" y="597" type="line"/>
      <point x="429" y="539" type="line"/>
      <point x="415" y="629" type="line"/>
      <point x="278" y="629" type="line"/>
      <point x="282" y="701" type="line"/>
      <point x="282" y="718" type="line"/>
      <point x="429" y="662" type="line"/>
      <point x="415" y="752" type="line"/>
      <point x="43" y="752" type="line"/>
      <point x="30" y="662" type="line"/>
      <point x="176" y="717" type="line"/>
      <point x="180" y="629" type="line"/>
      <point x="43" y="629" type="line"/>
      <point x="30" y="539" type="line"/>
      <point x="181" y="596" type="line"/>
      <point x="183" y="562" type="line"/>
    </contour>
  </outline>
</glyph>
<glyph name="Omega" format="1">
  <advance width="724"/>
  <unicode hex="2126"/>
  <outline>
    <contour>
      <point x="300" y="0" type="line"/>
      <point x="300" y="235" type="line"/>
      <point x="218" y="246"/>
      <point x="132" y="287"/>
      <point x="132" y="398" type="curve" smooth="yes"/>
      <point x="132" y="427"/>
      <point x="140" y="453"/>
      <point x="159" y="480" type="curve"/>
      <point x="159" y="403"/>
      <point x="189" y="350"/>
      <point x="213" y="309" type="curve"/>
      <point x="332" y="370" type="line"/>
      <point x="262" y="441"/>
      <point x="237" y="510"/>
      <point x="237" y="556" type="curve" smooth="yes"/>
      <point x="237" y="576"/>
      <point x="239" y="595"/>
      <point x="244" y="614" type="curve"/>
      <point x="451" y="562"/>
      <point x="571" y="484"/>
      <point x="571" y="346" type="curve" smooth="yes"/>
      <point x="571" y="281"/>
      <point x="524" y="228"/>
      <point x="424" y="188" type="curve"/>
      <point x="424" y="0" type="line"/>
      <point x="711" y="0" type="line"/>
      <point x="711" y="170" type="line"/>
      <point x="488" y="46" type="line"/>
      <point x="488" y="168" type="line"/>
      <point x="610" y="237"/>
      <point x="667" y="325"/>
      <point x="667" y="417" type="curve" smooth="yes"/>
      <point x="667" y="540"/>
      <point x="575" y="704"/>
      <point x="296" y="763" type="curve"/>
      <point x="235" y="691"/>
      <point x="193" y="612"/>
      <point x="173" y="551" type="curve"/>
      <point x="87" y="493"/>
      <point x="49" y="422"/>
      <point x="49" y="345" type="curve" smooth="yes"/>
      <point x="49" y="276"/>
      <point x="77" y="178"/>
      <point x="236" y="113" type="curve"/>
      <point x="236" y="46" type="line"/>
      <point x="13" y="170" type="line"/>
      <point x="13" y="0" type="line"/>
    </contour>
  </outline>
</glyph>
<glyph name="estimated" format="1">
  <advance width="716"/>
  <unicode hex="212E"/>
  <outline>
    <contour>
      <point x="634" y="134" type="curve"/>
      <point x="594" y="162" type="line"/>
      <point x="533" y="75"/>
      <point x="447" y="40"/>
      <point x="359" y="40" type="curve" smooth="yes"/>
      <point x="288" y="40"/>
      <point x="229" y="65"/>
      <point x="190" y="110" type="curve"/>
      <point x="190" y="289" type="line"/>
      <point x="666" y="289" type="line"/>
      <point x="661" y="466"/>
      <point x="537" y="604"/>
      <point x="357" y="604" type="curve" smooth="yes"/>
      <point x="180" y="604"/>
      <point x="50" y="458"/>
      <point x="50" y="304" type="curve" smooth="yes"/>
      <point x="50" y="115"/>
      <point x="188" y="-13"/>
      <point x="359" y="-13" type="curve" smooth="yes"/>
      <point x="468" y="-13"/>
      <point x="561" y="31"/>
    </contour>
    <contour>
      <point x="190" y="341" type="line"/>
      <point x="190" y="484" type="line"/>
      <point x="230" y="528"/>
      <point x="290" y="551"/>
      <point x="357" y="551" type="curve" smooth="yes"/>
      <point x="424" y="551"/>
      <point x="484" y="528"/>
      <point x="524" y="484" type="curve"/>
      <point x="524" y="341" type="line"/>
    </contour>
  </outline>
</glyph>
<glyph name="partialdiff" format="1">
  <advance width="581"/>
  <unicode hex="2202"/>
  <outline>
    <contour>
      <point x="77" y="743" type="line"/>
      <point x="205" y="678"/>
      <point x="286" y="616"/>
      <point x="335" y="553" type="curve"/>
      <point x="120" y="457"/>
      <point x="25" y="332"/>
      <point x="25" y="204" type="curve" smooth="yes"/>
      <point x="25" y="114"/>
      <point x="96" y="19"/>
      <point x="191" y="-15" type="curve"/>
      <point x="397" y="63"/>
      <point x="564" y="172"/>
      <point x="564" y="369" type="curve" smooth="yes"/>
      <point x="564" y="486"/>
      <point x="502" y="655"/>
      <point x="91" y="763" type="curve"/>
    </contour>
    <contour>
      <point x="170" y="289" type="curve" smooth="yes"/>
      <point x="170" y="378"/>
      <point x="241" y="470"/>
      <point x="359" y="519" type="curve"/>
      <point x="393" y="464"/>
      <point x="405" y="409"/>
      <point x="405" y="352" type="curve" smooth="yes"/>
      <point x="405" y="256"/>
      <point x="375" y="157"/>
      <point x="308" y="83" type="curve"/>
      <point x="230" y="132"/>
      <point x="170" y="199"/>
    </contour>
  </outline>
</glyph>
<glyph name="Delta" format="1">
  <advance width="695"/>
  <unicode hex="2206"/>
  <outline>
    <contour>
      <point x="685" y="2" type="curve"/>
      <point x="421" y="782" type="line"/>
      <point x="312" y="740" type="line"/>
      <point x="283" y="754"/>
      <point x="251" y="762"/>
      <point x="218" y="762" type="curve" smooth="yes"/>
      <point x="99" y="762"/>
      <point x="20" y="687"/>
      <point x="20" y="573" type="curve" smooth="yes"/>
      <point x="20" y="455"/>
      <point x="128" y="359"/>
      <point x="278" y="342" type="curve"/>
      <point x="220" y="250"/>
      <point x="129" y="160"/>
      <point x="20" y="92" type="curve"/>
      <point x="20" y="86" type="line"/>
      <point x="144" y="12"/>
      <point x="285" y="-13"/>
      <point x="460" y="-13" type="curve" smooth="yes"/>
      <point x="519" y="-13"/>
      <point x="596" y="-8"/>
    </contour>
    <contour>
      <point x="57" y="568" type="curve" smooth="yes"/>
      <point x="57" y="648"/>
      <point x="121" y="703"/>
      <point x="194" y="703" type="curve" smooth="yes"/>
      <point x="282" y="703"/>
      <point x="344" y="639"/>
      <point x="344" y="538" type="curve" smooth="yes"/>
      <point x="344" y="485"/>
      <point x="326" y="426"/>
      <point x="293" y="367" type="curve"/>
      <point x="145" y="386"/>
      <point x="57" y="469"/>
    </contour>
    <contour>
      <point x="128" y="140" type="curve"/>
      <point x="254" y="202"/>
      <point x="347" y="278"/>
      <point x="392" y="392" type="curve"/>
      <point x="473" y="112" type="line"/>
      <point x="315" y="111"/>
      <point x="195" y="122"/>
    </contour>
  </outline>
</glyph>
<glyph name="minus" format="1">
  <advance width="550"/>
  <unicode hex="2212"/>
  <outline>
    <contour>
      <point x="28" y="360" type="line"/>
      <point x="28" y="305" type="line"/>
      <point x="522" y="305" type="line"/>
      <point x="522" y="360" type="line"/>
    </contour>
  </outline>
</glyph>
<glyph name="infinity" format="1">
  <advance width="701"/>
  <unicode hex="221E"/>
  <outline>
    <contour>
      <point x="519" y="164" type="curve" smooth="yes"/>
      <point x="609" y="163"/>
      <point x="673" y="242"/>
      <point x="673" y="373" type="curve" smooth="yes"/>
      <point x="673" y="499"/>
      <point x="598" y="577"/>
      <point x="507" y="577" type="curve" smooth="yes"/>
      <point x="433" y="577"/>
      <point x="402" y="535"/>
      <point x="352" y="439" type="curve"/>
      <point x="316" y="522"/>
      <point x="266" y="577"/>
      <point x="184" y="576" type="curve" smooth="yes"/>
      <point x="94" y="577"/>
      <point x="30" y="498"/>
      <point x="30" y="367" type="curve" smooth="yes"/>
      <point x="30" y="241"/>
      <point x="105" y="163"/>
      <point x="196" y="163" type="curve" smooth="yes"/>
      <point x="270" y="163"/>
      <point x="301" y="205"/>
      <point x="351" y="301" type="curve"/>
      <point x="387" y="218"/>
      <point x="437" y="163"/>
    </contour>
    <contour>
      <point x="586" y="371" type="curve" smooth="yes"/>
      <point x="586" y="306"/>
      <point x="550" y="265"/>
      <point x="494" y="265" type="curve" smooth="yes"/>
      <point x="432" y="265"/>
      <point x="394" y="290"/>
      <point x="366" y="337" type="curve"/>
      <point x="389" y="379" type="line" smooth="yes"/>
      <point x="432" y="457"/>
      <point x="455" y="478"/>
      <point x="504" y="478" type="curve" smooth="yes"/>
      <point x="556" y="478"/>
      <point x="586" y="437"/>
    </contour>
    <contour>
      <point x="117" y="369" type="curve" smooth="yes"/>
      <point x="118" y="434"/>
      <point x="153" y="475"/>
      <point x="209" y="475" type="curve" smooth="yes"/>
      <point x="271" y="475"/>
      <point x="309" y="450"/>
      <point x="337" y="403" type="curve"/>
      <point x="314" y="361" type="line" smooth="yes"/>
      <point x="271" y="283"/>
      <point x="248" y="262"/>
      <point x="199" y="262" type="curve" smooth="yes"/>
      <point x="147" y="262"/>
      <point x="118" y="303"/>
    </contour>
  </outline>
</glyph>
<glyph name="notequal" format="1">
  <advance width="550"/>
  <unicode hex="2260"/>
  <outline>
    <contour>
      <point x="80" y="12" type="line"/>
      <point x="131" y="12" type="line"/>
      <point x="222" y="185" type="line"/>
      <point x="522" y="185" type="line"/>
      <point x="522" y="240" type="line"/>
      <point x="252" y="240" type="line"/>
      <point x="349" y="425" type="line"/>
      <point x="522" y="425" type="line"/>
      <point x="522" y="480" type="line"/>
      <point x="379" y="480" type="line"/>
      <point x="470" y="653" type="line"/>
      <point x="419" y="653" type="line"/>
      <point x="328" y="480" type="line"/>
      <point x="28" y="480" type="line"/>
      <point x="28" y="425" type="line"/>
      <point x="298" y="425" type="line"/>
      <point x="201" y="240" type="line"/>
      <point x="28" y="240" type="line"/>
      <point x="28" y="185" type="line"/>
      <point x="171" y="185" type="line"/>
    </contour>
  </outline>
</glyph>
<glyph name="lessequal" format="1">
  <advance width="550"/>
  <unicode hex="2264"/>
  <outline>
    <contour>
      <point x="28" y="390" type="line"/>
      <point x="28" y="325" type="line"/>
      <point x="517" y="170" type="line"/>
      <point x="517" y="230" type="line"/>
      <point x="93" y="358" type="line"/>
      <point x="517" y="485" type="line"/>
      <point x="517" y="545" type="line"/>
    </contour>
    <contour>
      <point x="28" y="135" type="line"/>
      <point x="28" y="80" type="line"/>
      <point x="522" y="80" type="line"/>
      <point x="522" y="135" type="line"/>
    </contour>
  </outline>
</glyph>
<glyph name="lozenge" format="1">
  <advance width="550"/>
  <unicode hex="25CA"/>
  <outline>
    <contour>
      <point x="247" y="0" type="line"/>
      <point x="303" y="0" type="line"/>
      <point x="522" y="339" type="line"/>
      <point x="303" y="678" type="line"/>
      <point x="247" y="678" type="line"/>
      <point x="28" y="339" type="line"/>
    </contour>
    <contour>
      <point x="275" y="614" type="line"/>
      <point x="450" y="339" type="line"/>
      <point x="275" y="64" type="line"/>
      <point x="100" y="339" type="line"/>
    </contour>
  </outline>
</glyph>
<glyph name="commaaccent" format="1">
  <advance width="500"/>
  <unicode hex="F6C3"/>
  <outline>
    <contour>
      <point x="349" y="-204" type="curve" smooth="yes"/>
      <point x="349" y="-134"/>
      <point x="305" y="-89"/>
      <point x="171" y="-62" type="curve"/>
      <point x="138" y="-165" type="line"/>
      <point x="316" y="-218" type="line"/>
      <point x="276" y="-261"/>
      <point x="207" y="-279"/>
      <point x="99" y="-284" type="curve"/>
      <point x="124" y="-352" type="line"/>
      <point x="298" y="-340"/>
      <point x="349" y="-269"/>
    </contour>
  </outline>
</glyph>
<glyph name="fi" format="1">
  <advance width="600"/>
  <unicode hex="FB01"/>
  <outline>
    <contour>
      <point x="121" y="16" type="curve" smooth="yes"/>
      <point x="121" y="176"/>
      <point x="312" y="253"/>
      <point x="312" y="360" type="curve" smooth="yes"/>
      <point x="312" y="404"/>
      <point x="289" y="434"/>
      <point x="255" y="466" type="curve"/>
      <point x="358" y="466" type="line"/>
      <point x="358" y="514" type="line"/>
      <point x="211" y="514" type="line"/>
      <point x="162" y="550"/>
      <point x="135" y="579"/>
      <point x="135" y="608" type="curve" smooth="yes"/>
      <point x="135" y="638"/>
      <point x="167" y="668"/>
      <point x="238" y="668" type="curve" smooth="yes"/>
      <point x="320" y="668"/>
      <point x="384" y="623"/>
      <point x="395" y="518" type="curve"/>
      <point x="427" y="203" type="line"/>
      <point x="403" y="0" type="line"/>
      <point x="574" y="0" type="line"/>
      <point x="549" y="409" type="line"/>
      <point x="557" y="601" type="line"/>
      <point x="427" y="560" type="line"/>
      <point x="573" y="804" type="line"/>
      <point x="514" y="812" type="line"/>
      <point x="474" y="698" type="line"/>
      <point x="451" y="747"/>
      <point x="404" y="783"/>
      <point x="338" y="783" type="curve"/>
      <point x="202" y="783"/>
      <point x="30" y="617"/>
      <point x="30" y="514" type="curve"/>
      <point x="-35" y="514" type="line"/>
      <point x="-35" y="466" type="line"/>
      <point x="44" y="466" type="line"/>
      <point x="78" y="390"/>
      <point x="166" y="350"/>
      <point x="166" y="269" type="curve" smooth="yes"/>
      <point x="166" y="204"/>
      <point x="72" y="141"/>
      <point x="72" y="23" type="curve" smooth="yes"/>
      <point x="72" y="-70"/>
      <point x="124" y="-135"/>
      <point x="227" y="-186" type="curve"/>
      <point x="250" y="-151" type="line"/>
      <point x="161" y="-104"/>
      <point x="121" y="-47"/>
    </contour>
  </outline>
</glyph>
<glyph name="fl" format="1">
  <advance width="576"/>
  <unicode hex="FB02"/>
  <outline>
    <contour>
      <point x="87" y="16" type="curve" smooth="yes"/>
      <point x="87" y="-74"/>
      <point x="140" y="-135"/>
      <point x="242" y="-186" type="curve"/>
      <point x="265" y="-151" type="line"/>
      <point x="176" y="-104"/>
      <point x="136" y="-47"/>
      <point x="136" y="16" type="curve" smooth="yes"/>
      <point x="136" y="153"/>
      <point x="321" y="242"/>
      <point x="321" y="342" type="curve" smooth="yes"/>
      <point x="321" y="407"/>
      <point x="260" y="454"/>
      <point x="204" y="502" type="curve"/>
      <point x="337" y="502" type="line"/>
      <point x="337" y="550" type="line"/>
      <point x="154" y="550" type="line"/>
      <point x="133" y="574"/>
      <point x="119" y="599"/>
      <point x="119" y="627" type="curve" smooth="yes"/>
      <point x="119" y="665"/>
      <point x="148" y="691"/>
      <point x="208" y="691" type="curve" smooth="yes"/>
      <point x="323" y="691"/>
      <point x="386" y="641"/>
      <point x="392" y="515" type="curve" smooth="yes"/>
      <point x="399" y="378" type="line"/>
      <point x="389" y="0" type="line"/>
      <point x="546" y="0" type="line"/>
      <point x="536" y="384" type="line"/>
      <point x="544" y="629" type="line"/>
      <point x="544" y="789" type="line"/>
      <point x="535" y="793" type="line"/>
      <point x="471" y="725" type="line"/>
      <point x="436" y="763"/>
      <point x="393" y="783"/>
      <point x="321" y="783" type="curve" smooth="yes"/>
      <point x="165" y="783"/>
      <point x="35" y="660"/>
      <point x="23" y="550" type="curve"/>
      <point x="-92" y="550" type="line"/>
      <point x="-92" y="502" type="line"/>
      <point x="25" y="502" type="line"/>
      <point x="47" y="389"/>
      <point x="181" y="346"/>
      <point x="181" y="261" type="curve" smooth="yes"/>
      <point x="181" y="183"/>
      <point x="87" y="135"/>
    </contour>
  </outline>
</glyph>
